M48
; DRILL file {KiCad (5.1.12)-1} date 08/18/22 02:06:46
; FORMAT={-:-/ absolute / inch / decimal}
; #@! TF.CreationDate,2022-08-18T02:06:46-04:00
; #@! TF.GenerationSoftware,Kicad,Pcbnew,(5.1.12)-1
; #@! TF.FileFunction,Plated,1,2,PTH
FMAT,2
INCH
T1C0.0118
T2C0.0130
T3C0.0394
T4C0.1260
%
G90
G05
T1
X8.4906Y-4.2856
X8.4906Y-4.325
X8.4906Y-4.3644
X8.53Y-4.2856
X8.53Y-4.325
X8.53Y-4.3644
X8.5694Y-4.2856
X8.5694Y-4.325
X8.5694Y-4.3644
T2
X8.135Y-4.19
X8.21Y-4.29
X8.21Y-4.39
X8.305Y-4.255
X8.365Y-3.675
X8.42Y-4.015
X8.4971Y-3.3479
X8.7668Y-3.3168
X8.785Y-3.805
X8.8534Y-3.3116
X9.0227Y-3.3473
X9.105Y-4.6
X9.1217Y-3.2917
X9.204Y-3.749
X9.27Y-4.6
X9.28Y-4.025
X9.289Y-3.956
X9.29Y-3.85
X9.329Y-3.849
X9.335Y-3.72
X9.39Y-3.85
X9.43Y-4.01
X9.445Y-4.17
X9.56Y-4.6
X9.635Y-3.655
T3
X7.9Y-4.1
X7.9Y-4.2
X7.9Y-4.3
X7.9Y-4.4
X7.9Y-4.5
X7.9Y-4.6
X8.1Y-4.1
X8.1Y-4.6
X8.2Y-4.1
X8.2Y-4.6
X8.3Y-4.1
X8.3Y-4.6
X8.4Y-4.1
X8.4Y-4.6
X8.5Y-4.6
X8.6Y-3.9
X8.6Y-4.0
X8.6Y-4.1
X8.6Y-4.6
X8.7Y-3.9
X8.7Y-4.0
X8.7Y-4.1
X8.8Y-4.6
X8.9Y-3.9
X8.9Y-4.0
X8.9Y-4.1
X8.9Y-4.2
X8.9Y-4.3
X8.9Y-4.4
X8.9Y-4.6
X9.63Y-3.995
X9.63Y-4.095
X9.63Y-4.195
X9.63Y-4.295
X9.63Y-4.395
T4
X7.975Y-3.35
X9.575Y-3.35
T0
M30
