%TF.GenerationSoftware,KiCad,Pcbnew,(5.1.12)-1*%
%TF.CreationDate,2022-08-18T02:06:39-04:00*%
%TF.ProjectId,MiniMicro,4d696e69-4d69-4637-926f-2e6b69636164,rev?*%
%TF.SameCoordinates,Original*%
%TF.FileFunction,Copper,L2,Bot*%
%TF.FilePolarity,Positive*%
%FSLAX46Y46*%
G04 Gerber Fmt 4.6, Leading zero omitted, Abs format (unit mm)*
G04 Created by KiCad (PCBNEW (5.1.12)-1) date 2022-08-18 02:06:39*
%MOMM*%
%LPD*%
G01*
G04 APERTURE LIST*
%TA.AperFunction,ComponentPad*%
%ADD10C,6.400000*%
%TD*%
%TA.AperFunction,ComponentPad*%
%ADD11O,1.700000X1.700000*%
%TD*%
%TA.AperFunction,ComponentPad*%
%ADD12R,1.700000X1.700000*%
%TD*%
%TA.AperFunction,ComponentPad*%
%ADD13C,0.500000*%
%TD*%
%TA.AperFunction,SMDPad,CuDef*%
%ADD14R,1.800000X1.250000*%
%TD*%
%TA.AperFunction,ViaPad*%
%ADD15C,0.685800*%
%TD*%
%TA.AperFunction,Conductor*%
%ADD16C,0.508000*%
%TD*%
%TA.AperFunction,Conductor*%
%ADD17C,0.254000*%
%TD*%
%TA.AperFunction,Conductor*%
%ADD18C,0.203200*%
%TD*%
%TA.AperFunction,Conductor*%
%ADD19C,0.100000*%
%TD*%
G04 APERTURE END LIST*
D10*
%TO.P,REF\u002A\u002A,1*%
%TO.N,N/C*%
X202565000Y-85090000D03*
%TD*%
%TO.P,REF\u002A\u002A,1*%
%TO.N,N/C*%
X243205000Y-85090000D03*
%TD*%
D11*
%TO.P,J7,6*%
%TO.N,/PA5*%
X200660000Y-104140000D03*
%TO.P,J7,5*%
%TO.N,/PA6*%
X200660000Y-106680000D03*
%TO.P,J7,4*%
%TO.N,/PA7*%
X200660000Y-109220000D03*
%TO.P,J7,3*%
%TO.N,+5V*%
X200660000Y-111760000D03*
%TO.P,J7,2*%
%TO.N,GND*%
X200660000Y-114300000D03*
D12*
%TO.P,J7,1*%
%TO.N,+3V3*%
X200660000Y-116840000D03*
%TD*%
%TO.P,J8,1*%
%TO.N,/SPI_SCK_5.0*%
X213360000Y-104140000D03*
D11*
%TO.P,J8,2*%
%TO.N,/SPI_MISO_5.0*%
X210820000Y-104140000D03*
%TO.P,J8,3*%
%TO.N,/SPI_MOSI_5.0*%
X208280000Y-104140000D03*
%TO.P,J8,4*%
%TO.N,/SPI_CS_SD_5.0n*%
X205740000Y-104140000D03*
%TD*%
%TO.P,J6,2*%
%TO.N,/I2C_SCL_5.0*%
X223520000Y-116840000D03*
D12*
%TO.P,J6,1*%
%TO.N,/I2C_SDA_5.0*%
X226060000Y-116840000D03*
%TD*%
D11*
%TO.P,J5,6*%
%TO.N,/PB7*%
X205740000Y-116840000D03*
%TO.P,J5,5*%
%TO.N,/PB6*%
X208280000Y-116840000D03*
%TO.P,J5,4*%
%TO.N,/PB5*%
X210820000Y-116840000D03*
%TO.P,J5,3*%
%TO.N,/PB4*%
X213360000Y-116840000D03*
%TO.P,J5,2*%
%TO.N,/PB3*%
X215900000Y-116840000D03*
D12*
%TO.P,J5,1*%
%TO.N,/PB2*%
X218440000Y-116840000D03*
%TD*%
D11*
%TO.P,J4,6*%
%TO.N,/PC5-ACCEL-INT1*%
X226060000Y-99060000D03*
%TO.P,J4,5*%
%TO.N,/PC4-GYRO-INT3*%
X226060000Y-101600000D03*
%TO.P,J4,4*%
%TO.N,/PC3-ALT-INT*%
X226060000Y-104140000D03*
%TO.P,J4,3*%
%TO.N,/PC2*%
X226060000Y-106680000D03*
%TO.P,J4,2*%
%TO.N,/PC1*%
X226060000Y-109220000D03*
D12*
%TO.P,J4,1*%
%TO.N,/PC0*%
X226060000Y-111760000D03*
%TD*%
D11*
%TO.P,J2,5*%
%TO.N,GND*%
X244602000Y-111633000D03*
%TO.P,J2,4*%
%TO.N,Net-(IC7-Pad3)*%
X244602000Y-109093000D03*
%TO.P,J2,3*%
%TO.N,Net-(IC7-Pad4)*%
X244602000Y-106553000D03*
%TO.P,J2,2*%
%TO.N,Net-(IC7-Pad5)*%
X244602000Y-104013000D03*
D12*
%TO.P,J2,1*%
%TO.N,Net-(IC7-Pad6)*%
X244602000Y-101473000D03*
%TD*%
D11*
%TO.P,J1,6*%
%TO.N,GND*%
X220980000Y-104140000D03*
%TO.P,J1,5*%
%TO.N,Net-(J1-Pad5)*%
X218440000Y-104140000D03*
%TO.P,J1,4*%
%TO.N,Net-(J1-Pad4)*%
X220980000Y-101600000D03*
%TO.P,J1,3*%
%TO.N,Net-(J1-Pad3)*%
X218440000Y-101600000D03*
%TO.P,J1,2*%
%TO.N,Net-(J1-Pad2)*%
X220980000Y-99060000D03*
D12*
%TO.P,J1,1*%
%TO.N,/UDPI*%
X218440000Y-99060000D03*
%TD*%
D13*
%TO.P,IC1,25*%
%TO.N,GND*%
X215662000Y-110855000D03*
X216662000Y-110855000D03*
X217662000Y-110855000D03*
X217662000Y-109855000D03*
X217662000Y-108855000D03*
X216662000Y-108855000D03*
X215662000Y-108855000D03*
X215662000Y-109855000D03*
X216662000Y-109855000D03*
%TD*%
D14*
%TO.P,C12,2*%
%TO.N,GND*%
X225074000Y-85471000D03*
%TO.P,C12,1*%
%TO.N,/SD-POWER*%
X222474000Y-85471000D03*
%TD*%
D15*
%TO.N,GND*%
X239903000Y-105918000D03*
X242824000Y-116840000D03*
X235458000Y-116840000D03*
X231267000Y-116840000D03*
X210947000Y-108077000D03*
X213868000Y-101981000D03*
X212471000Y-93345000D03*
X206629000Y-106426000D03*
X235712000Y-102235000D03*
X224877000Y-84114000D03*
X223139000Y-96647000D03*
X233782000Y-95225000D03*
X236957000Y-97765000D03*
X237109000Y-94488000D03*
X239522000Y-101854000D03*
X244729000Y-92837000D03*
X229177000Y-85021000D03*
X238506000Y-97790000D03*
X215827000Y-85036000D03*
%TO.N,/SD-POWER*%
X222677000Y-84247000D03*
X231691000Y-83609000D03*
%TO.N,/SPI_CS_SD_5.0n*%
X208534000Y-111506000D03*
X208534000Y-108966000D03*
%TO.N,/I2C_SCL_3.3*%
X235966000Y-97790000D03*
X235940000Y-100483000D03*
%TD*%
D16*
%TO.N,/SD-POWER*%
X231056000Y-83609000D02*
X231691000Y-83609000D01*
X222677000Y-82504000D02*
X223266000Y-81915000D01*
X222677000Y-84247000D02*
X222677000Y-82504000D01*
X222677000Y-85268000D02*
X222474000Y-85471000D01*
X222677000Y-84247000D02*
X222677000Y-85268000D01*
X223266000Y-81915000D02*
X224917000Y-81915000D01*
X226611000Y-83609000D02*
X231056000Y-83609000D01*
X224917000Y-81915000D02*
X226611000Y-83609000D01*
D17*
%TO.N,/SPI_CS_SD_5.0n*%
X208534000Y-111506000D02*
X208534000Y-108966000D01*
%TO.N,/I2C_SCL_3.3*%
X235966000Y-100457000D02*
X235940000Y-100483000D01*
X235966000Y-97790000D02*
X235966000Y-100457000D01*
%TD*%
D18*
%TO.N,GND*%
X247802400Y-83481084D02*
X247802400Y-117813916D01*
X244813916Y-120802400D01*
X200956084Y-120802400D01*
X197967600Y-117813916D01*
X197967600Y-115990000D01*
X199452680Y-115990000D01*
X199452680Y-117690000D01*
X199459546Y-117759710D01*
X199479879Y-117826740D01*
X199512899Y-117888516D01*
X199557337Y-117942663D01*
X199611484Y-117987101D01*
X199673260Y-118020121D01*
X199740290Y-118040454D01*
X199810000Y-118047320D01*
X201510000Y-118047320D01*
X201579710Y-118040454D01*
X201646740Y-118020121D01*
X201708516Y-117987101D01*
X201762663Y-117942663D01*
X201807101Y-117888516D01*
X201840121Y-117826740D01*
X201860454Y-117759710D01*
X201867320Y-117690000D01*
X201867320Y-116721259D01*
X204534400Y-116721259D01*
X204534400Y-116958741D01*
X204580731Y-117191660D01*
X204671611Y-117411066D01*
X204803550Y-117608525D01*
X204971475Y-117776450D01*
X205168934Y-117908389D01*
X205388340Y-117999269D01*
X205621259Y-118045600D01*
X205858741Y-118045600D01*
X206091660Y-117999269D01*
X206311066Y-117908389D01*
X206508525Y-117776450D01*
X206676450Y-117608525D01*
X206808389Y-117411066D01*
X206899269Y-117191660D01*
X206945600Y-116958741D01*
X206945600Y-116721259D01*
X207074400Y-116721259D01*
X207074400Y-116958741D01*
X207120731Y-117191660D01*
X207211611Y-117411066D01*
X207343550Y-117608525D01*
X207511475Y-117776450D01*
X207708934Y-117908389D01*
X207928340Y-117999269D01*
X208161259Y-118045600D01*
X208398741Y-118045600D01*
X208631660Y-117999269D01*
X208851066Y-117908389D01*
X209048525Y-117776450D01*
X209216450Y-117608525D01*
X209348389Y-117411066D01*
X209439269Y-117191660D01*
X209485600Y-116958741D01*
X209485600Y-116721259D01*
X209614400Y-116721259D01*
X209614400Y-116958741D01*
X209660731Y-117191660D01*
X209751611Y-117411066D01*
X209883550Y-117608525D01*
X210051475Y-117776450D01*
X210248934Y-117908389D01*
X210468340Y-117999269D01*
X210701259Y-118045600D01*
X210938741Y-118045600D01*
X211171660Y-117999269D01*
X211391066Y-117908389D01*
X211588525Y-117776450D01*
X211756450Y-117608525D01*
X211888389Y-117411066D01*
X211979269Y-117191660D01*
X212025600Y-116958741D01*
X212025600Y-116721259D01*
X212154400Y-116721259D01*
X212154400Y-116958741D01*
X212200731Y-117191660D01*
X212291611Y-117411066D01*
X212423550Y-117608525D01*
X212591475Y-117776450D01*
X212788934Y-117908389D01*
X213008340Y-117999269D01*
X213241259Y-118045600D01*
X213478741Y-118045600D01*
X213711660Y-117999269D01*
X213931066Y-117908389D01*
X214128525Y-117776450D01*
X214296450Y-117608525D01*
X214428389Y-117411066D01*
X214519269Y-117191660D01*
X214565600Y-116958741D01*
X214565600Y-116721259D01*
X214694400Y-116721259D01*
X214694400Y-116958741D01*
X214740731Y-117191660D01*
X214831611Y-117411066D01*
X214963550Y-117608525D01*
X215131475Y-117776450D01*
X215328934Y-117908389D01*
X215548340Y-117999269D01*
X215781259Y-118045600D01*
X216018741Y-118045600D01*
X216251660Y-117999269D01*
X216471066Y-117908389D01*
X216668525Y-117776450D01*
X216836450Y-117608525D01*
X216968389Y-117411066D01*
X217059269Y-117191660D01*
X217105600Y-116958741D01*
X217105600Y-116721259D01*
X217059269Y-116488340D01*
X216968389Y-116268934D01*
X216836450Y-116071475D01*
X216754975Y-115990000D01*
X217232680Y-115990000D01*
X217232680Y-117690000D01*
X217239546Y-117759710D01*
X217259879Y-117826740D01*
X217292899Y-117888516D01*
X217337337Y-117942663D01*
X217391484Y-117987101D01*
X217453260Y-118020121D01*
X217520290Y-118040454D01*
X217590000Y-118047320D01*
X219290000Y-118047320D01*
X219359710Y-118040454D01*
X219426740Y-118020121D01*
X219488516Y-117987101D01*
X219542663Y-117942663D01*
X219587101Y-117888516D01*
X219620121Y-117826740D01*
X219640454Y-117759710D01*
X219647320Y-117690000D01*
X219647320Y-116721259D01*
X222314400Y-116721259D01*
X222314400Y-116958741D01*
X222360731Y-117191660D01*
X222451611Y-117411066D01*
X222583550Y-117608525D01*
X222751475Y-117776450D01*
X222948934Y-117908389D01*
X223168340Y-117999269D01*
X223401259Y-118045600D01*
X223638741Y-118045600D01*
X223871660Y-117999269D01*
X224091066Y-117908389D01*
X224288525Y-117776450D01*
X224456450Y-117608525D01*
X224588389Y-117411066D01*
X224679269Y-117191660D01*
X224725600Y-116958741D01*
X224725600Y-116721259D01*
X224679269Y-116488340D01*
X224588389Y-116268934D01*
X224456450Y-116071475D01*
X224374975Y-115990000D01*
X224852680Y-115990000D01*
X224852680Y-117690000D01*
X224859546Y-117759710D01*
X224879879Y-117826740D01*
X224912899Y-117888516D01*
X224957337Y-117942663D01*
X225011484Y-117987101D01*
X225073260Y-118020121D01*
X225140290Y-118040454D01*
X225210000Y-118047320D01*
X226910000Y-118047320D01*
X226979710Y-118040454D01*
X227046740Y-118020121D01*
X227108516Y-117987101D01*
X227162663Y-117942663D01*
X227207101Y-117888516D01*
X227240121Y-117826740D01*
X227260454Y-117759710D01*
X227267320Y-117690000D01*
X227267320Y-115990000D01*
X227260454Y-115920290D01*
X227240121Y-115853260D01*
X227207101Y-115791484D01*
X227162663Y-115737337D01*
X227108516Y-115692899D01*
X227046740Y-115659879D01*
X226979710Y-115639546D01*
X226910000Y-115632680D01*
X225210000Y-115632680D01*
X225140290Y-115639546D01*
X225073260Y-115659879D01*
X225011484Y-115692899D01*
X224957337Y-115737337D01*
X224912899Y-115791484D01*
X224879879Y-115853260D01*
X224859546Y-115920290D01*
X224852680Y-115990000D01*
X224374975Y-115990000D01*
X224288525Y-115903550D01*
X224091066Y-115771611D01*
X223871660Y-115680731D01*
X223638741Y-115634400D01*
X223401259Y-115634400D01*
X223168340Y-115680731D01*
X222948934Y-115771611D01*
X222751475Y-115903550D01*
X222583550Y-116071475D01*
X222451611Y-116268934D01*
X222360731Y-116488340D01*
X222314400Y-116721259D01*
X219647320Y-116721259D01*
X219647320Y-115990000D01*
X219640454Y-115920290D01*
X219620121Y-115853260D01*
X219587101Y-115791484D01*
X219542663Y-115737337D01*
X219488516Y-115692899D01*
X219426740Y-115659879D01*
X219359710Y-115639546D01*
X219290000Y-115632680D01*
X217590000Y-115632680D01*
X217520290Y-115639546D01*
X217453260Y-115659879D01*
X217391484Y-115692899D01*
X217337337Y-115737337D01*
X217292899Y-115791484D01*
X217259879Y-115853260D01*
X217239546Y-115920290D01*
X217232680Y-115990000D01*
X216754975Y-115990000D01*
X216668525Y-115903550D01*
X216471066Y-115771611D01*
X216251660Y-115680731D01*
X216018741Y-115634400D01*
X215781259Y-115634400D01*
X215548340Y-115680731D01*
X215328934Y-115771611D01*
X215131475Y-115903550D01*
X214963550Y-116071475D01*
X214831611Y-116268934D01*
X214740731Y-116488340D01*
X214694400Y-116721259D01*
X214565600Y-116721259D01*
X214519269Y-116488340D01*
X214428389Y-116268934D01*
X214296450Y-116071475D01*
X214128525Y-115903550D01*
X213931066Y-115771611D01*
X213711660Y-115680731D01*
X213478741Y-115634400D01*
X213241259Y-115634400D01*
X213008340Y-115680731D01*
X212788934Y-115771611D01*
X212591475Y-115903550D01*
X212423550Y-116071475D01*
X212291611Y-116268934D01*
X212200731Y-116488340D01*
X212154400Y-116721259D01*
X212025600Y-116721259D01*
X211979269Y-116488340D01*
X211888389Y-116268934D01*
X211756450Y-116071475D01*
X211588525Y-115903550D01*
X211391066Y-115771611D01*
X211171660Y-115680731D01*
X210938741Y-115634400D01*
X210701259Y-115634400D01*
X210468340Y-115680731D01*
X210248934Y-115771611D01*
X210051475Y-115903550D01*
X209883550Y-116071475D01*
X209751611Y-116268934D01*
X209660731Y-116488340D01*
X209614400Y-116721259D01*
X209485600Y-116721259D01*
X209439269Y-116488340D01*
X209348389Y-116268934D01*
X209216450Y-116071475D01*
X209048525Y-115903550D01*
X208851066Y-115771611D01*
X208631660Y-115680731D01*
X208398741Y-115634400D01*
X208161259Y-115634400D01*
X207928340Y-115680731D01*
X207708934Y-115771611D01*
X207511475Y-115903550D01*
X207343550Y-116071475D01*
X207211611Y-116268934D01*
X207120731Y-116488340D01*
X207074400Y-116721259D01*
X206945600Y-116721259D01*
X206899269Y-116488340D01*
X206808389Y-116268934D01*
X206676450Y-116071475D01*
X206508525Y-115903550D01*
X206311066Y-115771611D01*
X206091660Y-115680731D01*
X205858741Y-115634400D01*
X205621259Y-115634400D01*
X205388340Y-115680731D01*
X205168934Y-115771611D01*
X204971475Y-115903550D01*
X204803550Y-116071475D01*
X204671611Y-116268934D01*
X204580731Y-116488340D01*
X204534400Y-116721259D01*
X201867320Y-116721259D01*
X201867320Y-115990000D01*
X201860454Y-115920290D01*
X201840121Y-115853260D01*
X201807101Y-115791484D01*
X201762663Y-115737337D01*
X201708516Y-115692899D01*
X201646740Y-115659879D01*
X201579710Y-115639546D01*
X201510000Y-115632680D01*
X199810000Y-115632680D01*
X199740290Y-115639546D01*
X199673260Y-115659879D01*
X199611484Y-115692899D01*
X199557337Y-115737337D01*
X199512899Y-115791484D01*
X199479879Y-115853260D01*
X199459546Y-115920290D01*
X199452680Y-115990000D01*
X197967600Y-115990000D01*
X197967600Y-111641259D01*
X199454400Y-111641259D01*
X199454400Y-111878741D01*
X199500731Y-112111660D01*
X199591611Y-112331066D01*
X199723550Y-112528525D01*
X199891475Y-112696450D01*
X200088934Y-112828389D01*
X200308340Y-112919269D01*
X200541259Y-112965600D01*
X200778741Y-112965600D01*
X201011660Y-112919269D01*
X201231066Y-112828389D01*
X201428525Y-112696450D01*
X201596450Y-112528525D01*
X201728389Y-112331066D01*
X201819269Y-112111660D01*
X201865600Y-111878741D01*
X201865600Y-111641259D01*
X201819269Y-111408340D01*
X201728389Y-111188934D01*
X201596450Y-110991475D01*
X201428525Y-110823550D01*
X201231066Y-110691611D01*
X201011660Y-110600731D01*
X200778741Y-110554400D01*
X200541259Y-110554400D01*
X200308340Y-110600731D01*
X200088934Y-110691611D01*
X199891475Y-110823550D01*
X199723550Y-110991475D01*
X199591611Y-111188934D01*
X199500731Y-111408340D01*
X199454400Y-111641259D01*
X197967600Y-111641259D01*
X197967600Y-109101259D01*
X199454400Y-109101259D01*
X199454400Y-109338741D01*
X199500731Y-109571660D01*
X199591611Y-109791066D01*
X199723550Y-109988525D01*
X199891475Y-110156450D01*
X200088934Y-110288389D01*
X200308340Y-110379269D01*
X200541259Y-110425600D01*
X200778741Y-110425600D01*
X201011660Y-110379269D01*
X201231066Y-110288389D01*
X201428525Y-110156450D01*
X201596450Y-109988525D01*
X201728389Y-109791066D01*
X201819269Y-109571660D01*
X201865600Y-109338741D01*
X201865600Y-109101259D01*
X201825011Y-108897204D01*
X207835500Y-108897204D01*
X207835500Y-109034796D01*
X207862343Y-109169745D01*
X207914997Y-109296864D01*
X207991439Y-109411268D01*
X208051401Y-109471230D01*
X208051400Y-111000771D01*
X207991439Y-111060732D01*
X207914997Y-111175136D01*
X207862343Y-111302255D01*
X207835500Y-111437204D01*
X207835500Y-111574796D01*
X207862343Y-111709745D01*
X207914997Y-111836864D01*
X207991439Y-111951268D01*
X208088732Y-112048561D01*
X208203136Y-112125003D01*
X208330255Y-112177657D01*
X208465204Y-112204500D01*
X208602796Y-112204500D01*
X208737745Y-112177657D01*
X208864864Y-112125003D01*
X208979268Y-112048561D01*
X209076561Y-111951268D01*
X209153003Y-111836864D01*
X209205657Y-111709745D01*
X209232500Y-111574796D01*
X209232500Y-111437204D01*
X209205657Y-111302255D01*
X209153003Y-111175136D01*
X209076561Y-111060732D01*
X209016600Y-111000771D01*
X209016600Y-110910000D01*
X224852680Y-110910000D01*
X224852680Y-112610000D01*
X224859546Y-112679710D01*
X224879879Y-112746740D01*
X224912899Y-112808516D01*
X224957337Y-112862663D01*
X225011484Y-112907101D01*
X225073260Y-112940121D01*
X225140290Y-112960454D01*
X225210000Y-112967320D01*
X226910000Y-112967320D01*
X226979710Y-112960454D01*
X227046740Y-112940121D01*
X227108516Y-112907101D01*
X227162663Y-112862663D01*
X227207101Y-112808516D01*
X227240121Y-112746740D01*
X227260454Y-112679710D01*
X227267320Y-112610000D01*
X227267320Y-110910000D01*
X227260454Y-110840290D01*
X227240121Y-110773260D01*
X227207101Y-110711484D01*
X227162663Y-110657337D01*
X227108516Y-110612899D01*
X227046740Y-110579879D01*
X226979710Y-110559546D01*
X226910000Y-110552680D01*
X225210000Y-110552680D01*
X225140290Y-110559546D01*
X225073260Y-110579879D01*
X225011484Y-110612899D01*
X224957337Y-110657337D01*
X224912899Y-110711484D01*
X224879879Y-110773260D01*
X224859546Y-110840290D01*
X224852680Y-110910000D01*
X209016600Y-110910000D01*
X209016600Y-109471229D01*
X209076561Y-109411268D01*
X209153003Y-109296864D01*
X209205657Y-109169745D01*
X209219279Y-109101259D01*
X224854400Y-109101259D01*
X224854400Y-109338741D01*
X224900731Y-109571660D01*
X224991611Y-109791066D01*
X225123550Y-109988525D01*
X225291475Y-110156450D01*
X225488934Y-110288389D01*
X225708340Y-110379269D01*
X225941259Y-110425600D01*
X226178741Y-110425600D01*
X226411660Y-110379269D01*
X226631066Y-110288389D01*
X226828525Y-110156450D01*
X226996450Y-109988525D01*
X227128389Y-109791066D01*
X227219269Y-109571660D01*
X227265600Y-109338741D01*
X227265600Y-109101259D01*
X227240338Y-108974259D01*
X243396400Y-108974259D01*
X243396400Y-109211741D01*
X243442731Y-109444660D01*
X243533611Y-109664066D01*
X243665550Y-109861525D01*
X243833475Y-110029450D01*
X244030934Y-110161389D01*
X244250340Y-110252269D01*
X244483259Y-110298600D01*
X244720741Y-110298600D01*
X244953660Y-110252269D01*
X245173066Y-110161389D01*
X245370525Y-110029450D01*
X245538450Y-109861525D01*
X245670389Y-109664066D01*
X245761269Y-109444660D01*
X245807600Y-109211741D01*
X245807600Y-108974259D01*
X245761269Y-108741340D01*
X245670389Y-108521934D01*
X245538450Y-108324475D01*
X245370525Y-108156550D01*
X245173066Y-108024611D01*
X244953660Y-107933731D01*
X244720741Y-107887400D01*
X244483259Y-107887400D01*
X244250340Y-107933731D01*
X244030934Y-108024611D01*
X243833475Y-108156550D01*
X243665550Y-108324475D01*
X243533611Y-108521934D01*
X243442731Y-108741340D01*
X243396400Y-108974259D01*
X227240338Y-108974259D01*
X227219269Y-108868340D01*
X227128389Y-108648934D01*
X226996450Y-108451475D01*
X226828525Y-108283550D01*
X226631066Y-108151611D01*
X226411660Y-108060731D01*
X226178741Y-108014400D01*
X225941259Y-108014400D01*
X225708340Y-108060731D01*
X225488934Y-108151611D01*
X225291475Y-108283550D01*
X225123550Y-108451475D01*
X224991611Y-108648934D01*
X224900731Y-108868340D01*
X224854400Y-109101259D01*
X209219279Y-109101259D01*
X209232500Y-109034796D01*
X209232500Y-108897204D01*
X209205657Y-108762255D01*
X209153003Y-108635136D01*
X209076561Y-108520732D01*
X208979268Y-108423439D01*
X208864864Y-108346997D01*
X208737745Y-108294343D01*
X208602796Y-108267500D01*
X208465204Y-108267500D01*
X208330255Y-108294343D01*
X208203136Y-108346997D01*
X208088732Y-108423439D01*
X207991439Y-108520732D01*
X207914997Y-108635136D01*
X207862343Y-108762255D01*
X207835500Y-108897204D01*
X201825011Y-108897204D01*
X201819269Y-108868340D01*
X201728389Y-108648934D01*
X201596450Y-108451475D01*
X201428525Y-108283550D01*
X201231066Y-108151611D01*
X201011660Y-108060731D01*
X200778741Y-108014400D01*
X200541259Y-108014400D01*
X200308340Y-108060731D01*
X200088934Y-108151611D01*
X199891475Y-108283550D01*
X199723550Y-108451475D01*
X199591611Y-108648934D01*
X199500731Y-108868340D01*
X199454400Y-109101259D01*
X197967600Y-109101259D01*
X197967600Y-106561259D01*
X199454400Y-106561259D01*
X199454400Y-106798741D01*
X199500731Y-107031660D01*
X199591611Y-107251066D01*
X199723550Y-107448525D01*
X199891475Y-107616450D01*
X200088934Y-107748389D01*
X200308340Y-107839269D01*
X200541259Y-107885600D01*
X200778741Y-107885600D01*
X201011660Y-107839269D01*
X201231066Y-107748389D01*
X201428525Y-107616450D01*
X201596450Y-107448525D01*
X201728389Y-107251066D01*
X201819269Y-107031660D01*
X201865600Y-106798741D01*
X201865600Y-106561259D01*
X224854400Y-106561259D01*
X224854400Y-106798741D01*
X224900731Y-107031660D01*
X224991611Y-107251066D01*
X225123550Y-107448525D01*
X225291475Y-107616450D01*
X225488934Y-107748389D01*
X225708340Y-107839269D01*
X225941259Y-107885600D01*
X226178741Y-107885600D01*
X226411660Y-107839269D01*
X226631066Y-107748389D01*
X226828525Y-107616450D01*
X226996450Y-107448525D01*
X227128389Y-107251066D01*
X227219269Y-107031660D01*
X227265600Y-106798741D01*
X227265600Y-106561259D01*
X227240338Y-106434259D01*
X243396400Y-106434259D01*
X243396400Y-106671741D01*
X243442731Y-106904660D01*
X243533611Y-107124066D01*
X243665550Y-107321525D01*
X243833475Y-107489450D01*
X244030934Y-107621389D01*
X244250340Y-107712269D01*
X244483259Y-107758600D01*
X244720741Y-107758600D01*
X244953660Y-107712269D01*
X245173066Y-107621389D01*
X245370525Y-107489450D01*
X245538450Y-107321525D01*
X245670389Y-107124066D01*
X245761269Y-106904660D01*
X245807600Y-106671741D01*
X245807600Y-106434259D01*
X245761269Y-106201340D01*
X245670389Y-105981934D01*
X245538450Y-105784475D01*
X245370525Y-105616550D01*
X245173066Y-105484611D01*
X244953660Y-105393731D01*
X244720741Y-105347400D01*
X244483259Y-105347400D01*
X244250340Y-105393731D01*
X244030934Y-105484611D01*
X243833475Y-105616550D01*
X243665550Y-105784475D01*
X243533611Y-105981934D01*
X243442731Y-106201340D01*
X243396400Y-106434259D01*
X227240338Y-106434259D01*
X227219269Y-106328340D01*
X227128389Y-106108934D01*
X226996450Y-105911475D01*
X226828525Y-105743550D01*
X226631066Y-105611611D01*
X226411660Y-105520731D01*
X226178741Y-105474400D01*
X225941259Y-105474400D01*
X225708340Y-105520731D01*
X225488934Y-105611611D01*
X225291475Y-105743550D01*
X225123550Y-105911475D01*
X224991611Y-106108934D01*
X224900731Y-106328340D01*
X224854400Y-106561259D01*
X201865600Y-106561259D01*
X201819269Y-106328340D01*
X201728389Y-106108934D01*
X201596450Y-105911475D01*
X201428525Y-105743550D01*
X201231066Y-105611611D01*
X201011660Y-105520731D01*
X200778741Y-105474400D01*
X200541259Y-105474400D01*
X200308340Y-105520731D01*
X200088934Y-105611611D01*
X199891475Y-105743550D01*
X199723550Y-105911475D01*
X199591611Y-106108934D01*
X199500731Y-106328340D01*
X199454400Y-106561259D01*
X197967600Y-106561259D01*
X197967600Y-104021259D01*
X199454400Y-104021259D01*
X199454400Y-104258741D01*
X199500731Y-104491660D01*
X199591611Y-104711066D01*
X199723550Y-104908525D01*
X199891475Y-105076450D01*
X200088934Y-105208389D01*
X200308340Y-105299269D01*
X200541259Y-105345600D01*
X200778741Y-105345600D01*
X201011660Y-105299269D01*
X201231066Y-105208389D01*
X201428525Y-105076450D01*
X201596450Y-104908525D01*
X201728389Y-104711066D01*
X201819269Y-104491660D01*
X201865600Y-104258741D01*
X201865600Y-104021259D01*
X204534400Y-104021259D01*
X204534400Y-104258741D01*
X204580731Y-104491660D01*
X204671611Y-104711066D01*
X204803550Y-104908525D01*
X204971475Y-105076450D01*
X205168934Y-105208389D01*
X205388340Y-105299269D01*
X205621259Y-105345600D01*
X205858741Y-105345600D01*
X206091660Y-105299269D01*
X206311066Y-105208389D01*
X206508525Y-105076450D01*
X206676450Y-104908525D01*
X206808389Y-104711066D01*
X206899269Y-104491660D01*
X206945600Y-104258741D01*
X206945600Y-104021259D01*
X207074400Y-104021259D01*
X207074400Y-104258741D01*
X207120731Y-104491660D01*
X207211611Y-104711066D01*
X207343550Y-104908525D01*
X207511475Y-105076450D01*
X207708934Y-105208389D01*
X207928340Y-105299269D01*
X208161259Y-105345600D01*
X208398741Y-105345600D01*
X208631660Y-105299269D01*
X208851066Y-105208389D01*
X209048525Y-105076450D01*
X209216450Y-104908525D01*
X209348389Y-104711066D01*
X209439269Y-104491660D01*
X209485600Y-104258741D01*
X209485600Y-104021259D01*
X209614400Y-104021259D01*
X209614400Y-104258741D01*
X209660731Y-104491660D01*
X209751611Y-104711066D01*
X209883550Y-104908525D01*
X210051475Y-105076450D01*
X210248934Y-105208389D01*
X210468340Y-105299269D01*
X210701259Y-105345600D01*
X210938741Y-105345600D01*
X211171660Y-105299269D01*
X211391066Y-105208389D01*
X211588525Y-105076450D01*
X211756450Y-104908525D01*
X211888389Y-104711066D01*
X211979269Y-104491660D01*
X212025600Y-104258741D01*
X212025600Y-104021259D01*
X211979269Y-103788340D01*
X211888389Y-103568934D01*
X211756450Y-103371475D01*
X211674975Y-103290000D01*
X212152680Y-103290000D01*
X212152680Y-104990000D01*
X212159546Y-105059710D01*
X212179879Y-105126740D01*
X212212899Y-105188516D01*
X212257337Y-105242663D01*
X212311484Y-105287101D01*
X212373260Y-105320121D01*
X212440290Y-105340454D01*
X212510000Y-105347320D01*
X214210000Y-105347320D01*
X214279710Y-105340454D01*
X214346740Y-105320121D01*
X214408516Y-105287101D01*
X214462663Y-105242663D01*
X214507101Y-105188516D01*
X214540121Y-105126740D01*
X214560454Y-105059710D01*
X214567320Y-104990000D01*
X214567320Y-104021259D01*
X217234400Y-104021259D01*
X217234400Y-104258741D01*
X217280731Y-104491660D01*
X217371611Y-104711066D01*
X217503550Y-104908525D01*
X217671475Y-105076450D01*
X217868934Y-105208389D01*
X218088340Y-105299269D01*
X218321259Y-105345600D01*
X218558741Y-105345600D01*
X218791660Y-105299269D01*
X219011066Y-105208389D01*
X219208525Y-105076450D01*
X219376450Y-104908525D01*
X219508389Y-104711066D01*
X219599269Y-104491660D01*
X219645600Y-104258741D01*
X219645600Y-104021259D01*
X224854400Y-104021259D01*
X224854400Y-104258741D01*
X224900731Y-104491660D01*
X224991611Y-104711066D01*
X225123550Y-104908525D01*
X225291475Y-105076450D01*
X225488934Y-105208389D01*
X225708340Y-105299269D01*
X225941259Y-105345600D01*
X226178741Y-105345600D01*
X226411660Y-105299269D01*
X226631066Y-105208389D01*
X226828525Y-105076450D01*
X226996450Y-104908525D01*
X227128389Y-104711066D01*
X227219269Y-104491660D01*
X227265600Y-104258741D01*
X227265600Y-104021259D01*
X227240338Y-103894259D01*
X243396400Y-103894259D01*
X243396400Y-104131741D01*
X243442731Y-104364660D01*
X243533611Y-104584066D01*
X243665550Y-104781525D01*
X243833475Y-104949450D01*
X244030934Y-105081389D01*
X244250340Y-105172269D01*
X244483259Y-105218600D01*
X244720741Y-105218600D01*
X244953660Y-105172269D01*
X245173066Y-105081389D01*
X245370525Y-104949450D01*
X245538450Y-104781525D01*
X245670389Y-104584066D01*
X245761269Y-104364660D01*
X245807600Y-104131741D01*
X245807600Y-103894259D01*
X245761269Y-103661340D01*
X245670389Y-103441934D01*
X245538450Y-103244475D01*
X245370525Y-103076550D01*
X245173066Y-102944611D01*
X244953660Y-102853731D01*
X244720741Y-102807400D01*
X244483259Y-102807400D01*
X244250340Y-102853731D01*
X244030934Y-102944611D01*
X243833475Y-103076550D01*
X243665550Y-103244475D01*
X243533611Y-103441934D01*
X243442731Y-103661340D01*
X243396400Y-103894259D01*
X227240338Y-103894259D01*
X227219269Y-103788340D01*
X227128389Y-103568934D01*
X226996450Y-103371475D01*
X226828525Y-103203550D01*
X226631066Y-103071611D01*
X226411660Y-102980731D01*
X226178741Y-102934400D01*
X225941259Y-102934400D01*
X225708340Y-102980731D01*
X225488934Y-103071611D01*
X225291475Y-103203550D01*
X225123550Y-103371475D01*
X224991611Y-103568934D01*
X224900731Y-103788340D01*
X224854400Y-104021259D01*
X219645600Y-104021259D01*
X219599269Y-103788340D01*
X219508389Y-103568934D01*
X219376450Y-103371475D01*
X219208525Y-103203550D01*
X219011066Y-103071611D01*
X218791660Y-102980731D01*
X218558741Y-102934400D01*
X218321259Y-102934400D01*
X218088340Y-102980731D01*
X217868934Y-103071611D01*
X217671475Y-103203550D01*
X217503550Y-103371475D01*
X217371611Y-103568934D01*
X217280731Y-103788340D01*
X217234400Y-104021259D01*
X214567320Y-104021259D01*
X214567320Y-103290000D01*
X214560454Y-103220290D01*
X214540121Y-103153260D01*
X214507101Y-103091484D01*
X214462663Y-103037337D01*
X214408516Y-102992899D01*
X214346740Y-102959879D01*
X214279710Y-102939546D01*
X214210000Y-102932680D01*
X212510000Y-102932680D01*
X212440290Y-102939546D01*
X212373260Y-102959879D01*
X212311484Y-102992899D01*
X212257337Y-103037337D01*
X212212899Y-103091484D01*
X212179879Y-103153260D01*
X212159546Y-103220290D01*
X212152680Y-103290000D01*
X211674975Y-103290000D01*
X211588525Y-103203550D01*
X211391066Y-103071611D01*
X211171660Y-102980731D01*
X210938741Y-102934400D01*
X210701259Y-102934400D01*
X210468340Y-102980731D01*
X210248934Y-103071611D01*
X210051475Y-103203550D01*
X209883550Y-103371475D01*
X209751611Y-103568934D01*
X209660731Y-103788340D01*
X209614400Y-104021259D01*
X209485600Y-104021259D01*
X209439269Y-103788340D01*
X209348389Y-103568934D01*
X209216450Y-103371475D01*
X209048525Y-103203550D01*
X208851066Y-103071611D01*
X208631660Y-102980731D01*
X208398741Y-102934400D01*
X208161259Y-102934400D01*
X207928340Y-102980731D01*
X207708934Y-103071611D01*
X207511475Y-103203550D01*
X207343550Y-103371475D01*
X207211611Y-103568934D01*
X207120731Y-103788340D01*
X207074400Y-104021259D01*
X206945600Y-104021259D01*
X206899269Y-103788340D01*
X206808389Y-103568934D01*
X206676450Y-103371475D01*
X206508525Y-103203550D01*
X206311066Y-103071611D01*
X206091660Y-102980731D01*
X205858741Y-102934400D01*
X205621259Y-102934400D01*
X205388340Y-102980731D01*
X205168934Y-103071611D01*
X204971475Y-103203550D01*
X204803550Y-103371475D01*
X204671611Y-103568934D01*
X204580731Y-103788340D01*
X204534400Y-104021259D01*
X201865600Y-104021259D01*
X201819269Y-103788340D01*
X201728389Y-103568934D01*
X201596450Y-103371475D01*
X201428525Y-103203550D01*
X201231066Y-103071611D01*
X201011660Y-102980731D01*
X200778741Y-102934400D01*
X200541259Y-102934400D01*
X200308340Y-102980731D01*
X200088934Y-103071611D01*
X199891475Y-103203550D01*
X199723550Y-103371475D01*
X199591611Y-103568934D01*
X199500731Y-103788340D01*
X199454400Y-104021259D01*
X197967600Y-104021259D01*
X197967600Y-101481259D01*
X217234400Y-101481259D01*
X217234400Y-101718741D01*
X217280731Y-101951660D01*
X217371611Y-102171066D01*
X217503550Y-102368525D01*
X217671475Y-102536450D01*
X217868934Y-102668389D01*
X218088340Y-102759269D01*
X218321259Y-102805600D01*
X218558741Y-102805600D01*
X218791660Y-102759269D01*
X219011066Y-102668389D01*
X219208525Y-102536450D01*
X219376450Y-102368525D01*
X219508389Y-102171066D01*
X219599269Y-101951660D01*
X219645600Y-101718741D01*
X219645600Y-101481259D01*
X219774400Y-101481259D01*
X219774400Y-101718741D01*
X219820731Y-101951660D01*
X219911611Y-102171066D01*
X220043550Y-102368525D01*
X220211475Y-102536450D01*
X220408934Y-102668389D01*
X220628340Y-102759269D01*
X220861259Y-102805600D01*
X221098741Y-102805600D01*
X221331660Y-102759269D01*
X221551066Y-102668389D01*
X221748525Y-102536450D01*
X221916450Y-102368525D01*
X222048389Y-102171066D01*
X222139269Y-101951660D01*
X222185600Y-101718741D01*
X222185600Y-101481259D01*
X224854400Y-101481259D01*
X224854400Y-101718741D01*
X224900731Y-101951660D01*
X224991611Y-102171066D01*
X225123550Y-102368525D01*
X225291475Y-102536450D01*
X225488934Y-102668389D01*
X225708340Y-102759269D01*
X225941259Y-102805600D01*
X226178741Y-102805600D01*
X226411660Y-102759269D01*
X226631066Y-102668389D01*
X226828525Y-102536450D01*
X226996450Y-102368525D01*
X227128389Y-102171066D01*
X227219269Y-101951660D01*
X227265600Y-101718741D01*
X227265600Y-101481259D01*
X227219269Y-101248340D01*
X227128389Y-101028934D01*
X226996450Y-100831475D01*
X226828525Y-100663550D01*
X226631066Y-100531611D01*
X226411660Y-100440731D01*
X226278302Y-100414204D01*
X235241500Y-100414204D01*
X235241500Y-100551796D01*
X235268343Y-100686745D01*
X235320997Y-100813864D01*
X235397439Y-100928268D01*
X235494732Y-101025561D01*
X235609136Y-101102003D01*
X235736255Y-101154657D01*
X235871204Y-101181500D01*
X236008796Y-101181500D01*
X236143745Y-101154657D01*
X236270864Y-101102003D01*
X236385268Y-101025561D01*
X236482561Y-100928268D01*
X236559003Y-100813864D01*
X236611657Y-100686745D01*
X236624336Y-100623000D01*
X243394680Y-100623000D01*
X243394680Y-102323000D01*
X243401546Y-102392710D01*
X243421879Y-102459740D01*
X243454899Y-102521516D01*
X243499337Y-102575663D01*
X243553484Y-102620101D01*
X243615260Y-102653121D01*
X243682290Y-102673454D01*
X243752000Y-102680320D01*
X245452000Y-102680320D01*
X245521710Y-102673454D01*
X245588740Y-102653121D01*
X245650516Y-102620101D01*
X245704663Y-102575663D01*
X245749101Y-102521516D01*
X245782121Y-102459740D01*
X245802454Y-102392710D01*
X245809320Y-102323000D01*
X245809320Y-100623000D01*
X245802454Y-100553290D01*
X245782121Y-100486260D01*
X245749101Y-100424484D01*
X245704663Y-100370337D01*
X245650516Y-100325899D01*
X245588740Y-100292879D01*
X245521710Y-100272546D01*
X245452000Y-100265680D01*
X243752000Y-100265680D01*
X243682290Y-100272546D01*
X243615260Y-100292879D01*
X243553484Y-100325899D01*
X243499337Y-100370337D01*
X243454899Y-100424484D01*
X243421879Y-100486260D01*
X243401546Y-100553290D01*
X243394680Y-100623000D01*
X236624336Y-100623000D01*
X236638500Y-100551796D01*
X236638500Y-100414204D01*
X236611657Y-100279255D01*
X236559003Y-100152136D01*
X236482561Y-100037732D01*
X236448600Y-100003771D01*
X236448600Y-98295229D01*
X236508561Y-98235268D01*
X236585003Y-98120864D01*
X236637657Y-97993745D01*
X236664500Y-97858796D01*
X236664500Y-97721204D01*
X236637657Y-97586255D01*
X236585003Y-97459136D01*
X236508561Y-97344732D01*
X236411268Y-97247439D01*
X236296864Y-97170997D01*
X236169745Y-97118343D01*
X236034796Y-97091500D01*
X235897204Y-97091500D01*
X235762255Y-97118343D01*
X235635136Y-97170997D01*
X235520732Y-97247439D01*
X235423439Y-97344732D01*
X235346997Y-97459136D01*
X235294343Y-97586255D01*
X235267500Y-97721204D01*
X235267500Y-97858796D01*
X235294343Y-97993745D01*
X235346997Y-98120864D01*
X235423439Y-98235268D01*
X235483400Y-98295229D01*
X235483401Y-99951770D01*
X235397439Y-100037732D01*
X235320997Y-100152136D01*
X235268343Y-100279255D01*
X235241500Y-100414204D01*
X226278302Y-100414204D01*
X226178741Y-100394400D01*
X225941259Y-100394400D01*
X225708340Y-100440731D01*
X225488934Y-100531611D01*
X225291475Y-100663550D01*
X225123550Y-100831475D01*
X224991611Y-101028934D01*
X224900731Y-101248340D01*
X224854400Y-101481259D01*
X222185600Y-101481259D01*
X222139269Y-101248340D01*
X222048389Y-101028934D01*
X221916450Y-100831475D01*
X221748525Y-100663550D01*
X221551066Y-100531611D01*
X221331660Y-100440731D01*
X221098741Y-100394400D01*
X220861259Y-100394400D01*
X220628340Y-100440731D01*
X220408934Y-100531611D01*
X220211475Y-100663550D01*
X220043550Y-100831475D01*
X219911611Y-101028934D01*
X219820731Y-101248340D01*
X219774400Y-101481259D01*
X219645600Y-101481259D01*
X219599269Y-101248340D01*
X219508389Y-101028934D01*
X219376450Y-100831475D01*
X219208525Y-100663550D01*
X219011066Y-100531611D01*
X218791660Y-100440731D01*
X218558741Y-100394400D01*
X218321259Y-100394400D01*
X218088340Y-100440731D01*
X217868934Y-100531611D01*
X217671475Y-100663550D01*
X217503550Y-100831475D01*
X217371611Y-101028934D01*
X217280731Y-101248340D01*
X217234400Y-101481259D01*
X197967600Y-101481259D01*
X197967600Y-98210000D01*
X217232680Y-98210000D01*
X217232680Y-99910000D01*
X217239546Y-99979710D01*
X217259879Y-100046740D01*
X217292899Y-100108516D01*
X217337337Y-100162663D01*
X217391484Y-100207101D01*
X217453260Y-100240121D01*
X217520290Y-100260454D01*
X217590000Y-100267320D01*
X219290000Y-100267320D01*
X219359710Y-100260454D01*
X219426740Y-100240121D01*
X219488516Y-100207101D01*
X219542663Y-100162663D01*
X219587101Y-100108516D01*
X219620121Y-100046740D01*
X219640454Y-99979710D01*
X219647320Y-99910000D01*
X219647320Y-98941259D01*
X219774400Y-98941259D01*
X219774400Y-99178741D01*
X219820731Y-99411660D01*
X219911611Y-99631066D01*
X220043550Y-99828525D01*
X220211475Y-99996450D01*
X220408934Y-100128389D01*
X220628340Y-100219269D01*
X220861259Y-100265600D01*
X221098741Y-100265600D01*
X221331660Y-100219269D01*
X221551066Y-100128389D01*
X221748525Y-99996450D01*
X221916450Y-99828525D01*
X222048389Y-99631066D01*
X222139269Y-99411660D01*
X222185600Y-99178741D01*
X222185600Y-98941259D01*
X224854400Y-98941259D01*
X224854400Y-99178741D01*
X224900731Y-99411660D01*
X224991611Y-99631066D01*
X225123550Y-99828525D01*
X225291475Y-99996450D01*
X225488934Y-100128389D01*
X225708340Y-100219269D01*
X225941259Y-100265600D01*
X226178741Y-100265600D01*
X226411660Y-100219269D01*
X226631066Y-100128389D01*
X226828525Y-99996450D01*
X226996450Y-99828525D01*
X227128389Y-99631066D01*
X227219269Y-99411660D01*
X227265600Y-99178741D01*
X227265600Y-98941259D01*
X227219269Y-98708340D01*
X227128389Y-98488934D01*
X226996450Y-98291475D01*
X226828525Y-98123550D01*
X226631066Y-97991611D01*
X226411660Y-97900731D01*
X226178741Y-97854400D01*
X225941259Y-97854400D01*
X225708340Y-97900731D01*
X225488934Y-97991611D01*
X225291475Y-98123550D01*
X225123550Y-98291475D01*
X224991611Y-98488934D01*
X224900731Y-98708340D01*
X224854400Y-98941259D01*
X222185600Y-98941259D01*
X222139269Y-98708340D01*
X222048389Y-98488934D01*
X221916450Y-98291475D01*
X221748525Y-98123550D01*
X221551066Y-97991611D01*
X221331660Y-97900731D01*
X221098741Y-97854400D01*
X220861259Y-97854400D01*
X220628340Y-97900731D01*
X220408934Y-97991611D01*
X220211475Y-98123550D01*
X220043550Y-98291475D01*
X219911611Y-98488934D01*
X219820731Y-98708340D01*
X219774400Y-98941259D01*
X219647320Y-98941259D01*
X219647320Y-98210000D01*
X219640454Y-98140290D01*
X219620121Y-98073260D01*
X219587101Y-98011484D01*
X219542663Y-97957337D01*
X219488516Y-97912899D01*
X219426740Y-97879879D01*
X219359710Y-97859546D01*
X219290000Y-97852680D01*
X217590000Y-97852680D01*
X217520290Y-97859546D01*
X217453260Y-97879879D01*
X217391484Y-97912899D01*
X217337337Y-97957337D01*
X217292899Y-98011484D01*
X217259879Y-98073260D01*
X217239546Y-98140290D01*
X217232680Y-98210000D01*
X197967600Y-98210000D01*
X197967600Y-84739804D01*
X199009400Y-84739804D01*
X199009400Y-85440196D01*
X199146040Y-86127130D01*
X199414068Y-86774208D01*
X199803185Y-87356563D01*
X200298437Y-87851815D01*
X200880792Y-88240932D01*
X201527870Y-88508960D01*
X202214804Y-88645600D01*
X202915196Y-88645600D01*
X203602130Y-88508960D01*
X204249208Y-88240932D01*
X204831563Y-87851815D01*
X205326815Y-87356563D01*
X205715932Y-86774208D01*
X205983960Y-86127130D01*
X206120600Y-85440196D01*
X206120600Y-84846000D01*
X221216680Y-84846000D01*
X221216680Y-86096000D01*
X221223546Y-86165710D01*
X221243879Y-86232740D01*
X221276899Y-86294516D01*
X221321337Y-86348663D01*
X221375484Y-86393101D01*
X221437260Y-86426121D01*
X221504290Y-86446454D01*
X221574000Y-86453320D01*
X223374000Y-86453320D01*
X223443710Y-86446454D01*
X223510740Y-86426121D01*
X223572516Y-86393101D01*
X223626663Y-86348663D01*
X223671101Y-86294516D01*
X223704121Y-86232740D01*
X223724454Y-86165710D01*
X223731320Y-86096000D01*
X223731320Y-84846000D01*
X223724454Y-84776290D01*
X223713387Y-84739804D01*
X239649400Y-84739804D01*
X239649400Y-85440196D01*
X239786040Y-86127130D01*
X240054068Y-86774208D01*
X240443185Y-87356563D01*
X240938437Y-87851815D01*
X241520792Y-88240932D01*
X242167870Y-88508960D01*
X242854804Y-88645600D01*
X243555196Y-88645600D01*
X244242130Y-88508960D01*
X244889208Y-88240932D01*
X245471563Y-87851815D01*
X245966815Y-87356563D01*
X246355932Y-86774208D01*
X246623960Y-86127130D01*
X246760600Y-85440196D01*
X246760600Y-84739804D01*
X246623960Y-84052870D01*
X246355932Y-83405792D01*
X245966815Y-82823437D01*
X245471563Y-82328185D01*
X244889208Y-81939068D01*
X244242130Y-81671040D01*
X243555196Y-81534400D01*
X242854804Y-81534400D01*
X242167870Y-81671040D01*
X241520792Y-81939068D01*
X240938437Y-82328185D01*
X240443185Y-82823437D01*
X240054068Y-83405792D01*
X239786040Y-84052870D01*
X239649400Y-84739804D01*
X223713387Y-84739804D01*
X223704121Y-84709260D01*
X223671101Y-84647484D01*
X223626663Y-84593337D01*
X223572516Y-84548899D01*
X223510740Y-84515879D01*
X223443710Y-84495546D01*
X223374000Y-84488680D01*
X223332944Y-84488680D01*
X223348657Y-84450745D01*
X223375500Y-84315796D01*
X223375500Y-84178204D01*
X223348657Y-84043255D01*
X223296003Y-83916136D01*
X223286600Y-83902063D01*
X223286600Y-82756503D01*
X223518504Y-82524600D01*
X224664497Y-82524600D01*
X226158769Y-84018873D01*
X226177862Y-84042138D01*
X226270686Y-84118316D01*
X226319982Y-84144665D01*
X226376587Y-84174921D01*
X226491497Y-84209779D01*
X226611000Y-84221549D01*
X226640941Y-84218600D01*
X231346063Y-84218600D01*
X231360136Y-84228003D01*
X231487255Y-84280657D01*
X231622204Y-84307500D01*
X231759796Y-84307500D01*
X231894745Y-84280657D01*
X232021864Y-84228003D01*
X232136268Y-84151561D01*
X232233561Y-84054268D01*
X232310003Y-83939864D01*
X232362657Y-83812745D01*
X232389500Y-83677796D01*
X232389500Y-83540204D01*
X232362657Y-83405255D01*
X232310003Y-83278136D01*
X232233561Y-83163732D01*
X232136268Y-83066439D01*
X232021864Y-82989997D01*
X231894745Y-82937343D01*
X231759796Y-82910500D01*
X231622204Y-82910500D01*
X231487255Y-82937343D01*
X231360136Y-82989997D01*
X231346063Y-82999400D01*
X226863504Y-82999400D01*
X225369235Y-81505132D01*
X225350138Y-81481862D01*
X225257314Y-81405684D01*
X225151412Y-81349079D01*
X225036502Y-81314221D01*
X224946941Y-81305400D01*
X224917000Y-81302451D01*
X224887059Y-81305400D01*
X223295941Y-81305400D01*
X223266000Y-81302451D01*
X223146497Y-81314221D01*
X223031587Y-81349079D01*
X222974982Y-81379335D01*
X222925686Y-81405684D01*
X222832862Y-81481862D01*
X222813769Y-81505127D01*
X222267127Y-82051770D01*
X222243863Y-82070862D01*
X222167685Y-82163686D01*
X222111080Y-82269588D01*
X222076221Y-82384498D01*
X222064451Y-82504000D01*
X222067401Y-82533951D01*
X222067400Y-83902063D01*
X222057997Y-83916136D01*
X222005343Y-84043255D01*
X221978500Y-84178204D01*
X221978500Y-84315796D01*
X222005343Y-84450745D01*
X222021056Y-84488680D01*
X221574000Y-84488680D01*
X221504290Y-84495546D01*
X221437260Y-84515879D01*
X221375484Y-84548899D01*
X221321337Y-84593337D01*
X221276899Y-84647484D01*
X221243879Y-84709260D01*
X221223546Y-84776290D01*
X221216680Y-84846000D01*
X206120600Y-84846000D01*
X206120600Y-84739804D01*
X205983960Y-84052870D01*
X205715932Y-83405792D01*
X205326815Y-82823437D01*
X204831563Y-82328185D01*
X204249208Y-81939068D01*
X203602130Y-81671040D01*
X202915196Y-81534400D01*
X202214804Y-81534400D01*
X201527870Y-81671040D01*
X200880792Y-81939068D01*
X200298437Y-82328185D01*
X199803185Y-82823437D01*
X199414068Y-83405792D01*
X199146040Y-84052870D01*
X199009400Y-84739804D01*
X197967600Y-84739804D01*
X197967600Y-83481084D01*
X200956084Y-80492600D01*
X244813916Y-80492600D01*
X247802400Y-83481084D01*
%TA.AperFunction,Conductor*%
D19*
G36*
X247802400Y-83481084D02*
G01*
X247802400Y-117813916D01*
X244813916Y-120802400D01*
X200956084Y-120802400D01*
X197967600Y-117813916D01*
X197967600Y-115990000D01*
X199452680Y-115990000D01*
X199452680Y-117690000D01*
X199459546Y-117759710D01*
X199479879Y-117826740D01*
X199512899Y-117888516D01*
X199557337Y-117942663D01*
X199611484Y-117987101D01*
X199673260Y-118020121D01*
X199740290Y-118040454D01*
X199810000Y-118047320D01*
X201510000Y-118047320D01*
X201579710Y-118040454D01*
X201646740Y-118020121D01*
X201708516Y-117987101D01*
X201762663Y-117942663D01*
X201807101Y-117888516D01*
X201840121Y-117826740D01*
X201860454Y-117759710D01*
X201867320Y-117690000D01*
X201867320Y-116721259D01*
X204534400Y-116721259D01*
X204534400Y-116958741D01*
X204580731Y-117191660D01*
X204671611Y-117411066D01*
X204803550Y-117608525D01*
X204971475Y-117776450D01*
X205168934Y-117908389D01*
X205388340Y-117999269D01*
X205621259Y-118045600D01*
X205858741Y-118045600D01*
X206091660Y-117999269D01*
X206311066Y-117908389D01*
X206508525Y-117776450D01*
X206676450Y-117608525D01*
X206808389Y-117411066D01*
X206899269Y-117191660D01*
X206945600Y-116958741D01*
X206945600Y-116721259D01*
X207074400Y-116721259D01*
X207074400Y-116958741D01*
X207120731Y-117191660D01*
X207211611Y-117411066D01*
X207343550Y-117608525D01*
X207511475Y-117776450D01*
X207708934Y-117908389D01*
X207928340Y-117999269D01*
X208161259Y-118045600D01*
X208398741Y-118045600D01*
X208631660Y-117999269D01*
X208851066Y-117908389D01*
X209048525Y-117776450D01*
X209216450Y-117608525D01*
X209348389Y-117411066D01*
X209439269Y-117191660D01*
X209485600Y-116958741D01*
X209485600Y-116721259D01*
X209614400Y-116721259D01*
X209614400Y-116958741D01*
X209660731Y-117191660D01*
X209751611Y-117411066D01*
X209883550Y-117608525D01*
X210051475Y-117776450D01*
X210248934Y-117908389D01*
X210468340Y-117999269D01*
X210701259Y-118045600D01*
X210938741Y-118045600D01*
X211171660Y-117999269D01*
X211391066Y-117908389D01*
X211588525Y-117776450D01*
X211756450Y-117608525D01*
X211888389Y-117411066D01*
X211979269Y-117191660D01*
X212025600Y-116958741D01*
X212025600Y-116721259D01*
X212154400Y-116721259D01*
X212154400Y-116958741D01*
X212200731Y-117191660D01*
X212291611Y-117411066D01*
X212423550Y-117608525D01*
X212591475Y-117776450D01*
X212788934Y-117908389D01*
X213008340Y-117999269D01*
X213241259Y-118045600D01*
X213478741Y-118045600D01*
X213711660Y-117999269D01*
X213931066Y-117908389D01*
X214128525Y-117776450D01*
X214296450Y-117608525D01*
X214428389Y-117411066D01*
X214519269Y-117191660D01*
X214565600Y-116958741D01*
X214565600Y-116721259D01*
X214694400Y-116721259D01*
X214694400Y-116958741D01*
X214740731Y-117191660D01*
X214831611Y-117411066D01*
X214963550Y-117608525D01*
X215131475Y-117776450D01*
X215328934Y-117908389D01*
X215548340Y-117999269D01*
X215781259Y-118045600D01*
X216018741Y-118045600D01*
X216251660Y-117999269D01*
X216471066Y-117908389D01*
X216668525Y-117776450D01*
X216836450Y-117608525D01*
X216968389Y-117411066D01*
X217059269Y-117191660D01*
X217105600Y-116958741D01*
X217105600Y-116721259D01*
X217059269Y-116488340D01*
X216968389Y-116268934D01*
X216836450Y-116071475D01*
X216754975Y-115990000D01*
X217232680Y-115990000D01*
X217232680Y-117690000D01*
X217239546Y-117759710D01*
X217259879Y-117826740D01*
X217292899Y-117888516D01*
X217337337Y-117942663D01*
X217391484Y-117987101D01*
X217453260Y-118020121D01*
X217520290Y-118040454D01*
X217590000Y-118047320D01*
X219290000Y-118047320D01*
X219359710Y-118040454D01*
X219426740Y-118020121D01*
X219488516Y-117987101D01*
X219542663Y-117942663D01*
X219587101Y-117888516D01*
X219620121Y-117826740D01*
X219640454Y-117759710D01*
X219647320Y-117690000D01*
X219647320Y-116721259D01*
X222314400Y-116721259D01*
X222314400Y-116958741D01*
X222360731Y-117191660D01*
X222451611Y-117411066D01*
X222583550Y-117608525D01*
X222751475Y-117776450D01*
X222948934Y-117908389D01*
X223168340Y-117999269D01*
X223401259Y-118045600D01*
X223638741Y-118045600D01*
X223871660Y-117999269D01*
X224091066Y-117908389D01*
X224288525Y-117776450D01*
X224456450Y-117608525D01*
X224588389Y-117411066D01*
X224679269Y-117191660D01*
X224725600Y-116958741D01*
X224725600Y-116721259D01*
X224679269Y-116488340D01*
X224588389Y-116268934D01*
X224456450Y-116071475D01*
X224374975Y-115990000D01*
X224852680Y-115990000D01*
X224852680Y-117690000D01*
X224859546Y-117759710D01*
X224879879Y-117826740D01*
X224912899Y-117888516D01*
X224957337Y-117942663D01*
X225011484Y-117987101D01*
X225073260Y-118020121D01*
X225140290Y-118040454D01*
X225210000Y-118047320D01*
X226910000Y-118047320D01*
X226979710Y-118040454D01*
X227046740Y-118020121D01*
X227108516Y-117987101D01*
X227162663Y-117942663D01*
X227207101Y-117888516D01*
X227240121Y-117826740D01*
X227260454Y-117759710D01*
X227267320Y-117690000D01*
X227267320Y-115990000D01*
X227260454Y-115920290D01*
X227240121Y-115853260D01*
X227207101Y-115791484D01*
X227162663Y-115737337D01*
X227108516Y-115692899D01*
X227046740Y-115659879D01*
X226979710Y-115639546D01*
X226910000Y-115632680D01*
X225210000Y-115632680D01*
X225140290Y-115639546D01*
X225073260Y-115659879D01*
X225011484Y-115692899D01*
X224957337Y-115737337D01*
X224912899Y-115791484D01*
X224879879Y-115853260D01*
X224859546Y-115920290D01*
X224852680Y-115990000D01*
X224374975Y-115990000D01*
X224288525Y-115903550D01*
X224091066Y-115771611D01*
X223871660Y-115680731D01*
X223638741Y-115634400D01*
X223401259Y-115634400D01*
X223168340Y-115680731D01*
X222948934Y-115771611D01*
X222751475Y-115903550D01*
X222583550Y-116071475D01*
X222451611Y-116268934D01*
X222360731Y-116488340D01*
X222314400Y-116721259D01*
X219647320Y-116721259D01*
X219647320Y-115990000D01*
X219640454Y-115920290D01*
X219620121Y-115853260D01*
X219587101Y-115791484D01*
X219542663Y-115737337D01*
X219488516Y-115692899D01*
X219426740Y-115659879D01*
X219359710Y-115639546D01*
X219290000Y-115632680D01*
X217590000Y-115632680D01*
X217520290Y-115639546D01*
X217453260Y-115659879D01*
X217391484Y-115692899D01*
X217337337Y-115737337D01*
X217292899Y-115791484D01*
X217259879Y-115853260D01*
X217239546Y-115920290D01*
X217232680Y-115990000D01*
X216754975Y-115990000D01*
X216668525Y-115903550D01*
X216471066Y-115771611D01*
X216251660Y-115680731D01*
X216018741Y-115634400D01*
X215781259Y-115634400D01*
X215548340Y-115680731D01*
X215328934Y-115771611D01*
X215131475Y-115903550D01*
X214963550Y-116071475D01*
X214831611Y-116268934D01*
X214740731Y-116488340D01*
X214694400Y-116721259D01*
X214565600Y-116721259D01*
X214519269Y-116488340D01*
X214428389Y-116268934D01*
X214296450Y-116071475D01*
X214128525Y-115903550D01*
X213931066Y-115771611D01*
X213711660Y-115680731D01*
X213478741Y-115634400D01*
X213241259Y-115634400D01*
X213008340Y-115680731D01*
X212788934Y-115771611D01*
X212591475Y-115903550D01*
X212423550Y-116071475D01*
X212291611Y-116268934D01*
X212200731Y-116488340D01*
X212154400Y-116721259D01*
X212025600Y-116721259D01*
X211979269Y-116488340D01*
X211888389Y-116268934D01*
X211756450Y-116071475D01*
X211588525Y-115903550D01*
X211391066Y-115771611D01*
X211171660Y-115680731D01*
X210938741Y-115634400D01*
X210701259Y-115634400D01*
X210468340Y-115680731D01*
X210248934Y-115771611D01*
X210051475Y-115903550D01*
X209883550Y-116071475D01*
X209751611Y-116268934D01*
X209660731Y-116488340D01*
X209614400Y-116721259D01*
X209485600Y-116721259D01*
X209439269Y-116488340D01*
X209348389Y-116268934D01*
X209216450Y-116071475D01*
X209048525Y-115903550D01*
X208851066Y-115771611D01*
X208631660Y-115680731D01*
X208398741Y-115634400D01*
X208161259Y-115634400D01*
X207928340Y-115680731D01*
X207708934Y-115771611D01*
X207511475Y-115903550D01*
X207343550Y-116071475D01*
X207211611Y-116268934D01*
X207120731Y-116488340D01*
X207074400Y-116721259D01*
X206945600Y-116721259D01*
X206899269Y-116488340D01*
X206808389Y-116268934D01*
X206676450Y-116071475D01*
X206508525Y-115903550D01*
X206311066Y-115771611D01*
X206091660Y-115680731D01*
X205858741Y-115634400D01*
X205621259Y-115634400D01*
X205388340Y-115680731D01*
X205168934Y-115771611D01*
X204971475Y-115903550D01*
X204803550Y-116071475D01*
X204671611Y-116268934D01*
X204580731Y-116488340D01*
X204534400Y-116721259D01*
X201867320Y-116721259D01*
X201867320Y-115990000D01*
X201860454Y-115920290D01*
X201840121Y-115853260D01*
X201807101Y-115791484D01*
X201762663Y-115737337D01*
X201708516Y-115692899D01*
X201646740Y-115659879D01*
X201579710Y-115639546D01*
X201510000Y-115632680D01*
X199810000Y-115632680D01*
X199740290Y-115639546D01*
X199673260Y-115659879D01*
X199611484Y-115692899D01*
X199557337Y-115737337D01*
X199512899Y-115791484D01*
X199479879Y-115853260D01*
X199459546Y-115920290D01*
X199452680Y-115990000D01*
X197967600Y-115990000D01*
X197967600Y-111641259D01*
X199454400Y-111641259D01*
X199454400Y-111878741D01*
X199500731Y-112111660D01*
X199591611Y-112331066D01*
X199723550Y-112528525D01*
X199891475Y-112696450D01*
X200088934Y-112828389D01*
X200308340Y-112919269D01*
X200541259Y-112965600D01*
X200778741Y-112965600D01*
X201011660Y-112919269D01*
X201231066Y-112828389D01*
X201428525Y-112696450D01*
X201596450Y-112528525D01*
X201728389Y-112331066D01*
X201819269Y-112111660D01*
X201865600Y-111878741D01*
X201865600Y-111641259D01*
X201819269Y-111408340D01*
X201728389Y-111188934D01*
X201596450Y-110991475D01*
X201428525Y-110823550D01*
X201231066Y-110691611D01*
X201011660Y-110600731D01*
X200778741Y-110554400D01*
X200541259Y-110554400D01*
X200308340Y-110600731D01*
X200088934Y-110691611D01*
X199891475Y-110823550D01*
X199723550Y-110991475D01*
X199591611Y-111188934D01*
X199500731Y-111408340D01*
X199454400Y-111641259D01*
X197967600Y-111641259D01*
X197967600Y-109101259D01*
X199454400Y-109101259D01*
X199454400Y-109338741D01*
X199500731Y-109571660D01*
X199591611Y-109791066D01*
X199723550Y-109988525D01*
X199891475Y-110156450D01*
X200088934Y-110288389D01*
X200308340Y-110379269D01*
X200541259Y-110425600D01*
X200778741Y-110425600D01*
X201011660Y-110379269D01*
X201231066Y-110288389D01*
X201428525Y-110156450D01*
X201596450Y-109988525D01*
X201728389Y-109791066D01*
X201819269Y-109571660D01*
X201865600Y-109338741D01*
X201865600Y-109101259D01*
X201825011Y-108897204D01*
X207835500Y-108897204D01*
X207835500Y-109034796D01*
X207862343Y-109169745D01*
X207914997Y-109296864D01*
X207991439Y-109411268D01*
X208051401Y-109471230D01*
X208051400Y-111000771D01*
X207991439Y-111060732D01*
X207914997Y-111175136D01*
X207862343Y-111302255D01*
X207835500Y-111437204D01*
X207835500Y-111574796D01*
X207862343Y-111709745D01*
X207914997Y-111836864D01*
X207991439Y-111951268D01*
X208088732Y-112048561D01*
X208203136Y-112125003D01*
X208330255Y-112177657D01*
X208465204Y-112204500D01*
X208602796Y-112204500D01*
X208737745Y-112177657D01*
X208864864Y-112125003D01*
X208979268Y-112048561D01*
X209076561Y-111951268D01*
X209153003Y-111836864D01*
X209205657Y-111709745D01*
X209232500Y-111574796D01*
X209232500Y-111437204D01*
X209205657Y-111302255D01*
X209153003Y-111175136D01*
X209076561Y-111060732D01*
X209016600Y-111000771D01*
X209016600Y-110910000D01*
X224852680Y-110910000D01*
X224852680Y-112610000D01*
X224859546Y-112679710D01*
X224879879Y-112746740D01*
X224912899Y-112808516D01*
X224957337Y-112862663D01*
X225011484Y-112907101D01*
X225073260Y-112940121D01*
X225140290Y-112960454D01*
X225210000Y-112967320D01*
X226910000Y-112967320D01*
X226979710Y-112960454D01*
X227046740Y-112940121D01*
X227108516Y-112907101D01*
X227162663Y-112862663D01*
X227207101Y-112808516D01*
X227240121Y-112746740D01*
X227260454Y-112679710D01*
X227267320Y-112610000D01*
X227267320Y-110910000D01*
X227260454Y-110840290D01*
X227240121Y-110773260D01*
X227207101Y-110711484D01*
X227162663Y-110657337D01*
X227108516Y-110612899D01*
X227046740Y-110579879D01*
X226979710Y-110559546D01*
X226910000Y-110552680D01*
X225210000Y-110552680D01*
X225140290Y-110559546D01*
X225073260Y-110579879D01*
X225011484Y-110612899D01*
X224957337Y-110657337D01*
X224912899Y-110711484D01*
X224879879Y-110773260D01*
X224859546Y-110840290D01*
X224852680Y-110910000D01*
X209016600Y-110910000D01*
X209016600Y-109471229D01*
X209076561Y-109411268D01*
X209153003Y-109296864D01*
X209205657Y-109169745D01*
X209219279Y-109101259D01*
X224854400Y-109101259D01*
X224854400Y-109338741D01*
X224900731Y-109571660D01*
X224991611Y-109791066D01*
X225123550Y-109988525D01*
X225291475Y-110156450D01*
X225488934Y-110288389D01*
X225708340Y-110379269D01*
X225941259Y-110425600D01*
X226178741Y-110425600D01*
X226411660Y-110379269D01*
X226631066Y-110288389D01*
X226828525Y-110156450D01*
X226996450Y-109988525D01*
X227128389Y-109791066D01*
X227219269Y-109571660D01*
X227265600Y-109338741D01*
X227265600Y-109101259D01*
X227240338Y-108974259D01*
X243396400Y-108974259D01*
X243396400Y-109211741D01*
X243442731Y-109444660D01*
X243533611Y-109664066D01*
X243665550Y-109861525D01*
X243833475Y-110029450D01*
X244030934Y-110161389D01*
X244250340Y-110252269D01*
X244483259Y-110298600D01*
X244720741Y-110298600D01*
X244953660Y-110252269D01*
X245173066Y-110161389D01*
X245370525Y-110029450D01*
X245538450Y-109861525D01*
X245670389Y-109664066D01*
X245761269Y-109444660D01*
X245807600Y-109211741D01*
X245807600Y-108974259D01*
X245761269Y-108741340D01*
X245670389Y-108521934D01*
X245538450Y-108324475D01*
X245370525Y-108156550D01*
X245173066Y-108024611D01*
X244953660Y-107933731D01*
X244720741Y-107887400D01*
X244483259Y-107887400D01*
X244250340Y-107933731D01*
X244030934Y-108024611D01*
X243833475Y-108156550D01*
X243665550Y-108324475D01*
X243533611Y-108521934D01*
X243442731Y-108741340D01*
X243396400Y-108974259D01*
X227240338Y-108974259D01*
X227219269Y-108868340D01*
X227128389Y-108648934D01*
X226996450Y-108451475D01*
X226828525Y-108283550D01*
X226631066Y-108151611D01*
X226411660Y-108060731D01*
X226178741Y-108014400D01*
X225941259Y-108014400D01*
X225708340Y-108060731D01*
X225488934Y-108151611D01*
X225291475Y-108283550D01*
X225123550Y-108451475D01*
X224991611Y-108648934D01*
X224900731Y-108868340D01*
X224854400Y-109101259D01*
X209219279Y-109101259D01*
X209232500Y-109034796D01*
X209232500Y-108897204D01*
X209205657Y-108762255D01*
X209153003Y-108635136D01*
X209076561Y-108520732D01*
X208979268Y-108423439D01*
X208864864Y-108346997D01*
X208737745Y-108294343D01*
X208602796Y-108267500D01*
X208465204Y-108267500D01*
X208330255Y-108294343D01*
X208203136Y-108346997D01*
X208088732Y-108423439D01*
X207991439Y-108520732D01*
X207914997Y-108635136D01*
X207862343Y-108762255D01*
X207835500Y-108897204D01*
X201825011Y-108897204D01*
X201819269Y-108868340D01*
X201728389Y-108648934D01*
X201596450Y-108451475D01*
X201428525Y-108283550D01*
X201231066Y-108151611D01*
X201011660Y-108060731D01*
X200778741Y-108014400D01*
X200541259Y-108014400D01*
X200308340Y-108060731D01*
X200088934Y-108151611D01*
X199891475Y-108283550D01*
X199723550Y-108451475D01*
X199591611Y-108648934D01*
X199500731Y-108868340D01*
X199454400Y-109101259D01*
X197967600Y-109101259D01*
X197967600Y-106561259D01*
X199454400Y-106561259D01*
X199454400Y-106798741D01*
X199500731Y-107031660D01*
X199591611Y-107251066D01*
X199723550Y-107448525D01*
X199891475Y-107616450D01*
X200088934Y-107748389D01*
X200308340Y-107839269D01*
X200541259Y-107885600D01*
X200778741Y-107885600D01*
X201011660Y-107839269D01*
X201231066Y-107748389D01*
X201428525Y-107616450D01*
X201596450Y-107448525D01*
X201728389Y-107251066D01*
X201819269Y-107031660D01*
X201865600Y-106798741D01*
X201865600Y-106561259D01*
X224854400Y-106561259D01*
X224854400Y-106798741D01*
X224900731Y-107031660D01*
X224991611Y-107251066D01*
X225123550Y-107448525D01*
X225291475Y-107616450D01*
X225488934Y-107748389D01*
X225708340Y-107839269D01*
X225941259Y-107885600D01*
X226178741Y-107885600D01*
X226411660Y-107839269D01*
X226631066Y-107748389D01*
X226828525Y-107616450D01*
X226996450Y-107448525D01*
X227128389Y-107251066D01*
X227219269Y-107031660D01*
X227265600Y-106798741D01*
X227265600Y-106561259D01*
X227240338Y-106434259D01*
X243396400Y-106434259D01*
X243396400Y-106671741D01*
X243442731Y-106904660D01*
X243533611Y-107124066D01*
X243665550Y-107321525D01*
X243833475Y-107489450D01*
X244030934Y-107621389D01*
X244250340Y-107712269D01*
X244483259Y-107758600D01*
X244720741Y-107758600D01*
X244953660Y-107712269D01*
X245173066Y-107621389D01*
X245370525Y-107489450D01*
X245538450Y-107321525D01*
X245670389Y-107124066D01*
X245761269Y-106904660D01*
X245807600Y-106671741D01*
X245807600Y-106434259D01*
X245761269Y-106201340D01*
X245670389Y-105981934D01*
X245538450Y-105784475D01*
X245370525Y-105616550D01*
X245173066Y-105484611D01*
X244953660Y-105393731D01*
X244720741Y-105347400D01*
X244483259Y-105347400D01*
X244250340Y-105393731D01*
X244030934Y-105484611D01*
X243833475Y-105616550D01*
X243665550Y-105784475D01*
X243533611Y-105981934D01*
X243442731Y-106201340D01*
X243396400Y-106434259D01*
X227240338Y-106434259D01*
X227219269Y-106328340D01*
X227128389Y-106108934D01*
X226996450Y-105911475D01*
X226828525Y-105743550D01*
X226631066Y-105611611D01*
X226411660Y-105520731D01*
X226178741Y-105474400D01*
X225941259Y-105474400D01*
X225708340Y-105520731D01*
X225488934Y-105611611D01*
X225291475Y-105743550D01*
X225123550Y-105911475D01*
X224991611Y-106108934D01*
X224900731Y-106328340D01*
X224854400Y-106561259D01*
X201865600Y-106561259D01*
X201819269Y-106328340D01*
X201728389Y-106108934D01*
X201596450Y-105911475D01*
X201428525Y-105743550D01*
X201231066Y-105611611D01*
X201011660Y-105520731D01*
X200778741Y-105474400D01*
X200541259Y-105474400D01*
X200308340Y-105520731D01*
X200088934Y-105611611D01*
X199891475Y-105743550D01*
X199723550Y-105911475D01*
X199591611Y-106108934D01*
X199500731Y-106328340D01*
X199454400Y-106561259D01*
X197967600Y-106561259D01*
X197967600Y-104021259D01*
X199454400Y-104021259D01*
X199454400Y-104258741D01*
X199500731Y-104491660D01*
X199591611Y-104711066D01*
X199723550Y-104908525D01*
X199891475Y-105076450D01*
X200088934Y-105208389D01*
X200308340Y-105299269D01*
X200541259Y-105345600D01*
X200778741Y-105345600D01*
X201011660Y-105299269D01*
X201231066Y-105208389D01*
X201428525Y-105076450D01*
X201596450Y-104908525D01*
X201728389Y-104711066D01*
X201819269Y-104491660D01*
X201865600Y-104258741D01*
X201865600Y-104021259D01*
X204534400Y-104021259D01*
X204534400Y-104258741D01*
X204580731Y-104491660D01*
X204671611Y-104711066D01*
X204803550Y-104908525D01*
X204971475Y-105076450D01*
X205168934Y-105208389D01*
X205388340Y-105299269D01*
X205621259Y-105345600D01*
X205858741Y-105345600D01*
X206091660Y-105299269D01*
X206311066Y-105208389D01*
X206508525Y-105076450D01*
X206676450Y-104908525D01*
X206808389Y-104711066D01*
X206899269Y-104491660D01*
X206945600Y-104258741D01*
X206945600Y-104021259D01*
X207074400Y-104021259D01*
X207074400Y-104258741D01*
X207120731Y-104491660D01*
X207211611Y-104711066D01*
X207343550Y-104908525D01*
X207511475Y-105076450D01*
X207708934Y-105208389D01*
X207928340Y-105299269D01*
X208161259Y-105345600D01*
X208398741Y-105345600D01*
X208631660Y-105299269D01*
X208851066Y-105208389D01*
X209048525Y-105076450D01*
X209216450Y-104908525D01*
X209348389Y-104711066D01*
X209439269Y-104491660D01*
X209485600Y-104258741D01*
X209485600Y-104021259D01*
X209614400Y-104021259D01*
X209614400Y-104258741D01*
X209660731Y-104491660D01*
X209751611Y-104711066D01*
X209883550Y-104908525D01*
X210051475Y-105076450D01*
X210248934Y-105208389D01*
X210468340Y-105299269D01*
X210701259Y-105345600D01*
X210938741Y-105345600D01*
X211171660Y-105299269D01*
X211391066Y-105208389D01*
X211588525Y-105076450D01*
X211756450Y-104908525D01*
X211888389Y-104711066D01*
X211979269Y-104491660D01*
X212025600Y-104258741D01*
X212025600Y-104021259D01*
X211979269Y-103788340D01*
X211888389Y-103568934D01*
X211756450Y-103371475D01*
X211674975Y-103290000D01*
X212152680Y-103290000D01*
X212152680Y-104990000D01*
X212159546Y-105059710D01*
X212179879Y-105126740D01*
X212212899Y-105188516D01*
X212257337Y-105242663D01*
X212311484Y-105287101D01*
X212373260Y-105320121D01*
X212440290Y-105340454D01*
X212510000Y-105347320D01*
X214210000Y-105347320D01*
X214279710Y-105340454D01*
X214346740Y-105320121D01*
X214408516Y-105287101D01*
X214462663Y-105242663D01*
X214507101Y-105188516D01*
X214540121Y-105126740D01*
X214560454Y-105059710D01*
X214567320Y-104990000D01*
X214567320Y-104021259D01*
X217234400Y-104021259D01*
X217234400Y-104258741D01*
X217280731Y-104491660D01*
X217371611Y-104711066D01*
X217503550Y-104908525D01*
X217671475Y-105076450D01*
X217868934Y-105208389D01*
X218088340Y-105299269D01*
X218321259Y-105345600D01*
X218558741Y-105345600D01*
X218791660Y-105299269D01*
X219011066Y-105208389D01*
X219208525Y-105076450D01*
X219376450Y-104908525D01*
X219508389Y-104711066D01*
X219599269Y-104491660D01*
X219645600Y-104258741D01*
X219645600Y-104021259D01*
X224854400Y-104021259D01*
X224854400Y-104258741D01*
X224900731Y-104491660D01*
X224991611Y-104711066D01*
X225123550Y-104908525D01*
X225291475Y-105076450D01*
X225488934Y-105208389D01*
X225708340Y-105299269D01*
X225941259Y-105345600D01*
X226178741Y-105345600D01*
X226411660Y-105299269D01*
X226631066Y-105208389D01*
X226828525Y-105076450D01*
X226996450Y-104908525D01*
X227128389Y-104711066D01*
X227219269Y-104491660D01*
X227265600Y-104258741D01*
X227265600Y-104021259D01*
X227240338Y-103894259D01*
X243396400Y-103894259D01*
X243396400Y-104131741D01*
X243442731Y-104364660D01*
X243533611Y-104584066D01*
X243665550Y-104781525D01*
X243833475Y-104949450D01*
X244030934Y-105081389D01*
X244250340Y-105172269D01*
X244483259Y-105218600D01*
X244720741Y-105218600D01*
X244953660Y-105172269D01*
X245173066Y-105081389D01*
X245370525Y-104949450D01*
X245538450Y-104781525D01*
X245670389Y-104584066D01*
X245761269Y-104364660D01*
X245807600Y-104131741D01*
X245807600Y-103894259D01*
X245761269Y-103661340D01*
X245670389Y-103441934D01*
X245538450Y-103244475D01*
X245370525Y-103076550D01*
X245173066Y-102944611D01*
X244953660Y-102853731D01*
X244720741Y-102807400D01*
X244483259Y-102807400D01*
X244250340Y-102853731D01*
X244030934Y-102944611D01*
X243833475Y-103076550D01*
X243665550Y-103244475D01*
X243533611Y-103441934D01*
X243442731Y-103661340D01*
X243396400Y-103894259D01*
X227240338Y-103894259D01*
X227219269Y-103788340D01*
X227128389Y-103568934D01*
X226996450Y-103371475D01*
X226828525Y-103203550D01*
X226631066Y-103071611D01*
X226411660Y-102980731D01*
X226178741Y-102934400D01*
X225941259Y-102934400D01*
X225708340Y-102980731D01*
X225488934Y-103071611D01*
X225291475Y-103203550D01*
X225123550Y-103371475D01*
X224991611Y-103568934D01*
X224900731Y-103788340D01*
X224854400Y-104021259D01*
X219645600Y-104021259D01*
X219599269Y-103788340D01*
X219508389Y-103568934D01*
X219376450Y-103371475D01*
X219208525Y-103203550D01*
X219011066Y-103071611D01*
X218791660Y-102980731D01*
X218558741Y-102934400D01*
X218321259Y-102934400D01*
X218088340Y-102980731D01*
X217868934Y-103071611D01*
X217671475Y-103203550D01*
X217503550Y-103371475D01*
X217371611Y-103568934D01*
X217280731Y-103788340D01*
X217234400Y-104021259D01*
X214567320Y-104021259D01*
X214567320Y-103290000D01*
X214560454Y-103220290D01*
X214540121Y-103153260D01*
X214507101Y-103091484D01*
X214462663Y-103037337D01*
X214408516Y-102992899D01*
X214346740Y-102959879D01*
X214279710Y-102939546D01*
X214210000Y-102932680D01*
X212510000Y-102932680D01*
X212440290Y-102939546D01*
X212373260Y-102959879D01*
X212311484Y-102992899D01*
X212257337Y-103037337D01*
X212212899Y-103091484D01*
X212179879Y-103153260D01*
X212159546Y-103220290D01*
X212152680Y-103290000D01*
X211674975Y-103290000D01*
X211588525Y-103203550D01*
X211391066Y-103071611D01*
X211171660Y-102980731D01*
X210938741Y-102934400D01*
X210701259Y-102934400D01*
X210468340Y-102980731D01*
X210248934Y-103071611D01*
X210051475Y-103203550D01*
X209883550Y-103371475D01*
X209751611Y-103568934D01*
X209660731Y-103788340D01*
X209614400Y-104021259D01*
X209485600Y-104021259D01*
X209439269Y-103788340D01*
X209348389Y-103568934D01*
X209216450Y-103371475D01*
X209048525Y-103203550D01*
X208851066Y-103071611D01*
X208631660Y-102980731D01*
X208398741Y-102934400D01*
X208161259Y-102934400D01*
X207928340Y-102980731D01*
X207708934Y-103071611D01*
X207511475Y-103203550D01*
X207343550Y-103371475D01*
X207211611Y-103568934D01*
X207120731Y-103788340D01*
X207074400Y-104021259D01*
X206945600Y-104021259D01*
X206899269Y-103788340D01*
X206808389Y-103568934D01*
X206676450Y-103371475D01*
X206508525Y-103203550D01*
X206311066Y-103071611D01*
X206091660Y-102980731D01*
X205858741Y-102934400D01*
X205621259Y-102934400D01*
X205388340Y-102980731D01*
X205168934Y-103071611D01*
X204971475Y-103203550D01*
X204803550Y-103371475D01*
X204671611Y-103568934D01*
X204580731Y-103788340D01*
X204534400Y-104021259D01*
X201865600Y-104021259D01*
X201819269Y-103788340D01*
X201728389Y-103568934D01*
X201596450Y-103371475D01*
X201428525Y-103203550D01*
X201231066Y-103071611D01*
X201011660Y-102980731D01*
X200778741Y-102934400D01*
X200541259Y-102934400D01*
X200308340Y-102980731D01*
X200088934Y-103071611D01*
X199891475Y-103203550D01*
X199723550Y-103371475D01*
X199591611Y-103568934D01*
X199500731Y-103788340D01*
X199454400Y-104021259D01*
X197967600Y-104021259D01*
X197967600Y-101481259D01*
X217234400Y-101481259D01*
X217234400Y-101718741D01*
X217280731Y-101951660D01*
X217371611Y-102171066D01*
X217503550Y-102368525D01*
X217671475Y-102536450D01*
X217868934Y-102668389D01*
X218088340Y-102759269D01*
X218321259Y-102805600D01*
X218558741Y-102805600D01*
X218791660Y-102759269D01*
X219011066Y-102668389D01*
X219208525Y-102536450D01*
X219376450Y-102368525D01*
X219508389Y-102171066D01*
X219599269Y-101951660D01*
X219645600Y-101718741D01*
X219645600Y-101481259D01*
X219774400Y-101481259D01*
X219774400Y-101718741D01*
X219820731Y-101951660D01*
X219911611Y-102171066D01*
X220043550Y-102368525D01*
X220211475Y-102536450D01*
X220408934Y-102668389D01*
X220628340Y-102759269D01*
X220861259Y-102805600D01*
X221098741Y-102805600D01*
X221331660Y-102759269D01*
X221551066Y-102668389D01*
X221748525Y-102536450D01*
X221916450Y-102368525D01*
X222048389Y-102171066D01*
X222139269Y-101951660D01*
X222185600Y-101718741D01*
X222185600Y-101481259D01*
X224854400Y-101481259D01*
X224854400Y-101718741D01*
X224900731Y-101951660D01*
X224991611Y-102171066D01*
X225123550Y-102368525D01*
X225291475Y-102536450D01*
X225488934Y-102668389D01*
X225708340Y-102759269D01*
X225941259Y-102805600D01*
X226178741Y-102805600D01*
X226411660Y-102759269D01*
X226631066Y-102668389D01*
X226828525Y-102536450D01*
X226996450Y-102368525D01*
X227128389Y-102171066D01*
X227219269Y-101951660D01*
X227265600Y-101718741D01*
X227265600Y-101481259D01*
X227219269Y-101248340D01*
X227128389Y-101028934D01*
X226996450Y-100831475D01*
X226828525Y-100663550D01*
X226631066Y-100531611D01*
X226411660Y-100440731D01*
X226278302Y-100414204D01*
X235241500Y-100414204D01*
X235241500Y-100551796D01*
X235268343Y-100686745D01*
X235320997Y-100813864D01*
X235397439Y-100928268D01*
X235494732Y-101025561D01*
X235609136Y-101102003D01*
X235736255Y-101154657D01*
X235871204Y-101181500D01*
X236008796Y-101181500D01*
X236143745Y-101154657D01*
X236270864Y-101102003D01*
X236385268Y-101025561D01*
X236482561Y-100928268D01*
X236559003Y-100813864D01*
X236611657Y-100686745D01*
X236624336Y-100623000D01*
X243394680Y-100623000D01*
X243394680Y-102323000D01*
X243401546Y-102392710D01*
X243421879Y-102459740D01*
X243454899Y-102521516D01*
X243499337Y-102575663D01*
X243553484Y-102620101D01*
X243615260Y-102653121D01*
X243682290Y-102673454D01*
X243752000Y-102680320D01*
X245452000Y-102680320D01*
X245521710Y-102673454D01*
X245588740Y-102653121D01*
X245650516Y-102620101D01*
X245704663Y-102575663D01*
X245749101Y-102521516D01*
X245782121Y-102459740D01*
X245802454Y-102392710D01*
X245809320Y-102323000D01*
X245809320Y-100623000D01*
X245802454Y-100553290D01*
X245782121Y-100486260D01*
X245749101Y-100424484D01*
X245704663Y-100370337D01*
X245650516Y-100325899D01*
X245588740Y-100292879D01*
X245521710Y-100272546D01*
X245452000Y-100265680D01*
X243752000Y-100265680D01*
X243682290Y-100272546D01*
X243615260Y-100292879D01*
X243553484Y-100325899D01*
X243499337Y-100370337D01*
X243454899Y-100424484D01*
X243421879Y-100486260D01*
X243401546Y-100553290D01*
X243394680Y-100623000D01*
X236624336Y-100623000D01*
X236638500Y-100551796D01*
X236638500Y-100414204D01*
X236611657Y-100279255D01*
X236559003Y-100152136D01*
X236482561Y-100037732D01*
X236448600Y-100003771D01*
X236448600Y-98295229D01*
X236508561Y-98235268D01*
X236585003Y-98120864D01*
X236637657Y-97993745D01*
X236664500Y-97858796D01*
X236664500Y-97721204D01*
X236637657Y-97586255D01*
X236585003Y-97459136D01*
X236508561Y-97344732D01*
X236411268Y-97247439D01*
X236296864Y-97170997D01*
X236169745Y-97118343D01*
X236034796Y-97091500D01*
X235897204Y-97091500D01*
X235762255Y-97118343D01*
X235635136Y-97170997D01*
X235520732Y-97247439D01*
X235423439Y-97344732D01*
X235346997Y-97459136D01*
X235294343Y-97586255D01*
X235267500Y-97721204D01*
X235267500Y-97858796D01*
X235294343Y-97993745D01*
X235346997Y-98120864D01*
X235423439Y-98235268D01*
X235483400Y-98295229D01*
X235483401Y-99951770D01*
X235397439Y-100037732D01*
X235320997Y-100152136D01*
X235268343Y-100279255D01*
X235241500Y-100414204D01*
X226278302Y-100414204D01*
X226178741Y-100394400D01*
X225941259Y-100394400D01*
X225708340Y-100440731D01*
X225488934Y-100531611D01*
X225291475Y-100663550D01*
X225123550Y-100831475D01*
X224991611Y-101028934D01*
X224900731Y-101248340D01*
X224854400Y-101481259D01*
X222185600Y-101481259D01*
X222139269Y-101248340D01*
X222048389Y-101028934D01*
X221916450Y-100831475D01*
X221748525Y-100663550D01*
X221551066Y-100531611D01*
X221331660Y-100440731D01*
X221098741Y-100394400D01*
X220861259Y-100394400D01*
X220628340Y-100440731D01*
X220408934Y-100531611D01*
X220211475Y-100663550D01*
X220043550Y-100831475D01*
X219911611Y-101028934D01*
X219820731Y-101248340D01*
X219774400Y-101481259D01*
X219645600Y-101481259D01*
X219599269Y-101248340D01*
X219508389Y-101028934D01*
X219376450Y-100831475D01*
X219208525Y-100663550D01*
X219011066Y-100531611D01*
X218791660Y-100440731D01*
X218558741Y-100394400D01*
X218321259Y-100394400D01*
X218088340Y-100440731D01*
X217868934Y-100531611D01*
X217671475Y-100663550D01*
X217503550Y-100831475D01*
X217371611Y-101028934D01*
X217280731Y-101248340D01*
X217234400Y-101481259D01*
X197967600Y-101481259D01*
X197967600Y-98210000D01*
X217232680Y-98210000D01*
X217232680Y-99910000D01*
X217239546Y-99979710D01*
X217259879Y-100046740D01*
X217292899Y-100108516D01*
X217337337Y-100162663D01*
X217391484Y-100207101D01*
X217453260Y-100240121D01*
X217520290Y-100260454D01*
X217590000Y-100267320D01*
X219290000Y-100267320D01*
X219359710Y-100260454D01*
X219426740Y-100240121D01*
X219488516Y-100207101D01*
X219542663Y-100162663D01*
X219587101Y-100108516D01*
X219620121Y-100046740D01*
X219640454Y-99979710D01*
X219647320Y-99910000D01*
X219647320Y-98941259D01*
X219774400Y-98941259D01*
X219774400Y-99178741D01*
X219820731Y-99411660D01*
X219911611Y-99631066D01*
X220043550Y-99828525D01*
X220211475Y-99996450D01*
X220408934Y-100128389D01*
X220628340Y-100219269D01*
X220861259Y-100265600D01*
X221098741Y-100265600D01*
X221331660Y-100219269D01*
X221551066Y-100128389D01*
X221748525Y-99996450D01*
X221916450Y-99828525D01*
X222048389Y-99631066D01*
X222139269Y-99411660D01*
X222185600Y-99178741D01*
X222185600Y-98941259D01*
X224854400Y-98941259D01*
X224854400Y-99178741D01*
X224900731Y-99411660D01*
X224991611Y-99631066D01*
X225123550Y-99828525D01*
X225291475Y-99996450D01*
X225488934Y-100128389D01*
X225708340Y-100219269D01*
X225941259Y-100265600D01*
X226178741Y-100265600D01*
X226411660Y-100219269D01*
X226631066Y-100128389D01*
X226828525Y-99996450D01*
X226996450Y-99828525D01*
X227128389Y-99631066D01*
X227219269Y-99411660D01*
X227265600Y-99178741D01*
X227265600Y-98941259D01*
X227219269Y-98708340D01*
X227128389Y-98488934D01*
X226996450Y-98291475D01*
X226828525Y-98123550D01*
X226631066Y-97991611D01*
X226411660Y-97900731D01*
X226178741Y-97854400D01*
X225941259Y-97854400D01*
X225708340Y-97900731D01*
X225488934Y-97991611D01*
X225291475Y-98123550D01*
X225123550Y-98291475D01*
X224991611Y-98488934D01*
X224900731Y-98708340D01*
X224854400Y-98941259D01*
X222185600Y-98941259D01*
X222139269Y-98708340D01*
X222048389Y-98488934D01*
X221916450Y-98291475D01*
X221748525Y-98123550D01*
X221551066Y-97991611D01*
X221331660Y-97900731D01*
X221098741Y-97854400D01*
X220861259Y-97854400D01*
X220628340Y-97900731D01*
X220408934Y-97991611D01*
X220211475Y-98123550D01*
X220043550Y-98291475D01*
X219911611Y-98488934D01*
X219820731Y-98708340D01*
X219774400Y-98941259D01*
X219647320Y-98941259D01*
X219647320Y-98210000D01*
X219640454Y-98140290D01*
X219620121Y-98073260D01*
X219587101Y-98011484D01*
X219542663Y-97957337D01*
X219488516Y-97912899D01*
X219426740Y-97879879D01*
X219359710Y-97859546D01*
X219290000Y-97852680D01*
X217590000Y-97852680D01*
X217520290Y-97859546D01*
X217453260Y-97879879D01*
X217391484Y-97912899D01*
X217337337Y-97957337D01*
X217292899Y-98011484D01*
X217259879Y-98073260D01*
X217239546Y-98140290D01*
X217232680Y-98210000D01*
X197967600Y-98210000D01*
X197967600Y-84739804D01*
X199009400Y-84739804D01*
X199009400Y-85440196D01*
X199146040Y-86127130D01*
X199414068Y-86774208D01*
X199803185Y-87356563D01*
X200298437Y-87851815D01*
X200880792Y-88240932D01*
X201527870Y-88508960D01*
X202214804Y-88645600D01*
X202915196Y-88645600D01*
X203602130Y-88508960D01*
X204249208Y-88240932D01*
X204831563Y-87851815D01*
X205326815Y-87356563D01*
X205715932Y-86774208D01*
X205983960Y-86127130D01*
X206120600Y-85440196D01*
X206120600Y-84846000D01*
X221216680Y-84846000D01*
X221216680Y-86096000D01*
X221223546Y-86165710D01*
X221243879Y-86232740D01*
X221276899Y-86294516D01*
X221321337Y-86348663D01*
X221375484Y-86393101D01*
X221437260Y-86426121D01*
X221504290Y-86446454D01*
X221574000Y-86453320D01*
X223374000Y-86453320D01*
X223443710Y-86446454D01*
X223510740Y-86426121D01*
X223572516Y-86393101D01*
X223626663Y-86348663D01*
X223671101Y-86294516D01*
X223704121Y-86232740D01*
X223724454Y-86165710D01*
X223731320Y-86096000D01*
X223731320Y-84846000D01*
X223724454Y-84776290D01*
X223713387Y-84739804D01*
X239649400Y-84739804D01*
X239649400Y-85440196D01*
X239786040Y-86127130D01*
X240054068Y-86774208D01*
X240443185Y-87356563D01*
X240938437Y-87851815D01*
X241520792Y-88240932D01*
X242167870Y-88508960D01*
X242854804Y-88645600D01*
X243555196Y-88645600D01*
X244242130Y-88508960D01*
X244889208Y-88240932D01*
X245471563Y-87851815D01*
X245966815Y-87356563D01*
X246355932Y-86774208D01*
X246623960Y-86127130D01*
X246760600Y-85440196D01*
X246760600Y-84739804D01*
X246623960Y-84052870D01*
X246355932Y-83405792D01*
X245966815Y-82823437D01*
X245471563Y-82328185D01*
X244889208Y-81939068D01*
X244242130Y-81671040D01*
X243555196Y-81534400D01*
X242854804Y-81534400D01*
X242167870Y-81671040D01*
X241520792Y-81939068D01*
X240938437Y-82328185D01*
X240443185Y-82823437D01*
X240054068Y-83405792D01*
X239786040Y-84052870D01*
X239649400Y-84739804D01*
X223713387Y-84739804D01*
X223704121Y-84709260D01*
X223671101Y-84647484D01*
X223626663Y-84593337D01*
X223572516Y-84548899D01*
X223510740Y-84515879D01*
X223443710Y-84495546D01*
X223374000Y-84488680D01*
X223332944Y-84488680D01*
X223348657Y-84450745D01*
X223375500Y-84315796D01*
X223375500Y-84178204D01*
X223348657Y-84043255D01*
X223296003Y-83916136D01*
X223286600Y-83902063D01*
X223286600Y-82756503D01*
X223518504Y-82524600D01*
X224664497Y-82524600D01*
X226158769Y-84018873D01*
X226177862Y-84042138D01*
X226270686Y-84118316D01*
X226319982Y-84144665D01*
X226376587Y-84174921D01*
X226491497Y-84209779D01*
X226611000Y-84221549D01*
X226640941Y-84218600D01*
X231346063Y-84218600D01*
X231360136Y-84228003D01*
X231487255Y-84280657D01*
X231622204Y-84307500D01*
X231759796Y-84307500D01*
X231894745Y-84280657D01*
X232021864Y-84228003D01*
X232136268Y-84151561D01*
X232233561Y-84054268D01*
X232310003Y-83939864D01*
X232362657Y-83812745D01*
X232389500Y-83677796D01*
X232389500Y-83540204D01*
X232362657Y-83405255D01*
X232310003Y-83278136D01*
X232233561Y-83163732D01*
X232136268Y-83066439D01*
X232021864Y-82989997D01*
X231894745Y-82937343D01*
X231759796Y-82910500D01*
X231622204Y-82910500D01*
X231487255Y-82937343D01*
X231360136Y-82989997D01*
X231346063Y-82999400D01*
X226863504Y-82999400D01*
X225369235Y-81505132D01*
X225350138Y-81481862D01*
X225257314Y-81405684D01*
X225151412Y-81349079D01*
X225036502Y-81314221D01*
X224946941Y-81305400D01*
X224917000Y-81302451D01*
X224887059Y-81305400D01*
X223295941Y-81305400D01*
X223266000Y-81302451D01*
X223146497Y-81314221D01*
X223031587Y-81349079D01*
X222974982Y-81379335D01*
X222925686Y-81405684D01*
X222832862Y-81481862D01*
X222813769Y-81505127D01*
X222267127Y-82051770D01*
X222243863Y-82070862D01*
X222167685Y-82163686D01*
X222111080Y-82269588D01*
X222076221Y-82384498D01*
X222064451Y-82504000D01*
X222067401Y-82533951D01*
X222067400Y-83902063D01*
X222057997Y-83916136D01*
X222005343Y-84043255D01*
X221978500Y-84178204D01*
X221978500Y-84315796D01*
X222005343Y-84450745D01*
X222021056Y-84488680D01*
X221574000Y-84488680D01*
X221504290Y-84495546D01*
X221437260Y-84515879D01*
X221375484Y-84548899D01*
X221321337Y-84593337D01*
X221276899Y-84647484D01*
X221243879Y-84709260D01*
X221223546Y-84776290D01*
X221216680Y-84846000D01*
X206120600Y-84846000D01*
X206120600Y-84739804D01*
X205983960Y-84052870D01*
X205715932Y-83405792D01*
X205326815Y-82823437D01*
X204831563Y-82328185D01*
X204249208Y-81939068D01*
X203602130Y-81671040D01*
X202915196Y-81534400D01*
X202214804Y-81534400D01*
X201527870Y-81671040D01*
X200880792Y-81939068D01*
X200298437Y-82328185D01*
X199803185Y-82823437D01*
X199414068Y-83405792D01*
X199146040Y-84052870D01*
X199009400Y-84739804D01*
X197967600Y-84739804D01*
X197967600Y-83481084D01*
X200956084Y-80492600D01*
X244813916Y-80492600D01*
X247802400Y-83481084D01*
G37*
%TD.AperFunction*%
%TD*%
M02*
