%TF.GenerationSoftware,KiCad,Pcbnew,(5.1.12)-1*%
%TF.CreationDate,2022-08-18T02:06:39-04:00*%
%TF.ProjectId,MiniMicro,4d696e69-4d69-4637-926f-2e6b69636164,rev?*%
%TF.SameCoordinates,Original*%
%TF.FileFunction,Legend,Top*%
%TF.FilePolarity,Positive*%
%FSLAX46Y46*%
G04 Gerber Fmt 4.6, Leading zero omitted, Abs format (unit mm)*
G04 Created by KiCad (PCBNEW (5.1.12)-1) date 2022-08-18 02:06:39*
%MOMM*%
%LPD*%
G01*
G04 APERTURE LIST*
%ADD10C,0.150000*%
%ADD11C,0.100000*%
%ADD12C,0.200000*%
%ADD13C,0.120000*%
%ADD14C,0.250000*%
%ADD15C,0.254000*%
G04 APERTURE END LIST*
D10*
X202184523Y-90892380D02*
X202517857Y-91892380D01*
X202851190Y-90892380D01*
X203565476Y-91844761D02*
X203470238Y-91892380D01*
X203279761Y-91892380D01*
X203184523Y-91844761D01*
X203136904Y-91749523D01*
X203136904Y-91368571D01*
X203184523Y-91273333D01*
X203279761Y-91225714D01*
X203470238Y-91225714D01*
X203565476Y-91273333D01*
X203613095Y-91368571D01*
X203613095Y-91463809D01*
X203136904Y-91559047D01*
X204041666Y-91892380D02*
X204041666Y-91225714D01*
X204041666Y-91416190D02*
X204089285Y-91320952D01*
X204136904Y-91273333D01*
X204232142Y-91225714D01*
X204327380Y-91225714D01*
X204613095Y-91844761D02*
X204708333Y-91892380D01*
X204898809Y-91892380D01*
X204994047Y-91844761D01*
X205041666Y-91749523D01*
X205041666Y-91701904D01*
X204994047Y-91606666D01*
X204898809Y-91559047D01*
X204755952Y-91559047D01*
X204660714Y-91511428D01*
X204613095Y-91416190D01*
X204613095Y-91368571D01*
X204660714Y-91273333D01*
X204755952Y-91225714D01*
X204898809Y-91225714D01*
X204994047Y-91273333D01*
X205470238Y-91892380D02*
X205470238Y-91225714D01*
X205470238Y-90892380D02*
X205422619Y-90940000D01*
X205470238Y-90987619D01*
X205517857Y-90940000D01*
X205470238Y-90892380D01*
X205470238Y-90987619D01*
X206089285Y-91892380D02*
X205994047Y-91844761D01*
X205946428Y-91797142D01*
X205898809Y-91701904D01*
X205898809Y-91416190D01*
X205946428Y-91320952D01*
X205994047Y-91273333D01*
X206089285Y-91225714D01*
X206232142Y-91225714D01*
X206327380Y-91273333D01*
X206375000Y-91320952D01*
X206422619Y-91416190D01*
X206422619Y-91701904D01*
X206375000Y-91797142D01*
X206327380Y-91844761D01*
X206232142Y-91892380D01*
X206089285Y-91892380D01*
X206851190Y-91225714D02*
X206851190Y-91892380D01*
X206851190Y-91320952D02*
X206898809Y-91273333D01*
X206994047Y-91225714D01*
X207136904Y-91225714D01*
X207232142Y-91273333D01*
X207279761Y-91368571D01*
X207279761Y-91892380D01*
X209041666Y-91892380D02*
X208470238Y-91892380D01*
X208755952Y-91892380D02*
X208755952Y-90892380D01*
X208660714Y-91035238D01*
X208565476Y-91130476D01*
X208470238Y-91178095D01*
X209470238Y-91797142D02*
X209517857Y-91844761D01*
X209470238Y-91892380D01*
X209422619Y-91844761D01*
X209470238Y-91797142D01*
X209470238Y-91892380D01*
X210136904Y-90892380D02*
X210232142Y-90892380D01*
X210327380Y-90940000D01*
X210375000Y-90987619D01*
X210422619Y-91082857D01*
X210470238Y-91273333D01*
X210470238Y-91511428D01*
X210422619Y-91701904D01*
X210375000Y-91797142D01*
X210327380Y-91844761D01*
X210232142Y-91892380D01*
X210136904Y-91892380D01*
X210041666Y-91844761D01*
X209994047Y-91797142D01*
X209946428Y-91701904D01*
X209898809Y-91511428D01*
X209898809Y-91273333D01*
X209946428Y-91082857D01*
X209994047Y-90987619D01*
X210041666Y-90940000D01*
X210136904Y-90892380D01*
X199184523Y-89463571D02*
X198851190Y-89463571D01*
X198851190Y-89987380D02*
X198851190Y-88987380D01*
X199327380Y-88987380D01*
X199851190Y-89987380D02*
X199755952Y-89939761D01*
X199708333Y-89844523D01*
X199708333Y-88987380D01*
X200232142Y-89987380D02*
X200232142Y-89320714D01*
X200232142Y-88987380D02*
X200184523Y-89035000D01*
X200232142Y-89082619D01*
X200279761Y-89035000D01*
X200232142Y-88987380D01*
X200232142Y-89082619D01*
X201136904Y-89320714D02*
X201136904Y-90130238D01*
X201089285Y-90225476D01*
X201041666Y-90273095D01*
X200946428Y-90320714D01*
X200803571Y-90320714D01*
X200708333Y-90273095D01*
X201136904Y-89939761D02*
X201041666Y-89987380D01*
X200851190Y-89987380D01*
X200755952Y-89939761D01*
X200708333Y-89892142D01*
X200660714Y-89796904D01*
X200660714Y-89511190D01*
X200708333Y-89415952D01*
X200755952Y-89368333D01*
X200851190Y-89320714D01*
X201041666Y-89320714D01*
X201136904Y-89368333D01*
X201613095Y-89987380D02*
X201613095Y-88987380D01*
X202041666Y-89987380D02*
X202041666Y-89463571D01*
X201994047Y-89368333D01*
X201898809Y-89320714D01*
X201755952Y-89320714D01*
X201660714Y-89368333D01*
X201613095Y-89415952D01*
X202375000Y-89320714D02*
X202755952Y-89320714D01*
X202517857Y-88987380D02*
X202517857Y-89844523D01*
X202565476Y-89939761D01*
X202660714Y-89987380D01*
X202755952Y-89987380D01*
X204422619Y-89892142D02*
X204375000Y-89939761D01*
X204232142Y-89987380D01*
X204136904Y-89987380D01*
X203994047Y-89939761D01*
X203898809Y-89844523D01*
X203851190Y-89749285D01*
X203803571Y-89558809D01*
X203803571Y-89415952D01*
X203851190Y-89225476D01*
X203898809Y-89130238D01*
X203994047Y-89035000D01*
X204136904Y-88987380D01*
X204232142Y-88987380D01*
X204375000Y-89035000D01*
X204422619Y-89082619D01*
X204994047Y-89987380D02*
X204898809Y-89939761D01*
X204851190Y-89892142D01*
X204803571Y-89796904D01*
X204803571Y-89511190D01*
X204851190Y-89415952D01*
X204898809Y-89368333D01*
X204994047Y-89320714D01*
X205136904Y-89320714D01*
X205232142Y-89368333D01*
X205279761Y-89415952D01*
X205327380Y-89511190D01*
X205327380Y-89796904D01*
X205279761Y-89892142D01*
X205232142Y-89939761D01*
X205136904Y-89987380D01*
X204994047Y-89987380D01*
X205755952Y-89320714D02*
X205755952Y-89987380D01*
X205755952Y-89415952D02*
X205803571Y-89368333D01*
X205898809Y-89320714D01*
X206041666Y-89320714D01*
X206136904Y-89368333D01*
X206184523Y-89463571D01*
X206184523Y-89987380D01*
X206517857Y-89320714D02*
X206898809Y-89320714D01*
X206660714Y-88987380D02*
X206660714Y-89844523D01*
X206708333Y-89939761D01*
X206803571Y-89987380D01*
X206898809Y-89987380D01*
X207232142Y-89987380D02*
X207232142Y-89320714D01*
X207232142Y-89511190D02*
X207279761Y-89415952D01*
X207327380Y-89368333D01*
X207422619Y-89320714D01*
X207517857Y-89320714D01*
X207994047Y-89987380D02*
X207898809Y-89939761D01*
X207851190Y-89892142D01*
X207803571Y-89796904D01*
X207803571Y-89511190D01*
X207851190Y-89415952D01*
X207898809Y-89368333D01*
X207994047Y-89320714D01*
X208136904Y-89320714D01*
X208232142Y-89368333D01*
X208279761Y-89415952D01*
X208327380Y-89511190D01*
X208327380Y-89796904D01*
X208279761Y-89892142D01*
X208232142Y-89939761D01*
X208136904Y-89987380D01*
X207994047Y-89987380D01*
X208898809Y-89987380D02*
X208803571Y-89939761D01*
X208755952Y-89844523D01*
X208755952Y-88987380D01*
X210375000Y-89463571D02*
X210517857Y-89511190D01*
X210565476Y-89558809D01*
X210613095Y-89654047D01*
X210613095Y-89796904D01*
X210565476Y-89892142D01*
X210517857Y-89939761D01*
X210422619Y-89987380D01*
X210041666Y-89987380D01*
X210041666Y-88987380D01*
X210375000Y-88987380D01*
X210470238Y-89035000D01*
X210517857Y-89082619D01*
X210565476Y-89177857D01*
X210565476Y-89273095D01*
X210517857Y-89368333D01*
X210470238Y-89415952D01*
X210375000Y-89463571D01*
X210041666Y-89463571D01*
X211184523Y-89987380D02*
X211089285Y-89939761D01*
X211041666Y-89892142D01*
X210994047Y-89796904D01*
X210994047Y-89511190D01*
X211041666Y-89415952D01*
X211089285Y-89368333D01*
X211184523Y-89320714D01*
X211327380Y-89320714D01*
X211422619Y-89368333D01*
X211470238Y-89415952D01*
X211517857Y-89511190D01*
X211517857Y-89796904D01*
X211470238Y-89892142D01*
X211422619Y-89939761D01*
X211327380Y-89987380D01*
X211184523Y-89987380D01*
X212375000Y-89987380D02*
X212375000Y-89463571D01*
X212327380Y-89368333D01*
X212232142Y-89320714D01*
X212041666Y-89320714D01*
X211946428Y-89368333D01*
X212375000Y-89939761D02*
X212279761Y-89987380D01*
X212041666Y-89987380D01*
X211946428Y-89939761D01*
X211898809Y-89844523D01*
X211898809Y-89749285D01*
X211946428Y-89654047D01*
X212041666Y-89606428D01*
X212279761Y-89606428D01*
X212375000Y-89558809D01*
X212851190Y-89987380D02*
X212851190Y-89320714D01*
X212851190Y-89511190D02*
X212898809Y-89415952D01*
X212946428Y-89368333D01*
X213041666Y-89320714D01*
X213136904Y-89320714D01*
X213898809Y-89987380D02*
X213898809Y-88987380D01*
X213898809Y-89939761D02*
X213803571Y-89987380D01*
X213613095Y-89987380D01*
X213517857Y-89939761D01*
X213470238Y-89892142D01*
X213422619Y-89796904D01*
X213422619Y-89511190D01*
X213470238Y-89415952D01*
X213517857Y-89368333D01*
X213613095Y-89320714D01*
X213803571Y-89320714D01*
X213898809Y-89368333D01*
D11*
%TO.C,J3*%
X229277000Y-96077000D02*
X229277000Y-84803000D01*
X215477000Y-96077000D02*
X215477000Y-84777000D01*
D12*
X217902000Y-82802000D02*
X217902000Y-82802000D01*
X217902000Y-82602000D02*
X217902000Y-82602000D01*
X217902000Y-82802000D02*
G75*
G02*
X217902000Y-82602000I0J100000D01*
G01*
X217902000Y-82602000D02*
G75*
G02*
X217902000Y-82802000I0J-100000D01*
G01*
D13*
%TO.C,J7*%
X201990000Y-118170000D02*
X200660000Y-118170000D01*
X201990000Y-116840000D02*
X201990000Y-118170000D01*
X201990000Y-115570000D02*
X199330000Y-115570000D01*
X199330000Y-115570000D02*
X199330000Y-102810000D01*
X201990000Y-115570000D02*
X201990000Y-102810000D01*
X201990000Y-102810000D02*
X199330000Y-102810000D01*
D12*
%TO.C,IC6*%
X207925000Y-109431000D02*
X206725000Y-109431000D01*
%TO.C,IC4*%
X203330000Y-99390000D02*
X203330000Y-96190000D01*
X203330000Y-96190000D02*
X213230000Y-96190000D01*
X213230000Y-96190000D02*
X213230000Y-99390000D01*
X213230000Y-99390000D02*
X203330000Y-99390000D01*
X203160000Y-101265000D02*
X203160000Y-99740000D01*
D13*
%TO.C,J8*%
X214690000Y-102810000D02*
X214690000Y-104140000D01*
X213360000Y-102810000D02*
X214690000Y-102810000D01*
X212090000Y-102810000D02*
X212090000Y-105470000D01*
X212090000Y-105470000D02*
X204410000Y-105470000D01*
X212090000Y-102810000D02*
X204410000Y-102810000D01*
X204410000Y-102810000D02*
X204410000Y-105470000D01*
%TO.C,J6*%
X222190000Y-115510000D02*
X222190000Y-118170000D01*
X224790000Y-115510000D02*
X222190000Y-115510000D01*
X224790000Y-118170000D02*
X222190000Y-118170000D01*
X224790000Y-115510000D02*
X224790000Y-118170000D01*
X226060000Y-115510000D02*
X227390000Y-115510000D01*
X227390000Y-115510000D02*
X227390000Y-116840000D01*
%TO.C,R7*%
X229679500Y-108511500D02*
X229679500Y-107749500D01*
X229679500Y-107749500D02*
X230695500Y-107749500D01*
X230695500Y-107749500D02*
X230695500Y-108511500D01*
X230695500Y-109332000D02*
X230695500Y-110157500D01*
X230695500Y-110157500D02*
X229679500Y-110157500D01*
X229679500Y-110157500D02*
X229679500Y-109332000D01*
%TO.C,R9*%
X232463500Y-88201500D02*
X231701500Y-88201500D01*
X231701500Y-88201500D02*
X231701500Y-87185500D01*
X231701500Y-87185500D02*
X232463500Y-87185500D01*
X233284000Y-87185500D02*
X234109500Y-87185500D01*
X234109500Y-87185500D02*
X234109500Y-88201500D01*
X234109500Y-88201500D02*
X233284000Y-88201500D01*
%TO.C,R8*%
X241754500Y-101282500D02*
X242516500Y-101282500D01*
X242516500Y-101282500D02*
X242516500Y-102298500D01*
X242516500Y-102298500D02*
X241754500Y-102298500D01*
X240934000Y-102298500D02*
X240108500Y-102298500D01*
X240108500Y-102298500D02*
X240108500Y-101282500D01*
X240108500Y-101282500D02*
X240934000Y-101282500D01*
%TO.C,R6*%
X231203500Y-108511500D02*
X231203500Y-107749500D01*
X231203500Y-107749500D02*
X232219500Y-107749500D01*
X232219500Y-107749500D02*
X232219500Y-108511500D01*
X232219500Y-109332000D02*
X232219500Y-110157500D01*
X232219500Y-110157500D02*
X231203500Y-110157500D01*
X231203500Y-110157500D02*
X231203500Y-109332000D01*
%TO.C,R5*%
X234124500Y-105336500D02*
X234124500Y-104574500D01*
X234124500Y-104574500D02*
X235140500Y-104574500D01*
X235140500Y-104574500D02*
X235140500Y-105336500D01*
X235140500Y-106157000D02*
X235140500Y-106982500D01*
X235140500Y-106982500D02*
X234124500Y-106982500D01*
X234124500Y-106982500D02*
X234124500Y-106157000D01*
%TO.C,R4*%
X234124500Y-108130500D02*
X234124500Y-107368500D01*
X234124500Y-107368500D02*
X235140500Y-107368500D01*
X235140500Y-107368500D02*
X235140500Y-108130500D01*
X235140500Y-108951000D02*
X235140500Y-109776500D01*
X235140500Y-109776500D02*
X234124500Y-109776500D01*
X234124500Y-109776500D02*
X234124500Y-108951000D01*
%TO.C,R3*%
X231584500Y-99514500D02*
X231584500Y-100276500D01*
X231584500Y-100276500D02*
X230568500Y-100276500D01*
X230568500Y-100276500D02*
X230568500Y-99514500D01*
X230568500Y-98694000D02*
X230568500Y-97868500D01*
X230568500Y-97868500D02*
X231584500Y-97868500D01*
X231584500Y-97868500D02*
X231584500Y-98694000D01*
%TO.C,R2*%
X200967500Y-99377500D02*
X200205500Y-99377500D01*
X200205500Y-99377500D02*
X200205500Y-98361500D01*
X200205500Y-98361500D02*
X200967500Y-98361500D01*
X201788000Y-98361500D02*
X202613500Y-98361500D01*
X202613500Y-98361500D02*
X202613500Y-99377500D01*
X202613500Y-99377500D02*
X201788000Y-99377500D01*
%TO.C,R1*%
X232981500Y-99514500D02*
X232981500Y-100276500D01*
X232981500Y-100276500D02*
X231965500Y-100276500D01*
X231965500Y-100276500D02*
X231965500Y-99514500D01*
X231965500Y-98694000D02*
X231965500Y-97868500D01*
X231965500Y-97868500D02*
X232981500Y-97868500D01*
X232981500Y-97868500D02*
X232981500Y-98694000D01*
D12*
%TO.C,Q1*%
X231458000Y-84859000D02*
X231458000Y-84559000D01*
X231458000Y-84559000D02*
X234378000Y-84559000D01*
X234378000Y-84559000D02*
X234378000Y-84859000D01*
X234378000Y-84859000D02*
X231458000Y-84859000D01*
X231218000Y-86409000D02*
X231218000Y-85209000D01*
D13*
%TO.C,JP1*%
X233364000Y-93329000D02*
X231964000Y-93329000D01*
X231264000Y-92629000D02*
X231264000Y-92029000D01*
X231964000Y-91329000D02*
X233364000Y-91329000D01*
X234064000Y-92029000D02*
X234064000Y-92629000D01*
X234064000Y-92629000D02*
G75*
G02*
X233364000Y-93329000I-700000J0D01*
G01*
X233364000Y-91329000D02*
G75*
G02*
X234064000Y-92029000I0J-700000D01*
G01*
X231264000Y-92029000D02*
G75*
G02*
X231964000Y-91329000I700000J0D01*
G01*
X231964000Y-93329000D02*
G75*
G02*
X231264000Y-92629000I0J700000D01*
G01*
%TO.C,J5*%
X219770000Y-115510000D02*
X219770000Y-116840000D01*
X218440000Y-115510000D02*
X219770000Y-115510000D01*
X217170000Y-115510000D02*
X217170000Y-118170000D01*
X217170000Y-118170000D02*
X204410000Y-118170000D01*
X217170000Y-115510000D02*
X204410000Y-115510000D01*
X204410000Y-115510000D02*
X204410000Y-118170000D01*
%TO.C,J4*%
X227390000Y-113090000D02*
X226060000Y-113090000D01*
X227390000Y-111760000D02*
X227390000Y-113090000D01*
X227390000Y-110490000D02*
X224730000Y-110490000D01*
X224730000Y-110490000D02*
X224730000Y-97730000D01*
X227390000Y-110490000D02*
X227390000Y-97730000D01*
X227390000Y-97730000D02*
X224730000Y-97730000D01*
%TO.C,J2*%
X243272000Y-100143000D02*
X244602000Y-100143000D01*
X243272000Y-101473000D02*
X243272000Y-100143000D01*
X243272000Y-102743000D02*
X245932000Y-102743000D01*
X245932000Y-102743000D02*
X245932000Y-112963000D01*
X243272000Y-102743000D02*
X243272000Y-112963000D01*
X243272000Y-112963000D02*
X245932000Y-112963000D01*
%TO.C,J1*%
X217110000Y-97730000D02*
X218440000Y-97730000D01*
X217110000Y-99060000D02*
X217110000Y-97730000D01*
X219710000Y-97730000D02*
X222310000Y-97730000D01*
X219710000Y-100330000D02*
X219710000Y-97730000D01*
X217110000Y-100330000D02*
X219710000Y-100330000D01*
X222310000Y-97730000D02*
X222310000Y-105470000D01*
X217110000Y-100330000D02*
X217110000Y-105470000D01*
X217110000Y-105470000D02*
X222310000Y-105470000D01*
D12*
%TO.C,IC8*%
X240665000Y-113590000D02*
X234565000Y-113590000D01*
X234565000Y-113590000D02*
X234565000Y-120090000D01*
X234565000Y-120090000D02*
X240665000Y-120090000D01*
X230268000Y-114396000D02*
G75*
G03*
X230268000Y-114396000I-104000J0D01*
G01*
%TO.C,IC7*%
X238657000Y-107068000D02*
X238657000Y-104768000D01*
X238657000Y-104768000D02*
X241657000Y-104768000D01*
X241657000Y-104768000D02*
X241657000Y-107068000D01*
X241657000Y-107068000D02*
X238657000Y-107068000D01*
X238657000Y-108818000D02*
X238657000Y-107418000D01*
%TO.C,IC5*%
X233579000Y-101386000D02*
X233579000Y-102486000D01*
X230554000Y-102836000D02*
X233504000Y-102836000D01*
X230554000Y-104936000D02*
X230554000Y-102836000D01*
X233504000Y-104936000D02*
X230554000Y-104936000D01*
X233504000Y-102836000D02*
X233504000Y-104936000D01*
D11*
%TO.C,IC3*%
X243527000Y-93750000D02*
X243527000Y-93750000D01*
X243427000Y-93750000D02*
X243427000Y-93750000D01*
X242927000Y-97500000D02*
X241927000Y-97500000D01*
X242927000Y-97165000D02*
X242927000Y-97500000D01*
X242927000Y-93000000D02*
X242927000Y-93335000D01*
X241927000Y-93000000D02*
X242927000Y-93000000D01*
X239927000Y-97500000D02*
X240927000Y-97500000D01*
X239927000Y-97250000D02*
X239927000Y-97500000D01*
X240927000Y-93000000D02*
X240927000Y-93000000D01*
X239927000Y-93000000D02*
X240927000Y-93000000D01*
X239927000Y-93335000D02*
X239927000Y-93000000D01*
X243427000Y-93750000D02*
G75*
G03*
X243527000Y-93750000I50000J0D01*
G01*
X243527000Y-93750000D02*
G75*
G03*
X243427000Y-93750000I-50000J0D01*
G01*
%TO.C,IC2*%
X235208000Y-97285000D02*
X235208000Y-97285000D01*
X235208000Y-97185000D02*
X235208000Y-97185000D01*
X235208000Y-97285000D02*
G75*
G02*
X235208000Y-97185000I0J50000D01*
G01*
X235208000Y-97185000D02*
G75*
G02*
X235208000Y-97285000I0J-50000D01*
G01*
D13*
%TO.C,IC1*%
X219212000Y-112405000D02*
X219212000Y-111405000D01*
X218212000Y-112405000D02*
X219212000Y-112405000D01*
X214112000Y-112405000D02*
X215112000Y-112405000D01*
X214112000Y-111405000D02*
X214112000Y-112405000D01*
X214112000Y-107305000D02*
X214112000Y-108305000D01*
X215112000Y-107305000D02*
X214112000Y-107305000D01*
X219212000Y-107305000D02*
X219212000Y-108305000D01*
X218212000Y-107305000D02*
X219212000Y-107305000D01*
D14*
X214487000Y-108055000D02*
G75*
G03*
X214487000Y-108055000I-125000J0D01*
G01*
D13*
%TO.C,D1*%
X202694000Y-99862000D02*
X200281000Y-99862000D01*
X200281000Y-99862000D02*
X200027000Y-100116000D01*
X200027000Y-100116000D02*
X200027000Y-100878000D01*
X200027000Y-100878000D02*
X200281000Y-101132000D01*
X200281000Y-101132000D02*
X202694000Y-101132000D01*
X201551000Y-100116000D02*
X201551000Y-100878000D01*
X201551000Y-100878000D02*
X201170000Y-100497000D01*
X201170000Y-100497000D02*
X201551000Y-100116000D01*
X202694000Y-99862000D02*
X202694000Y-101132000D01*
%TO.C,C11*%
X228435000Y-120510000D02*
X228435000Y-119910000D01*
X230035000Y-120510000D02*
X228435000Y-120510000D01*
X230035000Y-119910000D02*
X230035000Y-120510000D01*
%TO.C,C9*%
X237782000Y-107963000D02*
X237782000Y-108563000D01*
X236182000Y-107963000D02*
X237782000Y-107963000D01*
X236182000Y-108563000D02*
X236182000Y-107963000D01*
%TO.C,J3*%
D15*
X221953666Y-87506523D02*
X221953666Y-88413666D01*
X221893190Y-88595095D01*
X221772238Y-88716047D01*
X221590809Y-88776523D01*
X221469857Y-88776523D01*
X222437476Y-87506523D02*
X223223666Y-87506523D01*
X222800333Y-87990333D01*
X222981761Y-87990333D01*
X223102714Y-88050809D01*
X223163190Y-88111285D01*
X223223666Y-88232238D01*
X223223666Y-88534619D01*
X223163190Y-88655571D01*
X223102714Y-88716047D01*
X222981761Y-88776523D01*
X222618904Y-88776523D01*
X222497952Y-88716047D01*
X222437476Y-88655571D01*
%TO.C,J7*%
D10*
X200326666Y-118622380D02*
X200326666Y-119336666D01*
X200279047Y-119479523D01*
X200183809Y-119574761D01*
X200040952Y-119622380D01*
X199945714Y-119622380D01*
X200707619Y-118622380D02*
X201374285Y-118622380D01*
X200945714Y-119622380D01*
%TO.C,IC6*%
D15*
X205135238Y-111191523D02*
X205135238Y-109921523D01*
X206465714Y-111070571D02*
X206405238Y-111131047D01*
X206223809Y-111191523D01*
X206102857Y-111191523D01*
X205921428Y-111131047D01*
X205800476Y-111010095D01*
X205740000Y-110889142D01*
X205679523Y-110647238D01*
X205679523Y-110465809D01*
X205740000Y-110223904D01*
X205800476Y-110102952D01*
X205921428Y-109982000D01*
X206102857Y-109921523D01*
X206223809Y-109921523D01*
X206405238Y-109982000D01*
X206465714Y-110042476D01*
X207554285Y-109921523D02*
X207312380Y-109921523D01*
X207191428Y-109982000D01*
X207130952Y-110042476D01*
X207010000Y-110223904D01*
X206949523Y-110465809D01*
X206949523Y-110949619D01*
X207010000Y-111070571D01*
X207070476Y-111131047D01*
X207191428Y-111191523D01*
X207433333Y-111191523D01*
X207554285Y-111131047D01*
X207614761Y-111070571D01*
X207675238Y-110949619D01*
X207675238Y-110647238D01*
X207614761Y-110526285D01*
X207554285Y-110465809D01*
X207433333Y-110405333D01*
X207191428Y-110405333D01*
X207070476Y-110465809D01*
X207010000Y-110526285D01*
X206949523Y-110647238D01*
%TO.C,IC4*%
X215077523Y-100045761D02*
X213807523Y-100045761D01*
X214956571Y-98715285D02*
X215017047Y-98775761D01*
X215077523Y-98957190D01*
X215077523Y-99078142D01*
X215017047Y-99259571D01*
X214896095Y-99380523D01*
X214775142Y-99441000D01*
X214533238Y-99501476D01*
X214351809Y-99501476D01*
X214109904Y-99441000D01*
X213988952Y-99380523D01*
X213868000Y-99259571D01*
X213807523Y-99078142D01*
X213807523Y-98957190D01*
X213868000Y-98775761D01*
X213928476Y-98715285D01*
X214230857Y-97626714D02*
X215077523Y-97626714D01*
X213747047Y-97929095D02*
X214654190Y-98231476D01*
X214654190Y-97445285D01*
%TO.C,J8*%
D10*
X215142380Y-104473333D02*
X215856666Y-104473333D01*
X215999523Y-104520952D01*
X216094761Y-104616190D01*
X216142380Y-104759047D01*
X216142380Y-104854285D01*
X215570952Y-103854285D02*
X215523333Y-103949523D01*
X215475714Y-103997142D01*
X215380476Y-104044761D01*
X215332857Y-104044761D01*
X215237619Y-103997142D01*
X215190000Y-103949523D01*
X215142380Y-103854285D01*
X215142380Y-103663809D01*
X215190000Y-103568571D01*
X215237619Y-103520952D01*
X215332857Y-103473333D01*
X215380476Y-103473333D01*
X215475714Y-103520952D01*
X215523333Y-103568571D01*
X215570952Y-103663809D01*
X215570952Y-103854285D01*
X215618571Y-103949523D01*
X215666190Y-103997142D01*
X215761428Y-104044761D01*
X215951904Y-104044761D01*
X216047142Y-103997142D01*
X216094761Y-103949523D01*
X216142380Y-103854285D01*
X216142380Y-103663809D01*
X216094761Y-103568571D01*
X216047142Y-103520952D01*
X215951904Y-103473333D01*
X215761428Y-103473333D01*
X215666190Y-103520952D01*
X215618571Y-103568571D01*
X215570952Y-103663809D01*
%TO.C,J6*%
X220940380Y-118062333D02*
X221654666Y-118062333D01*
X221797523Y-118109952D01*
X221892761Y-118205190D01*
X221940380Y-118348047D01*
X221940380Y-118443285D01*
X220940380Y-117157571D02*
X220940380Y-117348047D01*
X220988000Y-117443285D01*
X221035619Y-117490904D01*
X221178476Y-117586142D01*
X221368952Y-117633761D01*
X221749904Y-117633761D01*
X221845142Y-117586142D01*
X221892761Y-117538523D01*
X221940380Y-117443285D01*
X221940380Y-117252809D01*
X221892761Y-117157571D01*
X221845142Y-117109952D01*
X221749904Y-117062333D01*
X221511809Y-117062333D01*
X221416571Y-117109952D01*
X221368952Y-117157571D01*
X221321333Y-117252809D01*
X221321333Y-117443285D01*
X221368952Y-117538523D01*
X221416571Y-117586142D01*
X221511809Y-117633761D01*
%TO.C,R7*%
X229298380Y-109132666D02*
X228822190Y-109466000D01*
X229298380Y-109704095D02*
X228298380Y-109704095D01*
X228298380Y-109323142D01*
X228346000Y-109227904D01*
X228393619Y-109180285D01*
X228488857Y-109132666D01*
X228631714Y-109132666D01*
X228726952Y-109180285D01*
X228774571Y-109227904D01*
X228822190Y-109323142D01*
X228822190Y-109704095D01*
X228298380Y-108799333D02*
X228298380Y-108132666D01*
X229298380Y-108561238D01*
%TO.C,R9*%
X232751333Y-89487380D02*
X232418000Y-89011190D01*
X232179904Y-89487380D02*
X232179904Y-88487380D01*
X232560857Y-88487380D01*
X232656095Y-88535000D01*
X232703714Y-88582619D01*
X232751333Y-88677857D01*
X232751333Y-88820714D01*
X232703714Y-88915952D01*
X232656095Y-88963571D01*
X232560857Y-89011190D01*
X232179904Y-89011190D01*
X233227523Y-89487380D02*
X233418000Y-89487380D01*
X233513238Y-89439761D01*
X233560857Y-89392142D01*
X233656095Y-89249285D01*
X233703714Y-89058809D01*
X233703714Y-88677857D01*
X233656095Y-88582619D01*
X233608476Y-88535000D01*
X233513238Y-88487380D01*
X233322761Y-88487380D01*
X233227523Y-88535000D01*
X233179904Y-88582619D01*
X233132285Y-88677857D01*
X233132285Y-88915952D01*
X233179904Y-89011190D01*
X233227523Y-89058809D01*
X233322761Y-89106428D01*
X233513238Y-89106428D01*
X233608476Y-89058809D01*
X233656095Y-89011190D01*
X233703714Y-88915952D01*
%TO.C,R8*%
X241133333Y-100901380D02*
X240800000Y-100425190D01*
X240561904Y-100901380D02*
X240561904Y-99901380D01*
X240942857Y-99901380D01*
X241038095Y-99949000D01*
X241085714Y-99996619D01*
X241133333Y-100091857D01*
X241133333Y-100234714D01*
X241085714Y-100329952D01*
X241038095Y-100377571D01*
X240942857Y-100425190D01*
X240561904Y-100425190D01*
X241704761Y-100329952D02*
X241609523Y-100282333D01*
X241561904Y-100234714D01*
X241514285Y-100139476D01*
X241514285Y-100091857D01*
X241561904Y-99996619D01*
X241609523Y-99949000D01*
X241704761Y-99901380D01*
X241895238Y-99901380D01*
X241990476Y-99949000D01*
X242038095Y-99996619D01*
X242085714Y-100091857D01*
X242085714Y-100139476D01*
X242038095Y-100234714D01*
X241990476Y-100282333D01*
X241895238Y-100329952D01*
X241704761Y-100329952D01*
X241609523Y-100377571D01*
X241561904Y-100425190D01*
X241514285Y-100520428D01*
X241514285Y-100710904D01*
X241561904Y-100806142D01*
X241609523Y-100853761D01*
X241704761Y-100901380D01*
X241895238Y-100901380D01*
X241990476Y-100853761D01*
X242038095Y-100806142D01*
X242085714Y-100710904D01*
X242085714Y-100520428D01*
X242038095Y-100425190D01*
X241990476Y-100377571D01*
X241895238Y-100329952D01*
%TO.C,R6*%
X233497380Y-107989666D02*
X233021190Y-108323000D01*
X233497380Y-108561095D02*
X232497380Y-108561095D01*
X232497380Y-108180142D01*
X232545000Y-108084904D01*
X232592619Y-108037285D01*
X232687857Y-107989666D01*
X232830714Y-107989666D01*
X232925952Y-108037285D01*
X232973571Y-108084904D01*
X233021190Y-108180142D01*
X233021190Y-108561095D01*
X232497380Y-107132523D02*
X232497380Y-107323000D01*
X232545000Y-107418238D01*
X232592619Y-107465857D01*
X232735476Y-107561095D01*
X232925952Y-107608714D01*
X233306904Y-107608714D01*
X233402142Y-107561095D01*
X233449761Y-107513476D01*
X233497380Y-107418238D01*
X233497380Y-107227761D01*
X233449761Y-107132523D01*
X233402142Y-107084904D01*
X233306904Y-107037285D01*
X233068809Y-107037285D01*
X232973571Y-107084904D01*
X232925952Y-107132523D01*
X232878333Y-107227761D01*
X232878333Y-107418238D01*
X232925952Y-107513476D01*
X232973571Y-107561095D01*
X233068809Y-107608714D01*
%TO.C,R5*%
X236354880Y-105957666D02*
X235878690Y-106291000D01*
X236354880Y-106529095D02*
X235354880Y-106529095D01*
X235354880Y-106148142D01*
X235402500Y-106052904D01*
X235450119Y-106005285D01*
X235545357Y-105957666D01*
X235688214Y-105957666D01*
X235783452Y-106005285D01*
X235831071Y-106052904D01*
X235878690Y-106148142D01*
X235878690Y-106529095D01*
X235354880Y-105052904D02*
X235354880Y-105529095D01*
X235831071Y-105576714D01*
X235783452Y-105529095D01*
X235735833Y-105433857D01*
X235735833Y-105195761D01*
X235783452Y-105100523D01*
X235831071Y-105052904D01*
X235926309Y-105005285D01*
X236164404Y-105005285D01*
X236259642Y-105052904D01*
X236307261Y-105100523D01*
X236354880Y-105195761D01*
X236354880Y-105433857D01*
X236307261Y-105529095D01*
X236259642Y-105576714D01*
%TO.C,R4*%
X233878380Y-109894666D02*
X233402190Y-110228000D01*
X233878380Y-110466095D02*
X232878380Y-110466095D01*
X232878380Y-110085142D01*
X232926000Y-109989904D01*
X232973619Y-109942285D01*
X233068857Y-109894666D01*
X233211714Y-109894666D01*
X233306952Y-109942285D01*
X233354571Y-109989904D01*
X233402190Y-110085142D01*
X233402190Y-110466095D01*
X233211714Y-109037523D02*
X233878380Y-109037523D01*
X232830761Y-109275619D02*
X233545047Y-109513714D01*
X233545047Y-108894666D01*
%TO.C,R3*%
X230195380Y-99353666D02*
X229719190Y-99687000D01*
X230195380Y-99925095D02*
X229195380Y-99925095D01*
X229195380Y-99544142D01*
X229243000Y-99448904D01*
X229290619Y-99401285D01*
X229385857Y-99353666D01*
X229528714Y-99353666D01*
X229623952Y-99401285D01*
X229671571Y-99448904D01*
X229719190Y-99544142D01*
X229719190Y-99925095D01*
X229195380Y-99020333D02*
X229195380Y-98401285D01*
X229576333Y-98734619D01*
X229576333Y-98591761D01*
X229623952Y-98496523D01*
X229671571Y-98448904D01*
X229766809Y-98401285D01*
X230004904Y-98401285D01*
X230100142Y-98448904D01*
X230147761Y-98496523D01*
X230195380Y-98591761D01*
X230195380Y-98877476D01*
X230147761Y-98972714D01*
X230100142Y-99020333D01*
%TO.C,R2*%
X198842333Y-99385380D02*
X198509000Y-98909190D01*
X198270904Y-99385380D02*
X198270904Y-98385380D01*
X198651857Y-98385380D01*
X198747095Y-98433000D01*
X198794714Y-98480619D01*
X198842333Y-98575857D01*
X198842333Y-98718714D01*
X198794714Y-98813952D01*
X198747095Y-98861571D01*
X198651857Y-98909190D01*
X198270904Y-98909190D01*
X199223285Y-98480619D02*
X199270904Y-98433000D01*
X199366142Y-98385380D01*
X199604238Y-98385380D01*
X199699476Y-98433000D01*
X199747095Y-98480619D01*
X199794714Y-98575857D01*
X199794714Y-98671095D01*
X199747095Y-98813952D01*
X199175666Y-99385380D01*
X199794714Y-99385380D01*
%TO.C,R1*%
X234386380Y-99226666D02*
X233910190Y-99560000D01*
X234386380Y-99798095D02*
X233386380Y-99798095D01*
X233386380Y-99417142D01*
X233434000Y-99321904D01*
X233481619Y-99274285D01*
X233576857Y-99226666D01*
X233719714Y-99226666D01*
X233814952Y-99274285D01*
X233862571Y-99321904D01*
X233910190Y-99417142D01*
X233910190Y-99798095D01*
X234386380Y-98274285D02*
X234386380Y-98845714D01*
X234386380Y-98560000D02*
X233386380Y-98560000D01*
X233529238Y-98655238D01*
X233624476Y-98750476D01*
X233672095Y-98845714D01*
%TO.C,Q1*%
D15*
X236407476Y-84829952D02*
X236347000Y-84950904D01*
X236226047Y-85071857D01*
X236044619Y-85253285D01*
X235984142Y-85374238D01*
X235984142Y-85495190D01*
X236286523Y-85434714D02*
X236226047Y-85555666D01*
X236105095Y-85676619D01*
X235863190Y-85737095D01*
X235439857Y-85737095D01*
X235197952Y-85676619D01*
X235077000Y-85555666D01*
X235016523Y-85434714D01*
X235016523Y-85192809D01*
X235077000Y-85071857D01*
X235197952Y-84950904D01*
X235439857Y-84890428D01*
X235863190Y-84890428D01*
X236105095Y-84950904D01*
X236226047Y-85071857D01*
X236286523Y-85192809D01*
X236286523Y-85434714D01*
X236286523Y-83680904D02*
X236286523Y-84406619D01*
X236286523Y-84043761D02*
X235016523Y-84043761D01*
X235197952Y-84164714D01*
X235318904Y-84285666D01*
X235379380Y-84406619D01*
%TO.C,JP1*%
D10*
X231830666Y-90003380D02*
X231830666Y-90717666D01*
X231783047Y-90860523D01*
X231687809Y-90955761D01*
X231544952Y-91003380D01*
X231449714Y-91003380D01*
X232306857Y-91003380D02*
X232306857Y-90003380D01*
X232687809Y-90003380D01*
X232783047Y-90051000D01*
X232830666Y-90098619D01*
X232878285Y-90193857D01*
X232878285Y-90336714D01*
X232830666Y-90431952D01*
X232783047Y-90479571D01*
X232687809Y-90527190D01*
X232306857Y-90527190D01*
X233830666Y-91003380D02*
X233259238Y-91003380D01*
X233544952Y-91003380D02*
X233544952Y-90003380D01*
X233449714Y-90146238D01*
X233354476Y-90241476D01*
X233259238Y-90289095D01*
%TO.C,J5*%
X220051380Y-116157333D02*
X220765666Y-116157333D01*
X220908523Y-116204952D01*
X221003761Y-116300190D01*
X221051380Y-116443047D01*
X221051380Y-116538285D01*
X220051380Y-115204952D02*
X220051380Y-115681142D01*
X220527571Y-115728761D01*
X220479952Y-115681142D01*
X220432333Y-115585904D01*
X220432333Y-115347809D01*
X220479952Y-115252571D01*
X220527571Y-115204952D01*
X220622809Y-115157333D01*
X220860904Y-115157333D01*
X220956142Y-115204952D01*
X221003761Y-115252571D01*
X221051380Y-115347809D01*
X221051380Y-115585904D01*
X221003761Y-115681142D01*
X220956142Y-115728761D01*
%TO.C,J4*%
X225726666Y-113542380D02*
X225726666Y-114256666D01*
X225679047Y-114399523D01*
X225583809Y-114494761D01*
X225440952Y-114542380D01*
X225345714Y-114542380D01*
X226631428Y-113875714D02*
X226631428Y-114542380D01*
X226393333Y-113494761D02*
X226155238Y-114209047D01*
X226774285Y-114209047D01*
%TO.C,J2*%
X244268666Y-98595380D02*
X244268666Y-99309666D01*
X244221047Y-99452523D01*
X244125809Y-99547761D01*
X243982952Y-99595380D01*
X243887714Y-99595380D01*
X244697238Y-98690619D02*
X244744857Y-98643000D01*
X244840095Y-98595380D01*
X245078190Y-98595380D01*
X245173428Y-98643000D01*
X245221047Y-98690619D01*
X245268666Y-98785857D01*
X245268666Y-98881095D01*
X245221047Y-99023952D01*
X244649619Y-99595380D01*
X245268666Y-99595380D01*
%TO.C,J1*%
X220773666Y-106132380D02*
X220773666Y-106846666D01*
X220726047Y-106989523D01*
X220630809Y-107084761D01*
X220487952Y-107132380D01*
X220392714Y-107132380D01*
X221773666Y-107132380D02*
X221202238Y-107132380D01*
X221487952Y-107132380D02*
X221487952Y-106132380D01*
X221392714Y-106275238D01*
X221297476Y-106370476D01*
X221202238Y-106418095D01*
%TO.C,IC8*%
D15*
X242981238Y-115763523D02*
X242981238Y-114493523D01*
X244311714Y-115642571D02*
X244251238Y-115703047D01*
X244069809Y-115763523D01*
X243948857Y-115763523D01*
X243767428Y-115703047D01*
X243646476Y-115582095D01*
X243586000Y-115461142D01*
X243525523Y-115219238D01*
X243525523Y-115037809D01*
X243586000Y-114795904D01*
X243646476Y-114674952D01*
X243767428Y-114554000D01*
X243948857Y-114493523D01*
X244069809Y-114493523D01*
X244251238Y-114554000D01*
X244311714Y-114614476D01*
X245037428Y-115037809D02*
X244916476Y-114977333D01*
X244856000Y-114916857D01*
X244795523Y-114795904D01*
X244795523Y-114735428D01*
X244856000Y-114614476D01*
X244916476Y-114554000D01*
X245037428Y-114493523D01*
X245279333Y-114493523D01*
X245400285Y-114554000D01*
X245460761Y-114614476D01*
X245521238Y-114735428D01*
X245521238Y-114795904D01*
X245460761Y-114916857D01*
X245400285Y-114977333D01*
X245279333Y-115037809D01*
X245037428Y-115037809D01*
X244916476Y-115098285D01*
X244856000Y-115158761D01*
X244795523Y-115279714D01*
X244795523Y-115521619D01*
X244856000Y-115642571D01*
X244916476Y-115703047D01*
X245037428Y-115763523D01*
X245279333Y-115763523D01*
X245400285Y-115703047D01*
X245460761Y-115642571D01*
X245521238Y-115521619D01*
X245521238Y-115279714D01*
X245460761Y-115158761D01*
X245400285Y-115098285D01*
X245279333Y-115037809D01*
%TO.C,IC7*%
X237931523Y-107157761D02*
X236661523Y-107157761D01*
X237810571Y-105827285D02*
X237871047Y-105887761D01*
X237931523Y-106069190D01*
X237931523Y-106190142D01*
X237871047Y-106371571D01*
X237750095Y-106492523D01*
X237629142Y-106553000D01*
X237387238Y-106613476D01*
X237205809Y-106613476D01*
X236963904Y-106553000D01*
X236842952Y-106492523D01*
X236722000Y-106371571D01*
X236661523Y-106190142D01*
X236661523Y-106069190D01*
X236722000Y-105887761D01*
X236782476Y-105827285D01*
X236661523Y-105403952D02*
X236661523Y-104557285D01*
X237931523Y-105101571D01*
%TO.C,IC5*%
X229682523Y-105125761D02*
X228412523Y-105125761D01*
X229561571Y-103795285D02*
X229622047Y-103855761D01*
X229682523Y-104037190D01*
X229682523Y-104158142D01*
X229622047Y-104339571D01*
X229501095Y-104460523D01*
X229380142Y-104521000D01*
X229138238Y-104581476D01*
X228956809Y-104581476D01*
X228714904Y-104521000D01*
X228593952Y-104460523D01*
X228473000Y-104339571D01*
X228412523Y-104158142D01*
X228412523Y-104037190D01*
X228473000Y-103855761D01*
X228533476Y-103795285D01*
X228412523Y-102646238D02*
X228412523Y-103251000D01*
X229017285Y-103311476D01*
X228956809Y-103251000D01*
X228896333Y-103130047D01*
X228896333Y-102827666D01*
X228956809Y-102706714D01*
X229017285Y-102646238D01*
X229138238Y-102585761D01*
X229440619Y-102585761D01*
X229561571Y-102646238D01*
X229622047Y-102706714D01*
X229682523Y-102827666D01*
X229682523Y-103130047D01*
X229622047Y-103251000D01*
X229561571Y-103311476D01*
%TO.C,IC3*%
X242001523Y-91663761D02*
X240731523Y-91663761D01*
X241880571Y-90333285D02*
X241941047Y-90393761D01*
X242001523Y-90575190D01*
X242001523Y-90696142D01*
X241941047Y-90877571D01*
X241820095Y-90998523D01*
X241699142Y-91059000D01*
X241457238Y-91119476D01*
X241275809Y-91119476D01*
X241033904Y-91059000D01*
X240912952Y-90998523D01*
X240792000Y-90877571D01*
X240731523Y-90696142D01*
X240731523Y-90575190D01*
X240792000Y-90393761D01*
X240852476Y-90333285D01*
X240731523Y-89909952D02*
X240731523Y-89123761D01*
X241215333Y-89547095D01*
X241215333Y-89365666D01*
X241275809Y-89244714D01*
X241336285Y-89184238D01*
X241457238Y-89123761D01*
X241759619Y-89123761D01*
X241880571Y-89184238D01*
X241941047Y-89244714D01*
X242001523Y-89365666D01*
X242001523Y-89728523D01*
X241941047Y-89849476D01*
X241880571Y-89909952D01*
%TO.C,IC2*%
X234599238Y-93538523D02*
X234599238Y-92268523D01*
X235929714Y-93417571D02*
X235869238Y-93478047D01*
X235687809Y-93538523D01*
X235566857Y-93538523D01*
X235385428Y-93478047D01*
X235264476Y-93357095D01*
X235204000Y-93236142D01*
X235143523Y-92994238D01*
X235143523Y-92812809D01*
X235204000Y-92570904D01*
X235264476Y-92449952D01*
X235385428Y-92329000D01*
X235566857Y-92268523D01*
X235687809Y-92268523D01*
X235869238Y-92329000D01*
X235929714Y-92389476D01*
X236413523Y-92389476D02*
X236474000Y-92329000D01*
X236594952Y-92268523D01*
X236897333Y-92268523D01*
X237018285Y-92329000D01*
X237078761Y-92389476D01*
X237139238Y-92510428D01*
X237139238Y-92631380D01*
X237078761Y-92812809D01*
X236353047Y-93538523D01*
X237139238Y-93538523D01*
%TO.C,IC1*%
X215422238Y-114620523D02*
X215422238Y-113350523D01*
X216752714Y-114499571D02*
X216692238Y-114560047D01*
X216510809Y-114620523D01*
X216389857Y-114620523D01*
X216208428Y-114560047D01*
X216087476Y-114439095D01*
X216027000Y-114318142D01*
X215966523Y-114076238D01*
X215966523Y-113894809D01*
X216027000Y-113652904D01*
X216087476Y-113531952D01*
X216208428Y-113411000D01*
X216389857Y-113350523D01*
X216510809Y-113350523D01*
X216692238Y-113411000D01*
X216752714Y-113471476D01*
X217962238Y-114620523D02*
X217236523Y-114620523D01*
X217599380Y-114620523D02*
X217599380Y-113350523D01*
X217478428Y-113531952D01*
X217357476Y-113652904D01*
X217236523Y-113713380D01*
%TO.C,D1*%
D10*
X198270904Y-100909380D02*
X198270904Y-99909380D01*
X198509000Y-99909380D01*
X198651857Y-99957000D01*
X198747095Y-100052238D01*
X198794714Y-100147476D01*
X198842333Y-100337952D01*
X198842333Y-100480809D01*
X198794714Y-100671285D01*
X198747095Y-100766523D01*
X198651857Y-100861761D01*
X198509000Y-100909380D01*
X198270904Y-100909380D01*
X199794714Y-100909380D02*
X199223285Y-100909380D01*
X199509000Y-100909380D02*
X199509000Y-99909380D01*
X199413761Y-100052238D01*
X199318523Y-100147476D01*
X199223285Y-100195095D01*
%TO.C,C11*%
D15*
X225243571Y-120341571D02*
X225183095Y-120402047D01*
X225001666Y-120462523D01*
X224880714Y-120462523D01*
X224699285Y-120402047D01*
X224578333Y-120281095D01*
X224517857Y-120160142D01*
X224457380Y-119918238D01*
X224457380Y-119736809D01*
X224517857Y-119494904D01*
X224578333Y-119373952D01*
X224699285Y-119253000D01*
X224880714Y-119192523D01*
X225001666Y-119192523D01*
X225183095Y-119253000D01*
X225243571Y-119313476D01*
X226453095Y-120462523D02*
X225727380Y-120462523D01*
X226090238Y-120462523D02*
X226090238Y-119192523D01*
X225969285Y-119373952D01*
X225848333Y-119494904D01*
X225727380Y-119555380D01*
X227662619Y-120462523D02*
X226936904Y-120462523D01*
X227299761Y-120462523D02*
X227299761Y-119192523D01*
X227178809Y-119373952D01*
X227057857Y-119494904D01*
X226936904Y-119555380D01*
%TO.C,C10*%
X229053571Y-112467571D02*
X228993095Y-112528047D01*
X228811666Y-112588523D01*
X228690714Y-112588523D01*
X228509285Y-112528047D01*
X228388333Y-112407095D01*
X228327857Y-112286142D01*
X228267380Y-112044238D01*
X228267380Y-111862809D01*
X228327857Y-111620904D01*
X228388333Y-111499952D01*
X228509285Y-111379000D01*
X228690714Y-111318523D01*
X228811666Y-111318523D01*
X228993095Y-111379000D01*
X229053571Y-111439476D01*
X230263095Y-112588523D02*
X229537380Y-112588523D01*
X229900238Y-112588523D02*
X229900238Y-111318523D01*
X229779285Y-111499952D01*
X229658333Y-111620904D01*
X229537380Y-111681380D01*
X231049285Y-111318523D02*
X231170238Y-111318523D01*
X231291190Y-111379000D01*
X231351666Y-111439476D01*
X231412142Y-111560428D01*
X231472619Y-111802333D01*
X231472619Y-112104714D01*
X231412142Y-112346619D01*
X231351666Y-112467571D01*
X231291190Y-112528047D01*
X231170238Y-112588523D01*
X231049285Y-112588523D01*
X230928333Y-112528047D01*
X230867857Y-112467571D01*
X230807380Y-112346619D01*
X230746904Y-112104714D01*
X230746904Y-111802333D01*
X230807380Y-111560428D01*
X230867857Y-111439476D01*
X230928333Y-111379000D01*
X231049285Y-111318523D01*
%TO.C,C9*%
X235784571Y-111463666D02*
X235845047Y-111524142D01*
X235905523Y-111705571D01*
X235905523Y-111826523D01*
X235845047Y-112007952D01*
X235724095Y-112128904D01*
X235603142Y-112189380D01*
X235361238Y-112249857D01*
X235179809Y-112249857D01*
X234937904Y-112189380D01*
X234816952Y-112128904D01*
X234696000Y-112007952D01*
X234635523Y-111826523D01*
X234635523Y-111705571D01*
X234696000Y-111524142D01*
X234756476Y-111463666D01*
X235905523Y-110858904D02*
X235905523Y-110617000D01*
X235845047Y-110496047D01*
X235784571Y-110435571D01*
X235603142Y-110314619D01*
X235361238Y-110254142D01*
X234877428Y-110254142D01*
X234756476Y-110314619D01*
X234696000Y-110375095D01*
X234635523Y-110496047D01*
X234635523Y-110737952D01*
X234696000Y-110858904D01*
X234756476Y-110919380D01*
X234877428Y-110979857D01*
X235179809Y-110979857D01*
X235300761Y-110919380D01*
X235361238Y-110858904D01*
X235421714Y-110737952D01*
X235421714Y-110496047D01*
X235361238Y-110375095D01*
X235300761Y-110314619D01*
X235179809Y-110254142D01*
%TO.C,C8*%
X241245571Y-110574666D02*
X241306047Y-110635142D01*
X241366523Y-110816571D01*
X241366523Y-110937523D01*
X241306047Y-111118952D01*
X241185095Y-111239904D01*
X241064142Y-111300380D01*
X240822238Y-111360857D01*
X240640809Y-111360857D01*
X240398904Y-111300380D01*
X240277952Y-111239904D01*
X240157000Y-111118952D01*
X240096523Y-110937523D01*
X240096523Y-110816571D01*
X240157000Y-110635142D01*
X240217476Y-110574666D01*
X240640809Y-109848952D02*
X240580333Y-109969904D01*
X240519857Y-110030380D01*
X240398904Y-110090857D01*
X240338428Y-110090857D01*
X240217476Y-110030380D01*
X240157000Y-109969904D01*
X240096523Y-109848952D01*
X240096523Y-109607047D01*
X240157000Y-109486095D01*
X240217476Y-109425619D01*
X240338428Y-109365142D01*
X240398904Y-109365142D01*
X240519857Y-109425619D01*
X240580333Y-109486095D01*
X240640809Y-109607047D01*
X240640809Y-109848952D01*
X240701285Y-109969904D01*
X240761761Y-110030380D01*
X240882714Y-110090857D01*
X241124619Y-110090857D01*
X241245571Y-110030380D01*
X241306047Y-109969904D01*
X241366523Y-109848952D01*
X241366523Y-109607047D01*
X241306047Y-109486095D01*
X241245571Y-109425619D01*
X241124619Y-109365142D01*
X240882714Y-109365142D01*
X240761761Y-109425619D01*
X240701285Y-109486095D01*
X240640809Y-109607047D01*
%TO.C,C7*%
X213178571Y-112860666D02*
X213239047Y-112921142D01*
X213299523Y-113102571D01*
X213299523Y-113223523D01*
X213239047Y-113404952D01*
X213118095Y-113525904D01*
X212997142Y-113586380D01*
X212755238Y-113646857D01*
X212573809Y-113646857D01*
X212331904Y-113586380D01*
X212210952Y-113525904D01*
X212090000Y-113404952D01*
X212029523Y-113223523D01*
X212029523Y-113102571D01*
X212090000Y-112921142D01*
X212150476Y-112860666D01*
X212029523Y-112437333D02*
X212029523Y-111590666D01*
X213299523Y-112134952D01*
%TO.C,C6*%
X238959571Y-98890666D02*
X239020047Y-98951142D01*
X239080523Y-99132571D01*
X239080523Y-99253523D01*
X239020047Y-99434952D01*
X238899095Y-99555904D01*
X238778142Y-99616380D01*
X238536238Y-99676857D01*
X238354809Y-99676857D01*
X238112904Y-99616380D01*
X237991952Y-99555904D01*
X237871000Y-99434952D01*
X237810523Y-99253523D01*
X237810523Y-99132571D01*
X237871000Y-98951142D01*
X237931476Y-98890666D01*
X237810523Y-97802095D02*
X237810523Y-98044000D01*
X237871000Y-98164952D01*
X237931476Y-98225428D01*
X238112904Y-98346380D01*
X238354809Y-98406857D01*
X238838619Y-98406857D01*
X238959571Y-98346380D01*
X239020047Y-98285904D01*
X239080523Y-98164952D01*
X239080523Y-97923047D01*
X239020047Y-97802095D01*
X238959571Y-97741619D01*
X238838619Y-97681142D01*
X238536238Y-97681142D01*
X238415285Y-97741619D01*
X238354809Y-97802095D01*
X238294333Y-97923047D01*
X238294333Y-98164952D01*
X238354809Y-98285904D01*
X238415285Y-98346380D01*
X238536238Y-98406857D01*
%TO.C,C5*%
X237049571Y-103183666D02*
X237110047Y-103244142D01*
X237170523Y-103425571D01*
X237170523Y-103546523D01*
X237110047Y-103727952D01*
X236989095Y-103848904D01*
X236868142Y-103909380D01*
X236626238Y-103969857D01*
X236444809Y-103969857D01*
X236202904Y-103909380D01*
X236081952Y-103848904D01*
X235961000Y-103727952D01*
X235900523Y-103546523D01*
X235900523Y-103425571D01*
X235961000Y-103244142D01*
X236021476Y-103183666D01*
X235900523Y-102034619D02*
X235900523Y-102639380D01*
X236505285Y-102699857D01*
X236444809Y-102639380D01*
X236384333Y-102518428D01*
X236384333Y-102216047D01*
X236444809Y-102095095D01*
X236505285Y-102034619D01*
X236626238Y-101974142D01*
X236928619Y-101974142D01*
X237049571Y-102034619D01*
X237110047Y-102095095D01*
X237170523Y-102216047D01*
X237170523Y-102518428D01*
X237110047Y-102639380D01*
X237049571Y-102699857D01*
%TO.C,C4*%
X246706571Y-94826666D02*
X246767047Y-94887142D01*
X246827523Y-95068571D01*
X246827523Y-95189523D01*
X246767047Y-95370952D01*
X246646095Y-95491904D01*
X246525142Y-95552380D01*
X246283238Y-95612857D01*
X246101809Y-95612857D01*
X245859904Y-95552380D01*
X245738952Y-95491904D01*
X245618000Y-95370952D01*
X245557523Y-95189523D01*
X245557523Y-95068571D01*
X245618000Y-94887142D01*
X245678476Y-94826666D01*
X245980857Y-93738095D02*
X246827523Y-93738095D01*
X245497047Y-94040476D02*
X246404190Y-94342857D01*
X246404190Y-93556666D01*
%TO.C,C3*%
X231403071Y-96096666D02*
X231463547Y-96157142D01*
X231524023Y-96338571D01*
X231524023Y-96459523D01*
X231463547Y-96640952D01*
X231342595Y-96761904D01*
X231221642Y-96822380D01*
X230979738Y-96882857D01*
X230798309Y-96882857D01*
X230556404Y-96822380D01*
X230435452Y-96761904D01*
X230314500Y-96640952D01*
X230254023Y-96459523D01*
X230254023Y-96338571D01*
X230314500Y-96157142D01*
X230374976Y-96096666D01*
X230254023Y-95673333D02*
X230254023Y-94887142D01*
X230737833Y-95310476D01*
X230737833Y-95129047D01*
X230798309Y-95008095D01*
X230858785Y-94947619D01*
X230979738Y-94887142D01*
X231282119Y-94887142D01*
X231403071Y-94947619D01*
X231463547Y-95008095D01*
X231524023Y-95129047D01*
X231524023Y-95491904D01*
X231463547Y-95612857D01*
X231403071Y-95673333D01*
%TO.C,C2*%
X235754333Y-101286571D02*
X235693857Y-101347047D01*
X235512428Y-101407523D01*
X235391476Y-101407523D01*
X235210047Y-101347047D01*
X235089095Y-101226095D01*
X235028619Y-101105142D01*
X234968142Y-100863238D01*
X234968142Y-100681809D01*
X235028619Y-100439904D01*
X235089095Y-100318952D01*
X235210047Y-100198000D01*
X235391476Y-100137523D01*
X235512428Y-100137523D01*
X235693857Y-100198000D01*
X235754333Y-100258476D01*
X236238142Y-100258476D02*
X236298619Y-100198000D01*
X236419571Y-100137523D01*
X236721952Y-100137523D01*
X236842904Y-100198000D01*
X236903380Y-100258476D01*
X236963857Y-100379428D01*
X236963857Y-100500380D01*
X236903380Y-100681809D01*
X236177666Y-101407523D01*
X236963857Y-101407523D01*
%TO.C,C1*%
X211400571Y-112860666D02*
X211461047Y-112921142D01*
X211521523Y-113102571D01*
X211521523Y-113223523D01*
X211461047Y-113404952D01*
X211340095Y-113525904D01*
X211219142Y-113586380D01*
X210977238Y-113646857D01*
X210795809Y-113646857D01*
X210553904Y-113586380D01*
X210432952Y-113525904D01*
X210312000Y-113404952D01*
X210251523Y-113223523D01*
X210251523Y-113102571D01*
X210312000Y-112921142D01*
X210372476Y-112860666D01*
X211521523Y-111651142D02*
X211521523Y-112376857D01*
X211521523Y-112014000D02*
X210251523Y-112014000D01*
X210432952Y-112134952D01*
X210553904Y-112255904D01*
X210614380Y-112376857D01*
%TD*%
M02*
