%TF.GenerationSoftware,KiCad,Pcbnew,(5.1.12)-1*%
%TF.CreationDate,2022-08-18T02:06:40-04:00*%
%TF.ProjectId,MiniMicro,4d696e69-4d69-4637-926f-2e6b69636164,rev?*%
%TF.SameCoordinates,Original*%
%TF.FileFunction,Soldermask,Top*%
%TF.FilePolarity,Negative*%
%FSLAX46Y46*%
G04 Gerber Fmt 4.6, Leading zero omitted, Abs format (unit mm)*
G04 Created by KiCad (PCBNEW (5.1.12)-1) date 2022-08-18 02:06:40*
%MOMM*%
%LPD*%
G01*
G04 APERTURE LIST*
%ADD10C,6.400000*%
%ADD11R,1.200000X1.200000*%
%ADD12R,2.700000X1.400000*%
%ADD13R,1.500000X2.600000*%
%ADD14R,1.000000X2.600000*%
%ADD15R,0.700000X2.000000*%
%ADD16O,1.700000X1.700000*%
%ADD17R,1.700000X1.700000*%
%ADD18R,0.850000X0.350000*%
%ADD19R,0.650000X1.525000*%
%ADD20R,0.800000X0.650000*%
%ADD21R,0.650000X0.800000*%
%ADD22R,1.000000X1.400000*%
%ADD23C,0.100000*%
%ADD24R,6.150000X5.550000*%
%ADD25R,2.750000X1.000000*%
%ADD26R,0.300000X1.400000*%
%ADD27R,0.250000X0.675000*%
%ADD28R,0.675000X0.250000*%
%ADD29R,0.275000X0.250000*%
%ADD30R,0.250000X0.275000*%
%ADD31C,0.500000*%
%ADD32R,0.800000X0.800000*%
%ADD33R,1.250000X1.800000*%
%ADD34R,0.830000X0.940000*%
%ADD35R,0.940000X0.830000*%
G04 APERTURE END LIST*
D10*
%TO.C,REF\u002A\u002A*%
X202565000Y-85090000D03*
%TD*%
%TO.C,REF\u002A\u002A*%
X243205000Y-85090000D03*
%TD*%
D11*
%TO.C,J3*%
X217727000Y-95477000D03*
D12*
X220777000Y-95377000D03*
X225677000Y-95377000D03*
D13*
X215827000Y-83177000D03*
D14*
X229177000Y-83177000D03*
D15*
X227077000Y-82677000D03*
X225977000Y-82677000D03*
X224877000Y-82677000D03*
X223777000Y-82677000D03*
X222677000Y-82677000D03*
X221577000Y-82677000D03*
X220477000Y-82677000D03*
X219377000Y-82677000D03*
%TD*%
D16*
%TO.C,J7*%
X200660000Y-104140000D03*
X200660000Y-106680000D03*
X200660000Y-109220000D03*
X200660000Y-111760000D03*
X200660000Y-114300000D03*
D17*
X200660000Y-116840000D03*
%TD*%
D18*
%TO.C,IC6*%
X205125000Y-108981000D03*
X205125000Y-107681000D03*
X207325000Y-107681000D03*
X207325000Y-108331000D03*
X207325000Y-108981000D03*
%TD*%
D19*
%TO.C,IC4*%
X203835000Y-95078000D03*
X205105000Y-95078000D03*
X206375000Y-95078000D03*
X207645000Y-95078000D03*
X208915000Y-95078000D03*
X210185000Y-95078000D03*
X211455000Y-95078000D03*
X212725000Y-95078000D03*
X212725000Y-100502000D03*
X211455000Y-100502000D03*
X210185000Y-100502000D03*
X208915000Y-100502000D03*
X207645000Y-100502000D03*
X206375000Y-100502000D03*
X205105000Y-100502000D03*
X203835000Y-100502000D03*
%TD*%
D17*
%TO.C,J8*%
X213360000Y-104140000D03*
D16*
X210820000Y-104140000D03*
X208280000Y-104140000D03*
X205740000Y-104140000D03*
%TD*%
%TO.C,J6*%
X223520000Y-116840000D03*
D17*
X226060000Y-116840000D03*
%TD*%
D20*
%TO.C,R7*%
X230187500Y-108178000D03*
X230187500Y-109728000D03*
%TD*%
D21*
%TO.C,R9*%
X232130000Y-87693500D03*
X233680000Y-87693500D03*
%TD*%
%TO.C,R8*%
X242088000Y-101790500D03*
X240538000Y-101790500D03*
%TD*%
D20*
%TO.C,R6*%
X231711500Y-108178000D03*
X231711500Y-109728000D03*
%TD*%
%TO.C,R5*%
X234632500Y-105003000D03*
X234632500Y-106553000D03*
%TD*%
%TO.C,R4*%
X234632500Y-107797000D03*
X234632500Y-109347000D03*
%TD*%
%TO.C,R3*%
X231076500Y-99848000D03*
X231076500Y-98298000D03*
%TD*%
D21*
%TO.C,R2*%
X200634000Y-98869500D03*
X202184000Y-98869500D03*
%TD*%
D20*
%TO.C,R1*%
X232473500Y-99848000D03*
X232473500Y-98298000D03*
%TD*%
D22*
%TO.C,Q1*%
X232918000Y-83609000D03*
X233868000Y-85809000D03*
X231968000Y-85809000D03*
%TD*%
D23*
%TO.C,JP1*%
G36*
X232014000Y-93078398D02*
G01*
X231989466Y-93078398D01*
X231940635Y-93073588D01*
X231892510Y-93064016D01*
X231845555Y-93049772D01*
X231800222Y-93030995D01*
X231756949Y-93007864D01*
X231716150Y-92980604D01*
X231678221Y-92949476D01*
X231643524Y-92914779D01*
X231612396Y-92876850D01*
X231585136Y-92836051D01*
X231562005Y-92792778D01*
X231543228Y-92747445D01*
X231528984Y-92700490D01*
X231519412Y-92652365D01*
X231514602Y-92603534D01*
X231514602Y-92579000D01*
X231514000Y-92579000D01*
X231514000Y-92079000D01*
X231514602Y-92079000D01*
X231514602Y-92054466D01*
X231519412Y-92005635D01*
X231528984Y-91957510D01*
X231543228Y-91910555D01*
X231562005Y-91865222D01*
X231585136Y-91821949D01*
X231612396Y-91781150D01*
X231643524Y-91743221D01*
X231678221Y-91708524D01*
X231716150Y-91677396D01*
X231756949Y-91650136D01*
X231800222Y-91627005D01*
X231845555Y-91608228D01*
X231892510Y-91593984D01*
X231940635Y-91584412D01*
X231989466Y-91579602D01*
X232014000Y-91579602D01*
X232014000Y-91579000D01*
X232514000Y-91579000D01*
X232514000Y-93079000D01*
X232014000Y-93079000D01*
X232014000Y-93078398D01*
G37*
G36*
X232814000Y-91579000D02*
G01*
X233314000Y-91579000D01*
X233314000Y-91579602D01*
X233338534Y-91579602D01*
X233387365Y-91584412D01*
X233435490Y-91593984D01*
X233482445Y-91608228D01*
X233527778Y-91627005D01*
X233571051Y-91650136D01*
X233611850Y-91677396D01*
X233649779Y-91708524D01*
X233684476Y-91743221D01*
X233715604Y-91781150D01*
X233742864Y-91821949D01*
X233765995Y-91865222D01*
X233784772Y-91910555D01*
X233799016Y-91957510D01*
X233808588Y-92005635D01*
X233813398Y-92054466D01*
X233813398Y-92079000D01*
X233814000Y-92079000D01*
X233814000Y-92579000D01*
X233813398Y-92579000D01*
X233813398Y-92603534D01*
X233808588Y-92652365D01*
X233799016Y-92700490D01*
X233784772Y-92747445D01*
X233765995Y-92792778D01*
X233742864Y-92836051D01*
X233715604Y-92876850D01*
X233684476Y-92914779D01*
X233649779Y-92949476D01*
X233611850Y-92980604D01*
X233571051Y-93007864D01*
X233527778Y-93030995D01*
X233482445Y-93049772D01*
X233435490Y-93064016D01*
X233387365Y-93073588D01*
X233338534Y-93078398D01*
X233314000Y-93078398D01*
X233314000Y-93079000D01*
X232814000Y-93079000D01*
X232814000Y-91579000D01*
G37*
%TD*%
D16*
%TO.C,J5*%
X205740000Y-116840000D03*
X208280000Y-116840000D03*
X210820000Y-116840000D03*
X213360000Y-116840000D03*
X215900000Y-116840000D03*
D17*
X218440000Y-116840000D03*
%TD*%
D16*
%TO.C,J4*%
X226060000Y-99060000D03*
X226060000Y-101600000D03*
X226060000Y-104140000D03*
X226060000Y-106680000D03*
X226060000Y-109220000D03*
D17*
X226060000Y-111760000D03*
%TD*%
D16*
%TO.C,J2*%
X244602000Y-111633000D03*
X244602000Y-109093000D03*
X244602000Y-106553000D03*
X244602000Y-104013000D03*
D17*
X244602000Y-101473000D03*
%TD*%
D16*
%TO.C,J1*%
X220980000Y-104140000D03*
X218440000Y-104140000D03*
X220980000Y-101600000D03*
X218440000Y-101600000D03*
X220980000Y-99060000D03*
D17*
X218440000Y-99060000D03*
%TD*%
D24*
%TO.C,IC8*%
X239165000Y-116840000D03*
D25*
X232465000Y-119130000D03*
X232465000Y-114550000D03*
%TD*%
D26*
%TO.C,IC7*%
X239157000Y-103718000D03*
X239657000Y-103718000D03*
X240157000Y-103718000D03*
X240657000Y-103718000D03*
X241157000Y-103718000D03*
X241157000Y-108118000D03*
X240657000Y-108118000D03*
X240157000Y-108118000D03*
X239657000Y-108118000D03*
X239157000Y-108118000D03*
%TD*%
%TO.C,IC5*%
G36*
G01*
X232804000Y-106316600D02*
X232804000Y-105305400D01*
G75*
G02*
X232848400Y-105261000I44400J0D01*
G01*
X233159600Y-105261000D01*
G75*
G02*
X233204000Y-105305400I0J-44400D01*
G01*
X233204000Y-106316600D01*
G75*
G02*
X233159600Y-106361000I-44400J0D01*
G01*
X232848400Y-106361000D01*
G75*
G02*
X232804000Y-106316600I0J44400D01*
G01*
G37*
G36*
G01*
X232154000Y-106316600D02*
X232154000Y-105305400D01*
G75*
G02*
X232198400Y-105261000I44400J0D01*
G01*
X232509600Y-105261000D01*
G75*
G02*
X232554000Y-105305400I0J-44400D01*
G01*
X232554000Y-106316600D01*
G75*
G02*
X232509600Y-106361000I-44400J0D01*
G01*
X232198400Y-106361000D01*
G75*
G02*
X232154000Y-106316600I0J44400D01*
G01*
G37*
G36*
G01*
X231504000Y-106316600D02*
X231504000Y-105305400D01*
G75*
G02*
X231548400Y-105261000I44400J0D01*
G01*
X231859600Y-105261000D01*
G75*
G02*
X231904000Y-105305400I0J-44400D01*
G01*
X231904000Y-106316600D01*
G75*
G02*
X231859600Y-106361000I-44400J0D01*
G01*
X231548400Y-106361000D01*
G75*
G02*
X231504000Y-106316600I0J44400D01*
G01*
G37*
G36*
G01*
X230854000Y-106316600D02*
X230854000Y-105305400D01*
G75*
G02*
X230898400Y-105261000I44400J0D01*
G01*
X231209600Y-105261000D01*
G75*
G02*
X231254000Y-105305400I0J-44400D01*
G01*
X231254000Y-106316600D01*
G75*
G02*
X231209600Y-106361000I-44400J0D01*
G01*
X230898400Y-106361000D01*
G75*
G02*
X230854000Y-106316600I0J44400D01*
G01*
G37*
G36*
G01*
X230854000Y-102466600D02*
X230854000Y-101455400D01*
G75*
G02*
X230898400Y-101411000I44400J0D01*
G01*
X231209600Y-101411000D01*
G75*
G02*
X231254000Y-101455400I0J-44400D01*
G01*
X231254000Y-102466600D01*
G75*
G02*
X231209600Y-102511000I-44400J0D01*
G01*
X230898400Y-102511000D01*
G75*
G02*
X230854000Y-102466600I0J44400D01*
G01*
G37*
G36*
G01*
X231504000Y-102466600D02*
X231504000Y-101455400D01*
G75*
G02*
X231548400Y-101411000I44400J0D01*
G01*
X231859600Y-101411000D01*
G75*
G02*
X231904000Y-101455400I0J-44400D01*
G01*
X231904000Y-102466600D01*
G75*
G02*
X231859600Y-102511000I-44400J0D01*
G01*
X231548400Y-102511000D01*
G75*
G02*
X231504000Y-102466600I0J44400D01*
G01*
G37*
G36*
G01*
X232154000Y-102466600D02*
X232154000Y-101455400D01*
G75*
G02*
X232198400Y-101411000I44400J0D01*
G01*
X232509600Y-101411000D01*
G75*
G02*
X232554000Y-101455400I0J-44400D01*
G01*
X232554000Y-102466600D01*
G75*
G02*
X232509600Y-102511000I-44400J0D01*
G01*
X232198400Y-102511000D01*
G75*
G02*
X232154000Y-102466600I0J44400D01*
G01*
G37*
G36*
G01*
X232804000Y-102466600D02*
X232804000Y-101455400D01*
G75*
G02*
X232848400Y-101411000I44400J0D01*
G01*
X233159600Y-101411000D01*
G75*
G02*
X233204000Y-101455400I0J-44400D01*
G01*
X233204000Y-102466600D01*
G75*
G02*
X233159600Y-102511000I-44400J0D01*
G01*
X232848400Y-102511000D01*
G75*
G02*
X232804000Y-102466600I0J44400D01*
G01*
G37*
%TD*%
D27*
%TO.C,IC3*%
X241427000Y-93335000D03*
D28*
X240262000Y-93750000D03*
X240262000Y-94250000D03*
X240262000Y-94750000D03*
X240262000Y-95250000D03*
X240262000Y-95750000D03*
X240262000Y-96250000D03*
X240262000Y-96750000D03*
D27*
X241427000Y-97165000D03*
D28*
X242592000Y-96750000D03*
X242592000Y-96250000D03*
X242592000Y-95750000D03*
X242592000Y-95250000D03*
X242592000Y-94750000D03*
X242592000Y-94250000D03*
X242592000Y-93750000D03*
%TD*%
D29*
%TO.C,IC2*%
X234696000Y-96385000D03*
X234696000Y-95885000D03*
X234696000Y-95385000D03*
D30*
X235208000Y-95122000D03*
X235708000Y-95122000D03*
D29*
X236220000Y-95385000D03*
X236220000Y-95885000D03*
X236220000Y-96385000D03*
D30*
X235708000Y-96648000D03*
X235208000Y-96648000D03*
%TD*%
D31*
%TO.C,IC1*%
X215662000Y-110855000D03*
X216662000Y-110855000D03*
X217662000Y-110855000D03*
X217662000Y-109855000D03*
X217662000Y-108855000D03*
X216662000Y-108855000D03*
X215662000Y-108855000D03*
X215662000Y-109855000D03*
G36*
G01*
X215032000Y-108755000D02*
X214292000Y-108755000D01*
G75*
G02*
X214262000Y-108725000I0J30000D01*
G01*
X214262000Y-108485000D01*
G75*
G02*
X214292000Y-108455000I30000J0D01*
G01*
X215032000Y-108455000D01*
G75*
G02*
X215062000Y-108485000I0J-30000D01*
G01*
X215062000Y-108725000D01*
G75*
G02*
X215032000Y-108755000I-30000J0D01*
G01*
G37*
G36*
G01*
X214912000Y-109255000D02*
X214412000Y-109255000D01*
G75*
G02*
X214262000Y-109105000I0J150000D01*
G01*
X214262000Y-109105000D01*
G75*
G02*
X214412000Y-108955000I150000J0D01*
G01*
X214912000Y-108955000D01*
G75*
G02*
X215062000Y-109105000I0J-150000D01*
G01*
X215062000Y-109105000D01*
G75*
G02*
X214912000Y-109255000I-150000J0D01*
G01*
G37*
G36*
G01*
X214912000Y-109755000D02*
X214412000Y-109755000D01*
G75*
G02*
X214262000Y-109605000I0J150000D01*
G01*
X214262000Y-109605000D01*
G75*
G02*
X214412000Y-109455000I150000J0D01*
G01*
X214912000Y-109455000D01*
G75*
G02*
X215062000Y-109605000I0J-150000D01*
G01*
X215062000Y-109605000D01*
G75*
G02*
X214912000Y-109755000I-150000J0D01*
G01*
G37*
G36*
G01*
X214912000Y-110255000D02*
X214412000Y-110255000D01*
G75*
G02*
X214262000Y-110105000I0J150000D01*
G01*
X214262000Y-110105000D01*
G75*
G02*
X214412000Y-109955000I150000J0D01*
G01*
X214912000Y-109955000D01*
G75*
G02*
X215062000Y-110105000I0J-150000D01*
G01*
X215062000Y-110105000D01*
G75*
G02*
X214912000Y-110255000I-150000J0D01*
G01*
G37*
G36*
G01*
X214912000Y-110755000D02*
X214412000Y-110755000D01*
G75*
G02*
X214262000Y-110605000I0J150000D01*
G01*
X214262000Y-110605000D01*
G75*
G02*
X214412000Y-110455000I150000J0D01*
G01*
X214912000Y-110455000D01*
G75*
G02*
X215062000Y-110605000I0J-150000D01*
G01*
X215062000Y-110605000D01*
G75*
G02*
X214912000Y-110755000I-150000J0D01*
G01*
G37*
G36*
G01*
X214912000Y-111255000D02*
X214412000Y-111255000D01*
G75*
G02*
X214262000Y-111105000I0J150000D01*
G01*
X214262000Y-111105000D01*
G75*
G02*
X214412000Y-110955000I150000J0D01*
G01*
X214912000Y-110955000D01*
G75*
G02*
X215062000Y-111105000I0J-150000D01*
G01*
X215062000Y-111105000D01*
G75*
G02*
X214912000Y-111255000I-150000J0D01*
G01*
G37*
G36*
G01*
X215262000Y-112105000D02*
X215262000Y-111605000D01*
G75*
G02*
X215412000Y-111455000I150000J0D01*
G01*
X215412000Y-111455000D01*
G75*
G02*
X215562000Y-111605000I0J-150000D01*
G01*
X215562000Y-112105000D01*
G75*
G02*
X215412000Y-112255000I-150000J0D01*
G01*
X215412000Y-112255000D01*
G75*
G02*
X215262000Y-112105000I0J150000D01*
G01*
G37*
G36*
G01*
X215762000Y-112105000D02*
X215762000Y-111605000D01*
G75*
G02*
X215912000Y-111455000I150000J0D01*
G01*
X215912000Y-111455000D01*
G75*
G02*
X216062000Y-111605000I0J-150000D01*
G01*
X216062000Y-112105000D01*
G75*
G02*
X215912000Y-112255000I-150000J0D01*
G01*
X215912000Y-112255000D01*
G75*
G02*
X215762000Y-112105000I0J150000D01*
G01*
G37*
G36*
G01*
X216262000Y-112105000D02*
X216262000Y-111605000D01*
G75*
G02*
X216412000Y-111455000I150000J0D01*
G01*
X216412000Y-111455000D01*
G75*
G02*
X216562000Y-111605000I0J-150000D01*
G01*
X216562000Y-112105000D01*
G75*
G02*
X216412000Y-112255000I-150000J0D01*
G01*
X216412000Y-112255000D01*
G75*
G02*
X216262000Y-112105000I0J150000D01*
G01*
G37*
G36*
G01*
X216762000Y-112105000D02*
X216762000Y-111605000D01*
G75*
G02*
X216912000Y-111455000I150000J0D01*
G01*
X216912000Y-111455000D01*
G75*
G02*
X217062000Y-111605000I0J-150000D01*
G01*
X217062000Y-112105000D01*
G75*
G02*
X216912000Y-112255000I-150000J0D01*
G01*
X216912000Y-112255000D01*
G75*
G02*
X216762000Y-112105000I0J150000D01*
G01*
G37*
G36*
G01*
X217262000Y-112105000D02*
X217262000Y-111605000D01*
G75*
G02*
X217412000Y-111455000I150000J0D01*
G01*
X217412000Y-111455000D01*
G75*
G02*
X217562000Y-111605000I0J-150000D01*
G01*
X217562000Y-112105000D01*
G75*
G02*
X217412000Y-112255000I-150000J0D01*
G01*
X217412000Y-112255000D01*
G75*
G02*
X217262000Y-112105000I0J150000D01*
G01*
G37*
G36*
G01*
X217762000Y-112105000D02*
X217762000Y-111605000D01*
G75*
G02*
X217912000Y-111455000I150000J0D01*
G01*
X217912000Y-111455000D01*
G75*
G02*
X218062000Y-111605000I0J-150000D01*
G01*
X218062000Y-112105000D01*
G75*
G02*
X217912000Y-112255000I-150000J0D01*
G01*
X217912000Y-112255000D01*
G75*
G02*
X217762000Y-112105000I0J150000D01*
G01*
G37*
G36*
G01*
X218912000Y-111255000D02*
X218412000Y-111255000D01*
G75*
G02*
X218262000Y-111105000I0J150000D01*
G01*
X218262000Y-111105000D01*
G75*
G02*
X218412000Y-110955000I150000J0D01*
G01*
X218912000Y-110955000D01*
G75*
G02*
X219062000Y-111105000I0J-150000D01*
G01*
X219062000Y-111105000D01*
G75*
G02*
X218912000Y-111255000I-150000J0D01*
G01*
G37*
G36*
G01*
X218912000Y-110755000D02*
X218412000Y-110755000D01*
G75*
G02*
X218262000Y-110605000I0J150000D01*
G01*
X218262000Y-110605000D01*
G75*
G02*
X218412000Y-110455000I150000J0D01*
G01*
X218912000Y-110455000D01*
G75*
G02*
X219062000Y-110605000I0J-150000D01*
G01*
X219062000Y-110605000D01*
G75*
G02*
X218912000Y-110755000I-150000J0D01*
G01*
G37*
G36*
G01*
X218912000Y-110255000D02*
X218412000Y-110255000D01*
G75*
G02*
X218262000Y-110105000I0J150000D01*
G01*
X218262000Y-110105000D01*
G75*
G02*
X218412000Y-109955000I150000J0D01*
G01*
X218912000Y-109955000D01*
G75*
G02*
X219062000Y-110105000I0J-150000D01*
G01*
X219062000Y-110105000D01*
G75*
G02*
X218912000Y-110255000I-150000J0D01*
G01*
G37*
G36*
G01*
X218912000Y-109755000D02*
X218412000Y-109755000D01*
G75*
G02*
X218262000Y-109605000I0J150000D01*
G01*
X218262000Y-109605000D01*
G75*
G02*
X218412000Y-109455000I150000J0D01*
G01*
X218912000Y-109455000D01*
G75*
G02*
X219062000Y-109605000I0J-150000D01*
G01*
X219062000Y-109605000D01*
G75*
G02*
X218912000Y-109755000I-150000J0D01*
G01*
G37*
G36*
G01*
X218912000Y-109255000D02*
X218412000Y-109255000D01*
G75*
G02*
X218262000Y-109105000I0J150000D01*
G01*
X218262000Y-109105000D01*
G75*
G02*
X218412000Y-108955000I150000J0D01*
G01*
X218912000Y-108955000D01*
G75*
G02*
X219062000Y-109105000I0J-150000D01*
G01*
X219062000Y-109105000D01*
G75*
G02*
X218912000Y-109255000I-150000J0D01*
G01*
G37*
G36*
G01*
X218912000Y-108755000D02*
X218412000Y-108755000D01*
G75*
G02*
X218262000Y-108605000I0J150000D01*
G01*
X218262000Y-108605000D01*
G75*
G02*
X218412000Y-108455000I150000J0D01*
G01*
X218912000Y-108455000D01*
G75*
G02*
X219062000Y-108605000I0J-150000D01*
G01*
X219062000Y-108605000D01*
G75*
G02*
X218912000Y-108755000I-150000J0D01*
G01*
G37*
G36*
G01*
X217762000Y-108105000D02*
X217762000Y-107605000D01*
G75*
G02*
X217912000Y-107455000I150000J0D01*
G01*
X217912000Y-107455000D01*
G75*
G02*
X218062000Y-107605000I0J-150000D01*
G01*
X218062000Y-108105000D01*
G75*
G02*
X217912000Y-108255000I-150000J0D01*
G01*
X217912000Y-108255000D01*
G75*
G02*
X217762000Y-108105000I0J150000D01*
G01*
G37*
G36*
G01*
X217262000Y-108105000D02*
X217262000Y-107605000D01*
G75*
G02*
X217412000Y-107455000I150000J0D01*
G01*
X217412000Y-107455000D01*
G75*
G02*
X217562000Y-107605000I0J-150000D01*
G01*
X217562000Y-108105000D01*
G75*
G02*
X217412000Y-108255000I-150000J0D01*
G01*
X217412000Y-108255000D01*
G75*
G02*
X217262000Y-108105000I0J150000D01*
G01*
G37*
G36*
G01*
X216762000Y-108105000D02*
X216762000Y-107605000D01*
G75*
G02*
X216912000Y-107455000I150000J0D01*
G01*
X216912000Y-107455000D01*
G75*
G02*
X217062000Y-107605000I0J-150000D01*
G01*
X217062000Y-108105000D01*
G75*
G02*
X216912000Y-108255000I-150000J0D01*
G01*
X216912000Y-108255000D01*
G75*
G02*
X216762000Y-108105000I0J150000D01*
G01*
G37*
G36*
G01*
X216262000Y-108105000D02*
X216262000Y-107605000D01*
G75*
G02*
X216412000Y-107455000I150000J0D01*
G01*
X216412000Y-107455000D01*
G75*
G02*
X216562000Y-107605000I0J-150000D01*
G01*
X216562000Y-108105000D01*
G75*
G02*
X216412000Y-108255000I-150000J0D01*
G01*
X216412000Y-108255000D01*
G75*
G02*
X216262000Y-108105000I0J150000D01*
G01*
G37*
G36*
G01*
X215762000Y-108105000D02*
X215762000Y-107605000D01*
G75*
G02*
X215912000Y-107455000I150000J0D01*
G01*
X215912000Y-107455000D01*
G75*
G02*
X216062000Y-107605000I0J-150000D01*
G01*
X216062000Y-108105000D01*
G75*
G02*
X215912000Y-108255000I-150000J0D01*
G01*
X215912000Y-108255000D01*
G75*
G02*
X215762000Y-108105000I0J150000D01*
G01*
G37*
G36*
G01*
X215262000Y-108105000D02*
X215262000Y-107605000D01*
G75*
G02*
X215412000Y-107455000I150000J0D01*
G01*
X215412000Y-107455000D01*
G75*
G02*
X215562000Y-107605000I0J-150000D01*
G01*
X215562000Y-108105000D01*
G75*
G02*
X215412000Y-108255000I-150000J0D01*
G01*
X215412000Y-108255000D01*
G75*
G02*
X215262000Y-108105000I0J150000D01*
G01*
G37*
G36*
G01*
X215287000Y-111120000D02*
X215287000Y-108590000D01*
G75*
G02*
X215397000Y-108480000I110000J0D01*
G01*
X217927000Y-108480000D01*
G75*
G02*
X218037000Y-108590000I0J-110000D01*
G01*
X218037000Y-111120000D01*
G75*
G02*
X217927000Y-111230000I-110000J0D01*
G01*
X215397000Y-111230000D01*
G75*
G02*
X215287000Y-111120000I0J110000D01*
G01*
G37*
X216662000Y-109855000D03*
%TD*%
D32*
%TO.C,D1*%
X202166000Y-100497000D03*
X200662000Y-100497000D03*
%TD*%
D33*
%TO.C,C11*%
X229235000Y-116810000D03*
X229235000Y-119410000D03*
%TD*%
D34*
%TO.C,C10*%
X232258000Y-112014000D03*
X233578000Y-112014000D03*
%TD*%
D33*
%TO.C,C9*%
X236982000Y-111663000D03*
X236982000Y-109063000D03*
%TD*%
D35*
%TO.C,C8*%
X238887000Y-109703000D03*
X238887000Y-111023000D03*
%TD*%
%TO.C,C7*%
X212471000Y-109220000D03*
X212471000Y-110540000D03*
%TD*%
%TO.C,C6*%
X238506000Y-95352000D03*
X238506000Y-96672000D03*
%TD*%
%TO.C,C5*%
X234696000Y-102312000D03*
X234696000Y-103632000D03*
%TD*%
%TO.C,C4*%
X244729000Y-95275000D03*
X244729000Y-93955000D03*
%TD*%
%TO.C,C3*%
X232537000Y-96545000D03*
X232537000Y-95225000D03*
%TD*%
D34*
%TO.C,C2*%
X236626000Y-98933000D03*
X235306000Y-98933000D03*
%TD*%
D35*
%TO.C,C1*%
X210947000Y-110540000D03*
X210947000Y-109220000D03*
%TD*%
M02*
