%TF.GenerationSoftware,KiCad,Pcbnew,(5.1.12)-1*%
%TF.CreationDate,2022-08-18T02:06:40-04:00*%
%TF.ProjectId,MiniMicro,4d696e69-4d69-4637-926f-2e6b69636164,rev?*%
%TF.SameCoordinates,Original*%
%TF.FileFunction,Soldermask,Bot*%
%TF.FilePolarity,Negative*%
%FSLAX46Y46*%
G04 Gerber Fmt 4.6, Leading zero omitted, Abs format (unit mm)*
G04 Created by KiCad (PCBNEW (5.1.12)-1) date 2022-08-18 02:06:40*
%MOMM*%
%LPD*%
G01*
G04 APERTURE LIST*
%ADD10C,0.100000*%
%ADD11C,6.400000*%
%ADD12O,1.700000X1.700000*%
%ADD13R,1.700000X1.700000*%
%ADD14C,0.500000*%
%ADD15R,1.800000X1.250000*%
G04 APERTURE END LIST*
D10*
G36*
X218440000Y-111633000D02*
G01*
X214884000Y-111633000D01*
X214884000Y-108077000D01*
X218440000Y-108077000D01*
X218440000Y-111633000D01*
G37*
X218440000Y-111633000D02*
X214884000Y-111633000D01*
X214884000Y-108077000D01*
X218440000Y-108077000D01*
X218440000Y-111633000D01*
D11*
%TO.C,REF\u002A\u002A*%
X202565000Y-85090000D03*
%TD*%
%TO.C,REF\u002A\u002A*%
X243205000Y-85090000D03*
%TD*%
D12*
%TO.C,J7*%
X200660000Y-104140000D03*
X200660000Y-106680000D03*
X200660000Y-109220000D03*
X200660000Y-111760000D03*
X200660000Y-114300000D03*
D13*
X200660000Y-116840000D03*
%TD*%
%TO.C,J8*%
X213360000Y-104140000D03*
D12*
X210820000Y-104140000D03*
X208280000Y-104140000D03*
X205740000Y-104140000D03*
%TD*%
%TO.C,J6*%
X223520000Y-116840000D03*
D13*
X226060000Y-116840000D03*
%TD*%
D12*
%TO.C,J5*%
X205740000Y-116840000D03*
X208280000Y-116840000D03*
X210820000Y-116840000D03*
X213360000Y-116840000D03*
X215900000Y-116840000D03*
D13*
X218440000Y-116840000D03*
%TD*%
D12*
%TO.C,J4*%
X226060000Y-99060000D03*
X226060000Y-101600000D03*
X226060000Y-104140000D03*
X226060000Y-106680000D03*
X226060000Y-109220000D03*
D13*
X226060000Y-111760000D03*
%TD*%
D12*
%TO.C,J2*%
X244602000Y-111633000D03*
X244602000Y-109093000D03*
X244602000Y-106553000D03*
X244602000Y-104013000D03*
D13*
X244602000Y-101473000D03*
%TD*%
D12*
%TO.C,J1*%
X220980000Y-104140000D03*
X218440000Y-104140000D03*
X220980000Y-101600000D03*
X218440000Y-101600000D03*
X220980000Y-99060000D03*
D13*
X218440000Y-99060000D03*
%TD*%
D14*
%TO.C,IC1*%
X215662000Y-110855000D03*
X216662000Y-110855000D03*
X217662000Y-110855000D03*
X217662000Y-109855000D03*
X217662000Y-108855000D03*
X216662000Y-108855000D03*
X215662000Y-108855000D03*
X215662000Y-109855000D03*
X216662000Y-109855000D03*
%TD*%
D15*
%TO.C,C12*%
X225074000Y-85471000D03*
X222474000Y-85471000D03*
%TD*%
M02*
