%TF.GenerationSoftware,KiCad,Pcbnew,(5.1.12)-1*%
%TF.CreationDate,2022-08-18T02:06:40-04:00*%
%TF.ProjectId,MiniMicro,4d696e69-4d69-4637-926f-2e6b69636164,rev?*%
%TF.SameCoordinates,Original*%
%TF.FileFunction,Legend,Bot*%
%TF.FilePolarity,Positive*%
%FSLAX46Y46*%
G04 Gerber Fmt 4.6, Leading zero omitted, Abs format (unit mm)*
G04 Created by KiCad (PCBNEW (5.1.12)-1) date 2022-08-18 02:06:40*
%MOMM*%
%LPD*%
G01*
G04 APERTURE LIST*
%ADD10C,0.150000*%
%ADD11C,0.101600*%
%ADD12C,0.010000*%
%ADD13C,0.120000*%
%ADD14C,0.254000*%
G04 APERTURE END LIST*
D10*
X212827380Y-100782380D02*
X212922619Y-100734761D01*
X212970238Y-100687142D01*
X213017857Y-100591904D01*
X213017857Y-100306190D01*
X212970238Y-100210952D01*
X212922619Y-100163333D01*
X212827380Y-100115714D01*
X212684523Y-100115714D01*
X212589285Y-100163333D01*
X212541666Y-100210952D01*
X212494047Y-100306190D01*
X212494047Y-100591904D01*
X212541666Y-100687142D01*
X212589285Y-100734761D01*
X212684523Y-100782380D01*
X212827380Y-100782380D01*
X212065476Y-100782380D02*
X212065476Y-100115714D01*
X212065476Y-100306190D02*
X212017857Y-100210952D01*
X211970238Y-100163333D01*
X211875000Y-100115714D01*
X211779761Y-100115714D01*
X211065476Y-100734761D02*
X211160714Y-100782380D01*
X211351190Y-100782380D01*
X211446428Y-100734761D01*
X211494047Y-100639523D01*
X211494047Y-100258571D01*
X211446428Y-100163333D01*
X211351190Y-100115714D01*
X211160714Y-100115714D01*
X211065476Y-100163333D01*
X211017857Y-100258571D01*
X211017857Y-100353809D01*
X211494047Y-100449047D01*
X210589285Y-100115714D02*
X210589285Y-100782380D01*
X210589285Y-100210952D02*
X210541666Y-100163333D01*
X210446428Y-100115714D01*
X210303571Y-100115714D01*
X210208333Y-100163333D01*
X210160714Y-100258571D01*
X210160714Y-100782380D01*
X209255952Y-100782380D02*
X209255952Y-100258571D01*
X209303571Y-100163333D01*
X209398809Y-100115714D01*
X209589285Y-100115714D01*
X209684523Y-100163333D01*
X209255952Y-100734761D02*
X209351190Y-100782380D01*
X209589285Y-100782380D01*
X209684523Y-100734761D01*
X209732142Y-100639523D01*
X209732142Y-100544285D01*
X209684523Y-100449047D01*
X209589285Y-100401428D01*
X209351190Y-100401428D01*
X209255952Y-100353809D01*
X208779761Y-100115714D02*
X208779761Y-100782380D01*
X208779761Y-100210952D02*
X208732142Y-100163333D01*
X208636904Y-100115714D01*
X208494047Y-100115714D01*
X208398809Y-100163333D01*
X208351190Y-100258571D01*
X208351190Y-100782380D01*
X207446428Y-100782380D02*
X207446428Y-99782380D01*
X207446428Y-100734761D02*
X207541666Y-100782380D01*
X207732142Y-100782380D01*
X207827380Y-100734761D01*
X207875000Y-100687142D01*
X207922619Y-100591904D01*
X207922619Y-100306190D01*
X207875000Y-100210952D01*
X207827380Y-100163333D01*
X207732142Y-100115714D01*
X207541666Y-100115714D01*
X207446428Y-100163333D01*
X206589285Y-100734761D02*
X206684523Y-100782380D01*
X206875000Y-100782380D01*
X206970238Y-100734761D01*
X207017857Y-100639523D01*
X207017857Y-100258571D01*
X206970238Y-100163333D01*
X206875000Y-100115714D01*
X206684523Y-100115714D01*
X206589285Y-100163333D01*
X206541666Y-100258571D01*
X206541666Y-100353809D01*
X207017857Y-100449047D01*
X206113095Y-100782380D02*
X206113095Y-100115714D01*
X206113095Y-100306190D02*
X206065476Y-100210952D01*
X206017857Y-100163333D01*
X205922619Y-100115714D01*
X205827380Y-100115714D01*
X205541666Y-100734761D02*
X205446428Y-100782380D01*
X205255952Y-100782380D01*
X205160714Y-100734761D01*
X205113095Y-100639523D01*
X205113095Y-100591904D01*
X205160714Y-100496666D01*
X205255952Y-100449047D01*
X205398809Y-100449047D01*
X205494047Y-100401428D01*
X205541666Y-100306190D01*
X205541666Y-100258571D01*
X205494047Y-100163333D01*
X205398809Y-100115714D01*
X205255952Y-100115714D01*
X205160714Y-100163333D01*
X204541666Y-100782380D02*
X204636904Y-100734761D01*
X204684523Y-100687142D01*
X204732142Y-100591904D01*
X204732142Y-100306190D01*
X204684523Y-100210952D01*
X204636904Y-100163333D01*
X204541666Y-100115714D01*
X204398809Y-100115714D01*
X204303571Y-100163333D01*
X204255952Y-100210952D01*
X204208333Y-100306190D01*
X204208333Y-100591904D01*
X204255952Y-100687142D01*
X204303571Y-100734761D01*
X204398809Y-100782380D01*
X204541666Y-100782380D01*
X203779761Y-100115714D02*
X203779761Y-100782380D01*
X203779761Y-100210952D02*
X203732142Y-100163333D01*
X203636904Y-100115714D01*
X203494047Y-100115714D01*
X203398809Y-100163333D01*
X203351190Y-100258571D01*
X203351190Y-100782380D01*
X202875000Y-100687142D02*
X202827380Y-100734761D01*
X202875000Y-100782380D01*
X202922619Y-100734761D01*
X202875000Y-100687142D01*
X202875000Y-100782380D01*
X201970238Y-100734761D02*
X202065476Y-100782380D01*
X202255952Y-100782380D01*
X202351190Y-100734761D01*
X202398809Y-100687142D01*
X202446428Y-100591904D01*
X202446428Y-100306190D01*
X202398809Y-100210952D01*
X202351190Y-100163333D01*
X202255952Y-100115714D01*
X202065476Y-100115714D01*
X201970238Y-100163333D01*
X201398809Y-100782380D02*
X201494047Y-100734761D01*
X201541666Y-100687142D01*
X201589285Y-100591904D01*
X201589285Y-100306190D01*
X201541666Y-100210952D01*
X201494047Y-100163333D01*
X201398809Y-100115714D01*
X201255952Y-100115714D01*
X201160714Y-100163333D01*
X201113095Y-100210952D01*
X201065476Y-100306190D01*
X201065476Y-100591904D01*
X201113095Y-100687142D01*
X201160714Y-100734761D01*
X201255952Y-100782380D01*
X201398809Y-100782380D01*
X200636904Y-100782380D02*
X200636904Y-100115714D01*
X200636904Y-100210952D02*
X200589285Y-100163333D01*
X200494047Y-100115714D01*
X200351190Y-100115714D01*
X200255952Y-100163333D01*
X200208333Y-100258571D01*
X200208333Y-100782380D01*
X200208333Y-100258571D02*
X200160714Y-100163333D01*
X200065476Y-100115714D01*
X199922619Y-100115714D01*
X199827380Y-100163333D01*
X199779761Y-100258571D01*
X199779761Y-100782380D01*
D11*
%TO.C,G\u002A\u002A\u002A*%
X201443167Y-91647833D02*
X201379946Y-91208625D01*
X201637636Y-91651802D02*
X201505623Y-91022093D01*
X201835000Y-91710000D02*
X201644250Y-90843500D01*
X202052418Y-91766116D02*
X201843267Y-90981732D01*
X202297816Y-91846826D02*
X202078167Y-91245666D01*
D12*
G36*
X211656674Y-86772257D02*
G01*
X211655119Y-86877043D01*
X211674165Y-87041399D01*
X211708231Y-87233630D01*
X211751740Y-87422037D01*
X211799112Y-87574923D01*
X211842781Y-87658575D01*
X211892748Y-87682774D01*
X211897270Y-87658575D01*
X211881158Y-87540618D01*
X211844426Y-87356406D01*
X211796545Y-87145981D01*
X211746987Y-86949386D01*
X211705226Y-86806664D01*
X211684407Y-86758739D01*
X211656674Y-86772257D01*
G37*
X211656674Y-86772257D02*
X211655119Y-86877043D01*
X211674165Y-87041399D01*
X211708231Y-87233630D01*
X211751740Y-87422037D01*
X211799112Y-87574923D01*
X211842781Y-87658575D01*
X211892748Y-87682774D01*
X211897270Y-87658575D01*
X211881158Y-87540618D01*
X211844426Y-87356406D01*
X211796545Y-87145981D01*
X211746987Y-86949386D01*
X211705226Y-86806664D01*
X211684407Y-86758739D01*
X211656674Y-86772257D01*
G36*
X211074451Y-86272841D02*
G01*
X211073546Y-86301791D01*
X211091049Y-86409928D01*
X211138479Y-86599618D01*
X211207335Y-86843740D01*
X211289114Y-87115176D01*
X211375314Y-87386804D01*
X211457435Y-87631506D01*
X211526974Y-87822160D01*
X211575429Y-87931647D01*
X211589454Y-87947500D01*
X211621098Y-87901162D01*
X211614683Y-87868125D01*
X211586973Y-87779345D01*
X211531021Y-87595271D01*
X211454818Y-87342330D01*
X211366353Y-87046947D01*
X211361572Y-87030937D01*
X211252446Y-86671598D01*
X211172867Y-86425474D01*
X211119138Y-86283211D01*
X211087565Y-86235452D01*
X211074451Y-86272841D01*
G37*
X211074451Y-86272841D02*
X211073546Y-86301791D01*
X211091049Y-86409928D01*
X211138479Y-86599618D01*
X211207335Y-86843740D01*
X211289114Y-87115176D01*
X211375314Y-87386804D01*
X211457435Y-87631506D01*
X211526974Y-87822160D01*
X211575429Y-87931647D01*
X211589454Y-87947500D01*
X211621098Y-87901162D01*
X211614683Y-87868125D01*
X211586973Y-87779345D01*
X211531021Y-87595271D01*
X211454818Y-87342330D01*
X211366353Y-87046947D01*
X211361572Y-87030937D01*
X211252446Y-86671598D01*
X211172867Y-86425474D01*
X211119138Y-86283211D01*
X211087565Y-86235452D01*
X211074451Y-86272841D01*
G36*
X208637600Y-87762277D02*
G01*
X208674299Y-87954220D01*
X208752036Y-88258326D01*
X208854355Y-88619767D01*
X209002124Y-89126419D01*
X209118901Y-89524172D01*
X209208954Y-89826131D01*
X209276551Y-90045404D01*
X209325962Y-90195097D01*
X209361453Y-90288318D01*
X209387295Y-90338172D01*
X209407754Y-90357768D01*
X209421257Y-90360500D01*
X209446469Y-90308462D01*
X209426326Y-90185875D01*
X209392529Y-90070465D01*
X209329838Y-89856024D01*
X209244936Y-89565430D01*
X209144509Y-89221566D01*
X209041354Y-88868250D01*
X208935318Y-88507736D01*
X208840674Y-88191094D01*
X208763359Y-87937778D01*
X208709313Y-87767245D01*
X208684476Y-87698949D01*
X208684346Y-87698791D01*
X208641196Y-87678474D01*
X208637600Y-87762277D01*
G37*
X208637600Y-87762277D02*
X208674299Y-87954220D01*
X208752036Y-88258326D01*
X208854355Y-88619767D01*
X209002124Y-89126419D01*
X209118901Y-89524172D01*
X209208954Y-89826131D01*
X209276551Y-90045404D01*
X209325962Y-90195097D01*
X209361453Y-90288318D01*
X209387295Y-90338172D01*
X209407754Y-90357768D01*
X209421257Y-90360500D01*
X209446469Y-90308462D01*
X209426326Y-90185875D01*
X209392529Y-90070465D01*
X209329838Y-89856024D01*
X209244936Y-89565430D01*
X209144509Y-89221566D01*
X209041354Y-88868250D01*
X208935318Y-88507736D01*
X208840674Y-88191094D01*
X208763359Y-87937778D01*
X208709313Y-87767245D01*
X208684476Y-87698949D01*
X208684346Y-87698791D01*
X208641196Y-87678474D01*
X208637600Y-87762277D01*
G36*
X208247423Y-88212931D02*
G01*
X208246447Y-88213886D01*
X208248443Y-88284444D01*
X208278311Y-88452248D01*
X208330027Y-88693341D01*
X208397565Y-88983765D01*
X208474897Y-89299565D01*
X208555999Y-89616783D01*
X208634844Y-89911464D01*
X208705407Y-90159649D01*
X208761661Y-90337382D01*
X208797580Y-90420707D01*
X208802371Y-90424000D01*
X208851453Y-90392405D01*
X208851500Y-90390944D01*
X208836808Y-90315848D01*
X208796820Y-90143871D01*
X208737671Y-89899402D01*
X208665495Y-89606830D01*
X208586426Y-89290547D01*
X208506598Y-88974941D01*
X208432147Y-88684404D01*
X208369205Y-88443323D01*
X208323908Y-88276091D01*
X208302389Y-88207095D01*
X208302169Y-88206791D01*
X208247423Y-88212931D01*
G37*
X208247423Y-88212931D02*
X208246447Y-88213886D01*
X208248443Y-88284444D01*
X208278311Y-88452248D01*
X208330027Y-88693341D01*
X208397565Y-88983765D01*
X208474897Y-89299565D01*
X208555999Y-89616783D01*
X208634844Y-89911464D01*
X208705407Y-90159649D01*
X208761661Y-90337382D01*
X208797580Y-90420707D01*
X208802371Y-90424000D01*
X208851453Y-90392405D01*
X208851500Y-90390944D01*
X208836808Y-90315848D01*
X208796820Y-90143871D01*
X208737671Y-89899402D01*
X208665495Y-89606830D01*
X208586426Y-89290547D01*
X208506598Y-88974941D01*
X208432147Y-88684404D01*
X208369205Y-88443323D01*
X208323908Y-88276091D01*
X208302389Y-88207095D01*
X208302169Y-88206791D01*
X208247423Y-88212931D01*
G36*
X213805722Y-87820495D02*
G01*
X213820798Y-87969526D01*
X213862795Y-88198769D01*
X213906382Y-88394507D01*
X213969612Y-88667330D01*
X214019992Y-88894737D01*
X214051286Y-89047974D01*
X214058500Y-89096088D01*
X214106988Y-89152354D01*
X214122000Y-89154000D01*
X214179296Y-89104129D01*
X214182906Y-89074625D01*
X214164291Y-88939564D01*
X214120168Y-88735126D01*
X214059308Y-88492819D01*
X213990484Y-88244150D01*
X213922467Y-88020626D01*
X213864030Y-87853755D01*
X213823944Y-87775043D01*
X213820500Y-87772916D01*
X213805722Y-87820495D01*
G37*
X213805722Y-87820495D02*
X213820798Y-87969526D01*
X213862795Y-88198769D01*
X213906382Y-88394507D01*
X213969612Y-88667330D01*
X214019992Y-88894737D01*
X214051286Y-89047974D01*
X214058500Y-89096088D01*
X214106988Y-89152354D01*
X214122000Y-89154000D01*
X214179296Y-89104129D01*
X214182906Y-89074625D01*
X214164291Y-88939564D01*
X214120168Y-88735126D01*
X214059308Y-88492819D01*
X213990484Y-88244150D01*
X213922467Y-88020626D01*
X213864030Y-87853755D01*
X213823944Y-87775043D01*
X213820500Y-87772916D01*
X213805722Y-87820495D01*
G36*
X213212225Y-87669758D02*
G01*
X213230140Y-87802529D01*
X213280586Y-88028483D01*
X213365406Y-88357948D01*
X213449371Y-88667153D01*
X213569334Y-89095503D01*
X213661658Y-89407072D01*
X213728786Y-89608464D01*
X213773158Y-89706284D01*
X213797218Y-89707137D01*
X213803491Y-89624958D01*
X213787161Y-89525154D01*
X213743639Y-89334562D01*
X213679985Y-89079253D01*
X213603259Y-88785303D01*
X213520524Y-88478784D01*
X213438838Y-88185770D01*
X213365264Y-87932335D01*
X213306863Y-87744552D01*
X213270694Y-87648494D01*
X213266620Y-87642452D01*
X213224999Y-87619842D01*
X213212225Y-87669758D01*
G37*
X213212225Y-87669758D02*
X213230140Y-87802529D01*
X213280586Y-88028483D01*
X213365406Y-88357948D01*
X213449371Y-88667153D01*
X213569334Y-89095503D01*
X213661658Y-89407072D01*
X213728786Y-89608464D01*
X213773158Y-89706284D01*
X213797218Y-89707137D01*
X213803491Y-89624958D01*
X213787161Y-89525154D01*
X213743639Y-89334562D01*
X213679985Y-89079253D01*
X213603259Y-88785303D01*
X213520524Y-88478784D01*
X213438838Y-88185770D01*
X213365264Y-87932335D01*
X213306863Y-87744552D01*
X213270694Y-87648494D01*
X213266620Y-87642452D01*
X213224999Y-87619842D01*
X213212225Y-87669758D01*
G36*
X212606205Y-87906548D02*
G01*
X212618946Y-87996092D01*
X212659860Y-88171976D01*
X212731123Y-88443946D01*
X212834913Y-88821750D01*
X212918662Y-89120912D01*
X213043089Y-89559902D01*
X213138196Y-89886443D01*
X213207457Y-90110781D01*
X213254346Y-90243160D01*
X213282337Y-90293826D01*
X213294904Y-90273023D01*
X213296500Y-90235114D01*
X213279584Y-90141701D01*
X213233493Y-89951515D01*
X213165212Y-89689528D01*
X213081727Y-89380710D01*
X212990023Y-89050032D01*
X212897088Y-88722466D01*
X212809905Y-88422981D01*
X212735461Y-88176549D01*
X212680741Y-88008141D01*
X212656532Y-87947500D01*
X212619460Y-87893600D01*
X212606205Y-87906548D01*
G37*
X212606205Y-87906548D02*
X212618946Y-87996092D01*
X212659860Y-88171976D01*
X212731123Y-88443946D01*
X212834913Y-88821750D01*
X212918662Y-89120912D01*
X213043089Y-89559902D01*
X213138196Y-89886443D01*
X213207457Y-90110781D01*
X213254346Y-90243160D01*
X213282337Y-90293826D01*
X213294904Y-90273023D01*
X213296500Y-90235114D01*
X213279584Y-90141701D01*
X213233493Y-89951515D01*
X213165212Y-89689528D01*
X213081727Y-89380710D01*
X212990023Y-89050032D01*
X212897088Y-88722466D01*
X212809905Y-88422981D01*
X212735461Y-88176549D01*
X212680741Y-88008141D01*
X212656532Y-87947500D01*
X212619460Y-87893600D01*
X212606205Y-87906548D01*
G36*
X212094676Y-88298846D02*
G01*
X212131492Y-88463836D01*
X212196256Y-88704237D01*
X212281906Y-88997841D01*
X212381380Y-89322437D01*
X212487617Y-89655817D01*
X212593554Y-89975772D01*
X212692131Y-90260094D01*
X212776284Y-90486572D01*
X212838953Y-90632999D01*
X212870794Y-90678000D01*
X212906295Y-90632601D01*
X212899106Y-90598625D01*
X212871601Y-90516092D01*
X212813810Y-90336600D01*
X212733390Y-90084389D01*
X212637995Y-89783700D01*
X212535283Y-89458773D01*
X212432909Y-89133849D01*
X212338528Y-88833168D01*
X212259797Y-88580971D01*
X212204372Y-88401499D01*
X212186856Y-88343452D01*
X212136324Y-88245244D01*
X212092870Y-88231476D01*
X212094676Y-88298846D01*
G37*
X212094676Y-88298846D02*
X212131492Y-88463836D01*
X212196256Y-88704237D01*
X212281906Y-88997841D01*
X212381380Y-89322437D01*
X212487617Y-89655817D01*
X212593554Y-89975772D01*
X212692131Y-90260094D01*
X212776284Y-90486572D01*
X212838953Y-90632999D01*
X212870794Y-90678000D01*
X212906295Y-90632601D01*
X212899106Y-90598625D01*
X212871601Y-90516092D01*
X212813810Y-90336600D01*
X212733390Y-90084389D01*
X212637995Y-89783700D01*
X212535283Y-89458773D01*
X212432909Y-89133849D01*
X212338528Y-88833168D01*
X212259797Y-88580971D01*
X212204372Y-88401499D01*
X212186856Y-88343452D01*
X212136324Y-88245244D01*
X212092870Y-88231476D01*
X212094676Y-88298846D01*
G36*
X211585171Y-88830141D02*
G01*
X211619413Y-88986647D01*
X211677399Y-89220140D01*
X211752918Y-89508241D01*
X211839759Y-89828575D01*
X211931712Y-90158762D01*
X212022567Y-90476425D01*
X212106113Y-90759187D01*
X212176140Y-90984670D01*
X212226436Y-91130496D01*
X212247191Y-91173856D01*
X212277802Y-91157946D01*
X212280500Y-91130497D01*
X212263462Y-91033719D01*
X212216844Y-90845643D01*
X212147394Y-90589005D01*
X212061858Y-90286539D01*
X211966984Y-89960981D01*
X211869519Y-89635066D01*
X211776209Y-89331529D01*
X211693801Y-89073105D01*
X211629043Y-88882531D01*
X211588682Y-88782540D01*
X211580883Y-88773000D01*
X211585171Y-88830141D01*
G37*
X211585171Y-88830141D02*
X211619413Y-88986647D01*
X211677399Y-89220140D01*
X211752918Y-89508241D01*
X211839759Y-89828575D01*
X211931712Y-90158762D01*
X212022567Y-90476425D01*
X212106113Y-90759187D01*
X212176140Y-90984670D01*
X212226436Y-91130496D01*
X212247191Y-91173856D01*
X212277802Y-91157946D01*
X212280500Y-91130497D01*
X212263462Y-91033719D01*
X212216844Y-90845643D01*
X212147394Y-90589005D01*
X212061858Y-90286539D01*
X211966984Y-89960981D01*
X211869519Y-89635066D01*
X211776209Y-89331529D01*
X211693801Y-89073105D01*
X211629043Y-88882531D01*
X211588682Y-88782540D01*
X211580883Y-88773000D01*
X211585171Y-88830141D01*
G36*
X211196186Y-89147799D02*
G01*
X211222760Y-89304425D01*
X211272187Y-89537467D01*
X211338665Y-89824016D01*
X211416392Y-90141161D01*
X211499564Y-90465993D01*
X211582381Y-90775602D01*
X211659038Y-91047078D01*
X211723735Y-91257511D01*
X211770668Y-91383991D01*
X211785284Y-91408250D01*
X211830702Y-91424317D01*
X211823086Y-91344750D01*
X211736659Y-90990872D01*
X211641492Y-90617321D01*
X211543168Y-90244242D01*
X211447269Y-89891780D01*
X211359382Y-89580081D01*
X211285088Y-89329290D01*
X211229972Y-89159553D01*
X211199618Y-89091016D01*
X211198268Y-89090500D01*
X211196186Y-89147799D01*
G37*
X211196186Y-89147799D02*
X211222760Y-89304425D01*
X211272187Y-89537467D01*
X211338665Y-89824016D01*
X211416392Y-90141161D01*
X211499564Y-90465993D01*
X211582381Y-90775602D01*
X211659038Y-91047078D01*
X211723735Y-91257511D01*
X211770668Y-91383991D01*
X211785284Y-91408250D01*
X211830702Y-91424317D01*
X211823086Y-91344750D01*
X211736659Y-90990872D01*
X211641492Y-90617321D01*
X211543168Y-90244242D01*
X211447269Y-89891780D01*
X211359382Y-89580081D01*
X211285088Y-89329290D01*
X211229972Y-89159553D01*
X211199618Y-89091016D01*
X211198268Y-89090500D01*
X211196186Y-89147799D01*
G36*
X202771480Y-90857449D02*
G01*
X202724236Y-91042057D01*
X202723750Y-91065920D01*
X202738597Y-91216381D01*
X202801975Y-91282532D01*
X202884877Y-91300040D01*
X203023584Y-91298346D01*
X203091252Y-91273581D01*
X203135227Y-91162303D01*
X203136278Y-91001866D01*
X203100956Y-90849513D01*
X203035810Y-90762485D01*
X203032619Y-90761151D01*
X202881230Y-90756950D01*
X202771480Y-90857449D01*
G37*
X202771480Y-90857449D02*
X202724236Y-91042057D01*
X202723750Y-91065920D01*
X202738597Y-91216381D01*
X202801975Y-91282532D01*
X202884877Y-91300040D01*
X203023584Y-91298346D01*
X203091252Y-91273581D01*
X203135227Y-91162303D01*
X203136278Y-91001866D01*
X203100956Y-90849513D01*
X203035810Y-90762485D01*
X203032619Y-90761151D01*
X202881230Y-90756950D01*
X202771480Y-90857449D01*
G36*
X210832522Y-85831793D02*
G01*
X210327897Y-85958845D01*
X209804000Y-86178332D01*
X209533770Y-86320652D01*
X209300306Y-86471470D01*
X209068693Y-86657086D01*
X208804012Y-86903803D01*
X208686274Y-87020273D01*
X208411184Y-87304520D01*
X208206322Y-87542855D01*
X208044783Y-87771183D01*
X207899662Y-88025411D01*
X207829953Y-88163087D01*
X207697550Y-88441445D01*
X207614948Y-88650428D01*
X207570644Y-88831886D01*
X207553135Y-89027669D01*
X207550680Y-89179087D01*
X207557790Y-89433079D01*
X207577297Y-89659007D01*
X207603798Y-89803036D01*
X207657845Y-89975822D01*
X207254548Y-89811211D01*
X207192983Y-89789890D01*
X206203065Y-89789890D01*
X206195914Y-89965411D01*
X206173787Y-90210363D01*
X206147720Y-90428242D01*
X205992002Y-91266468D01*
X205751407Y-92093844D01*
X205435018Y-92895294D01*
X205051918Y-93655742D01*
X204611190Y-94360112D01*
X204121916Y-94993328D01*
X203593179Y-95540313D01*
X203034060Y-95985991D01*
X202663609Y-96211561D01*
X202277361Y-96398839D01*
X201939246Y-96513631D01*
X201603559Y-96569026D01*
X201379703Y-96579252D01*
X200988156Y-96583500D01*
X200628546Y-96186625D01*
X200215670Y-95672457D01*
X199855676Y-95109197D01*
X199577795Y-94543453D01*
X199542774Y-94455471D01*
X199451351Y-94183284D01*
X199391987Y-93909439D01*
X199356031Y-93586057D01*
X199341886Y-93343813D01*
X199337057Y-92824158D01*
X199378916Y-92388779D01*
X199473406Y-92001665D01*
X199624686Y-91630500D01*
X199793304Y-91281250D01*
X199835692Y-91630500D01*
X199928611Y-92040425D01*
X200097265Y-92349413D01*
X200344512Y-92560537D01*
X200673207Y-92676865D01*
X200828048Y-92697534D01*
X201091045Y-92699700D01*
X201275796Y-92649760D01*
X201325992Y-92621086D01*
X201456740Y-92515040D01*
X201467280Y-92448295D01*
X201358586Y-92422148D01*
X201183875Y-92431613D01*
X200938902Y-92435730D01*
X200719343Y-92375484D01*
X200596500Y-92317496D01*
X200349708Y-92146319D01*
X200190281Y-91921570D01*
X200107295Y-91621748D01*
X200088599Y-91317990D01*
X200092891Y-91092553D01*
X200119450Y-90945084D01*
X200188599Y-90826563D01*
X200320660Y-90687974D01*
X200369138Y-90641331D01*
X200770387Y-90324584D01*
X201271872Y-90038257D01*
X201848371Y-89793064D01*
X202474657Y-89599721D01*
X203125506Y-89468944D01*
X203130833Y-89468166D01*
X203551967Y-89429444D01*
X204050748Y-89419014D01*
X204581422Y-89435154D01*
X205098234Y-89476139D01*
X205555430Y-89540244D01*
X205675603Y-89564045D01*
X205908331Y-89618676D01*
X206090289Y-89669664D01*
X206187587Y-89707335D01*
X206193445Y-89711902D01*
X206203065Y-89789890D01*
X207192983Y-89789890D01*
X206571650Y-89574712D01*
X205823647Y-89389551D01*
X205048937Y-89261565D01*
X204285915Y-89196593D01*
X203572979Y-89200472D01*
X203353229Y-89218061D01*
X202515212Y-89349747D01*
X201751432Y-89564706D01*
X201068450Y-89859176D01*
X200472825Y-90229398D01*
X199971119Y-90671612D01*
X199569894Y-91182057D01*
X199396878Y-91485625D01*
X199233780Y-91915325D01*
X199126177Y-92422975D01*
X199077406Y-92970731D01*
X199090805Y-93520750D01*
X199169708Y-94035187D01*
X199171431Y-94042537D01*
X199370886Y-94646835D01*
X199684125Y-95266935D01*
X200101665Y-95888068D01*
X200614023Y-96495465D01*
X200986338Y-96869250D01*
X201733692Y-97492261D01*
X202572094Y-98043608D01*
X203481567Y-98513285D01*
X204442130Y-98891285D01*
X205433805Y-99167604D01*
X205676500Y-99218123D01*
X206074283Y-99277902D01*
X206542638Y-99320565D01*
X207044710Y-99345210D01*
X207543641Y-99350931D01*
X208002576Y-99336827D01*
X208384657Y-99301992D01*
X208481418Y-99286899D01*
X208979485Y-99182130D01*
X209428956Y-99047246D01*
X209888604Y-98863035D01*
X210153250Y-98740366D01*
X210327311Y-98659472D01*
X210486921Y-98594563D01*
X210653594Y-98540773D01*
X210848847Y-98493230D01*
X211094194Y-98447068D01*
X211411152Y-98397418D01*
X211821236Y-98339411D01*
X212082937Y-98303718D01*
X212493098Y-98247000D01*
X212859631Y-98194159D01*
X213164282Y-98148002D01*
X213388795Y-98111338D01*
X213514916Y-98086977D01*
X213535453Y-98080214D01*
X213515314Y-98018095D01*
X213441579Y-97861780D01*
X213322744Y-97627858D01*
X213167307Y-97332919D01*
X212983762Y-96993554D01*
X212912443Y-96863706D01*
X212694289Y-96466307D01*
X212529413Y-96158472D01*
X212408983Y-95918991D01*
X212324164Y-95726653D01*
X212266123Y-95560247D01*
X212226026Y-95398564D01*
X212219313Y-95359961D01*
X211913476Y-95359961D01*
X211886146Y-95851755D01*
X211806521Y-96297888D01*
X211778054Y-96397580D01*
X211631206Y-96760837D01*
X211417343Y-97155686D01*
X211166022Y-97531236D01*
X211000478Y-97736470D01*
X210671010Y-98043277D01*
X210247211Y-98335423D01*
X209761688Y-98594264D01*
X209247047Y-98801155D01*
X209013394Y-98872683D01*
X208690333Y-98952769D01*
X208362855Y-99019253D01*
X208054084Y-99069205D01*
X207787144Y-99099697D01*
X207585159Y-99107797D01*
X207471252Y-99090577D01*
X207454500Y-99070192D01*
X207505122Y-99005487D01*
X207597375Y-98948919D01*
X207783366Y-98832888D01*
X208025094Y-98642716D01*
X208296965Y-98401807D01*
X208573387Y-98133562D01*
X208828768Y-97861386D01*
X208974230Y-97689884D01*
X209320250Y-97222349D01*
X209677722Y-96672525D01*
X210030378Y-96070774D01*
X210361950Y-95447459D01*
X210656171Y-94832943D01*
X210896774Y-94257589D01*
X211047527Y-93820179D01*
X211127758Y-93565780D01*
X211198460Y-93364549D01*
X211250067Y-93242518D01*
X211268818Y-93218000D01*
X211317866Y-93273134D01*
X211397722Y-93420026D01*
X211496263Y-93630909D01*
X211601368Y-93878016D01*
X211700917Y-94133580D01*
X211782786Y-94369833D01*
X211807968Y-94453053D01*
X211887691Y-94875922D01*
X211913476Y-95359961D01*
X212219313Y-95359961D01*
X212195040Y-95220391D01*
X212177446Y-95098888D01*
X212020509Y-94350444D01*
X211762511Y-93654950D01*
X211393694Y-92989579D01*
X211096626Y-92571142D01*
X210941426Y-92352804D01*
X210878140Y-92220735D01*
X210895326Y-92177062D01*
X211004290Y-92146549D01*
X211181532Y-92097730D01*
X211264500Y-92075042D01*
X211781182Y-91880001D01*
X212311600Y-91582398D01*
X212834998Y-91201900D01*
X213330617Y-90758171D01*
X213777702Y-90270876D01*
X214155495Y-89759680D01*
X214443240Y-89244249D01*
X214560123Y-88952791D01*
X214658206Y-88571965D01*
X214693205Y-88215558D01*
X214684324Y-88119370D01*
X214517243Y-88119370D01*
X214500801Y-88450844D01*
X214384553Y-88845766D01*
X214218968Y-89214089D01*
X213892457Y-89756656D01*
X213476987Y-90280976D01*
X212995394Y-90766755D01*
X212470511Y-91193702D01*
X211925174Y-91541523D01*
X211382217Y-91789927D01*
X211282296Y-91823862D01*
X211000196Y-91905856D01*
X210794429Y-91932677D01*
X210623280Y-91895991D01*
X210445032Y-91787462D01*
X210236490Y-91614891D01*
X210131368Y-91523458D01*
X209708986Y-91523458D01*
X209700960Y-91648160D01*
X209696676Y-91677280D01*
X209642676Y-91964184D01*
X209557797Y-92333987D01*
X209451980Y-92750011D01*
X209335168Y-93175578D01*
X209217302Y-93574010D01*
X209108324Y-93908631D01*
X209046681Y-94075250D01*
X208663640Y-94922794D01*
X208215660Y-95721543D01*
X207714179Y-96456644D01*
X207170632Y-97113244D01*
X206596456Y-97676491D01*
X206003089Y-98131530D01*
X205847569Y-98229988D01*
X205659738Y-98327745D01*
X205413890Y-98434706D01*
X205148063Y-98536745D01*
X204900298Y-98619731D01*
X204708633Y-98669538D01*
X204642232Y-98677660D01*
X204536105Y-98656197D01*
X204344428Y-98597451D01*
X204099389Y-98511749D01*
X203951005Y-98455888D01*
X203644020Y-98331096D01*
X203330081Y-98193248D01*
X203063233Y-98066367D01*
X202993048Y-98030107D01*
X202803845Y-97925984D01*
X202709367Y-97854183D01*
X202716339Y-97800883D01*
X202831487Y-97752260D01*
X203061538Y-97694490D01*
X203168250Y-97670053D01*
X203666760Y-97503172D01*
X204189869Y-97231323D01*
X204719835Y-96869272D01*
X205238914Y-96431785D01*
X205729365Y-95933628D01*
X206173443Y-95389567D01*
X206508167Y-94890541D01*
X206900111Y-94185484D01*
X207243266Y-93455337D01*
X207528722Y-92724569D01*
X207747573Y-92017649D01*
X207890911Y-91359045D01*
X207940310Y-90956433D01*
X207963909Y-90709224D01*
X207991075Y-90515201D01*
X208017110Y-90405520D01*
X208025343Y-90392656D01*
X208098584Y-90410415D01*
X208253856Y-90484450D01*
X208467329Y-90600877D01*
X208715171Y-90745812D01*
X208973553Y-90905371D01*
X209218645Y-91065669D01*
X209403270Y-91195478D01*
X209581164Y-91331639D01*
X209676061Y-91429459D01*
X209708986Y-91523458D01*
X210131368Y-91523458D01*
X209853508Y-91281783D01*
X209890277Y-90971327D01*
X209950357Y-90705759D01*
X210063092Y-90389754D01*
X210206506Y-90074916D01*
X210358622Y-89812846D01*
X210417128Y-89734177D01*
X210540727Y-89584104D01*
X210752117Y-90527927D01*
X210853256Y-90965544D01*
X210936680Y-91297191D01*
X211001096Y-91518651D01*
X211045212Y-91625706D01*
X211067736Y-91614136D01*
X211070493Y-91567000D01*
X211056681Y-91468304D01*
X211019039Y-91275848D01*
X210963738Y-91016382D01*
X210896952Y-90716656D01*
X210824849Y-90403421D01*
X210753604Y-90103428D01*
X210689386Y-89843426D01*
X210638367Y-89650166D01*
X210606720Y-89550399D01*
X210604050Y-89545193D01*
X210626134Y-89469260D01*
X210727201Y-89328618D01*
X210889648Y-89141021D01*
X211095872Y-88924221D01*
X211328269Y-88695973D01*
X211569236Y-88474029D01*
X211801169Y-88276144D01*
X212006466Y-88120069D01*
X212039231Y-88097786D01*
X212479279Y-87836759D01*
X212919917Y-87633159D01*
X213332750Y-87498043D01*
X213689380Y-87442469D01*
X213724124Y-87441685D01*
X213949241Y-87453842D01*
X214107462Y-87506671D01*
X214251370Y-87614125D01*
X214434044Y-87843183D01*
X214517243Y-88119370D01*
X214684324Y-88119370D01*
X214665103Y-87911211D01*
X214573886Y-87686568D01*
X214560894Y-87669044D01*
X214302138Y-87437923D01*
X213972703Y-87311386D01*
X213574126Y-87289551D01*
X213107948Y-87372536D01*
X212663019Y-87524231D01*
X212291754Y-87674191D01*
X212326252Y-87218050D01*
X212327713Y-87103898D01*
X212146191Y-87103898D01*
X212145988Y-87115515D01*
X212134030Y-87396905D01*
X212100194Y-87604321D01*
X212026673Y-87770367D01*
X211895661Y-87927645D01*
X211689352Y-88108759D01*
X211536958Y-88230641D01*
X211320449Y-88395646D01*
X211142525Y-88520061D01*
X211024794Y-88589463D01*
X210988842Y-88596490D01*
X210963702Y-88523218D01*
X210910542Y-88348215D01*
X210835420Y-88092092D01*
X210744390Y-87775462D01*
X210658215Y-87471250D01*
X210558860Y-87120846D01*
X210470698Y-86814901D01*
X210399649Y-86573550D01*
X210351629Y-86416932D01*
X210333207Y-86365291D01*
X210294768Y-86341821D01*
X210289944Y-86412209D01*
X210319923Y-86582341D01*
X210385890Y-86858105D01*
X210489031Y-87245388D01*
X210566988Y-87525684D01*
X210667587Y-87887756D01*
X210754761Y-88209935D01*
X210823067Y-88471409D01*
X210867065Y-88651368D01*
X210881388Y-88727879D01*
X210847465Y-88815788D01*
X210770426Y-88932242D01*
X210682421Y-89036147D01*
X210615600Y-89086406D01*
X210603075Y-89083620D01*
X210577539Y-89018345D01*
X210519644Y-88850434D01*
X210435511Y-88598279D01*
X210331260Y-88280274D01*
X210213014Y-87914813D01*
X210182724Y-87820500D01*
X210062746Y-87453929D01*
X209954663Y-87137979D01*
X209864505Y-86889124D01*
X209798304Y-86723840D01*
X209762093Y-86658599D01*
X209758082Y-86660688D01*
X209768382Y-86742532D01*
X209813058Y-86925612D01*
X209886679Y-87190563D01*
X209983815Y-87518020D01*
X210099037Y-87888618D01*
X210126862Y-87975853D01*
X210523182Y-89212579D01*
X210345455Y-89469039D01*
X210235358Y-89617419D01*
X210152735Y-89709910D01*
X210128739Y-89725277D01*
X210097924Y-89667847D01*
X210032761Y-89506899D01*
X209939504Y-89259252D01*
X209824407Y-88941724D01*
X209693723Y-88571132D01*
X209615189Y-88344152D01*
X209480230Y-87957920D01*
X209358487Y-87621845D01*
X209255846Y-87351173D01*
X209178194Y-87161148D01*
X209131418Y-87067016D01*
X209120567Y-87063164D01*
X209134738Y-87149969D01*
X209185517Y-87338024D01*
X209267229Y-87608828D01*
X209374197Y-87943876D01*
X209500744Y-88324667D01*
X209568633Y-88523664D01*
X210036760Y-89884250D01*
X209857078Y-90265250D01*
X209763071Y-90488911D01*
X209697960Y-90690309D01*
X209677199Y-90810291D01*
X209662811Y-90949023D01*
X209636394Y-91014940D01*
X209615175Y-91033627D01*
X209585070Y-91035144D01*
X209525373Y-91008708D01*
X209415380Y-90943536D01*
X209234384Y-90828845D01*
X209042000Y-90705393D01*
X208785214Y-90546886D01*
X208516308Y-90390838D01*
X208303987Y-90276502D01*
X208053563Y-90107142D01*
X207885958Y-89883266D01*
X207791580Y-89585130D01*
X207760836Y-89192985D01*
X207760832Y-89158379D01*
X207770137Y-88939425D01*
X207803933Y-88748904D01*
X207874316Y-88544155D01*
X207993379Y-88282518D01*
X208030858Y-88205879D01*
X208335792Y-87700066D01*
X208730192Y-87218429D01*
X209184806Y-86790469D01*
X209670383Y-86445686D01*
X209899250Y-86321602D01*
X210159561Y-86200069D01*
X210359200Y-86126578D01*
X210549422Y-86089167D01*
X210781486Y-86075871D01*
X210958001Y-86074495D01*
X211244686Y-86079529D01*
X211438989Y-86099098D01*
X211575256Y-86139436D01*
X211687834Y-86206780D01*
X211688251Y-86207088D01*
X211953020Y-86460806D01*
X212102280Y-86753021D01*
X212146191Y-87103898D01*
X212327713Y-87103898D01*
X212331300Y-86823747D01*
X212273588Y-86517932D01*
X212145307Y-86274599D01*
X211994869Y-86114622D01*
X211667524Y-85909637D01*
X211279570Y-85815376D01*
X210832522Y-85831793D01*
G37*
X210832522Y-85831793D02*
X210327897Y-85958845D01*
X209804000Y-86178332D01*
X209533770Y-86320652D01*
X209300306Y-86471470D01*
X209068693Y-86657086D01*
X208804012Y-86903803D01*
X208686274Y-87020273D01*
X208411184Y-87304520D01*
X208206322Y-87542855D01*
X208044783Y-87771183D01*
X207899662Y-88025411D01*
X207829953Y-88163087D01*
X207697550Y-88441445D01*
X207614948Y-88650428D01*
X207570644Y-88831886D01*
X207553135Y-89027669D01*
X207550680Y-89179087D01*
X207557790Y-89433079D01*
X207577297Y-89659007D01*
X207603798Y-89803036D01*
X207657845Y-89975822D01*
X207254548Y-89811211D01*
X207192983Y-89789890D01*
X206203065Y-89789890D01*
X206195914Y-89965411D01*
X206173787Y-90210363D01*
X206147720Y-90428242D01*
X205992002Y-91266468D01*
X205751407Y-92093844D01*
X205435018Y-92895294D01*
X205051918Y-93655742D01*
X204611190Y-94360112D01*
X204121916Y-94993328D01*
X203593179Y-95540313D01*
X203034060Y-95985991D01*
X202663609Y-96211561D01*
X202277361Y-96398839D01*
X201939246Y-96513631D01*
X201603559Y-96569026D01*
X201379703Y-96579252D01*
X200988156Y-96583500D01*
X200628546Y-96186625D01*
X200215670Y-95672457D01*
X199855676Y-95109197D01*
X199577795Y-94543453D01*
X199542774Y-94455471D01*
X199451351Y-94183284D01*
X199391987Y-93909439D01*
X199356031Y-93586057D01*
X199341886Y-93343813D01*
X199337057Y-92824158D01*
X199378916Y-92388779D01*
X199473406Y-92001665D01*
X199624686Y-91630500D01*
X199793304Y-91281250D01*
X199835692Y-91630500D01*
X199928611Y-92040425D01*
X200097265Y-92349413D01*
X200344512Y-92560537D01*
X200673207Y-92676865D01*
X200828048Y-92697534D01*
X201091045Y-92699700D01*
X201275796Y-92649760D01*
X201325992Y-92621086D01*
X201456740Y-92515040D01*
X201467280Y-92448295D01*
X201358586Y-92422148D01*
X201183875Y-92431613D01*
X200938902Y-92435730D01*
X200719343Y-92375484D01*
X200596500Y-92317496D01*
X200349708Y-92146319D01*
X200190281Y-91921570D01*
X200107295Y-91621748D01*
X200088599Y-91317990D01*
X200092891Y-91092553D01*
X200119450Y-90945084D01*
X200188599Y-90826563D01*
X200320660Y-90687974D01*
X200369138Y-90641331D01*
X200770387Y-90324584D01*
X201271872Y-90038257D01*
X201848371Y-89793064D01*
X202474657Y-89599721D01*
X203125506Y-89468944D01*
X203130833Y-89468166D01*
X203551967Y-89429444D01*
X204050748Y-89419014D01*
X204581422Y-89435154D01*
X205098234Y-89476139D01*
X205555430Y-89540244D01*
X205675603Y-89564045D01*
X205908331Y-89618676D01*
X206090289Y-89669664D01*
X206187587Y-89707335D01*
X206193445Y-89711902D01*
X206203065Y-89789890D01*
X207192983Y-89789890D01*
X206571650Y-89574712D01*
X205823647Y-89389551D01*
X205048937Y-89261565D01*
X204285915Y-89196593D01*
X203572979Y-89200472D01*
X203353229Y-89218061D01*
X202515212Y-89349747D01*
X201751432Y-89564706D01*
X201068450Y-89859176D01*
X200472825Y-90229398D01*
X199971119Y-90671612D01*
X199569894Y-91182057D01*
X199396878Y-91485625D01*
X199233780Y-91915325D01*
X199126177Y-92422975D01*
X199077406Y-92970731D01*
X199090805Y-93520750D01*
X199169708Y-94035187D01*
X199171431Y-94042537D01*
X199370886Y-94646835D01*
X199684125Y-95266935D01*
X200101665Y-95888068D01*
X200614023Y-96495465D01*
X200986338Y-96869250D01*
X201733692Y-97492261D01*
X202572094Y-98043608D01*
X203481567Y-98513285D01*
X204442130Y-98891285D01*
X205433805Y-99167604D01*
X205676500Y-99218123D01*
X206074283Y-99277902D01*
X206542638Y-99320565D01*
X207044710Y-99345210D01*
X207543641Y-99350931D01*
X208002576Y-99336827D01*
X208384657Y-99301992D01*
X208481418Y-99286899D01*
X208979485Y-99182130D01*
X209428956Y-99047246D01*
X209888604Y-98863035D01*
X210153250Y-98740366D01*
X210327311Y-98659472D01*
X210486921Y-98594563D01*
X210653594Y-98540773D01*
X210848847Y-98493230D01*
X211094194Y-98447068D01*
X211411152Y-98397418D01*
X211821236Y-98339411D01*
X212082937Y-98303718D01*
X212493098Y-98247000D01*
X212859631Y-98194159D01*
X213164282Y-98148002D01*
X213388795Y-98111338D01*
X213514916Y-98086977D01*
X213535453Y-98080214D01*
X213515314Y-98018095D01*
X213441579Y-97861780D01*
X213322744Y-97627858D01*
X213167307Y-97332919D01*
X212983762Y-96993554D01*
X212912443Y-96863706D01*
X212694289Y-96466307D01*
X212529413Y-96158472D01*
X212408983Y-95918991D01*
X212324164Y-95726653D01*
X212266123Y-95560247D01*
X212226026Y-95398564D01*
X212219313Y-95359961D01*
X211913476Y-95359961D01*
X211886146Y-95851755D01*
X211806521Y-96297888D01*
X211778054Y-96397580D01*
X211631206Y-96760837D01*
X211417343Y-97155686D01*
X211166022Y-97531236D01*
X211000478Y-97736470D01*
X210671010Y-98043277D01*
X210247211Y-98335423D01*
X209761688Y-98594264D01*
X209247047Y-98801155D01*
X209013394Y-98872683D01*
X208690333Y-98952769D01*
X208362855Y-99019253D01*
X208054084Y-99069205D01*
X207787144Y-99099697D01*
X207585159Y-99107797D01*
X207471252Y-99090577D01*
X207454500Y-99070192D01*
X207505122Y-99005487D01*
X207597375Y-98948919D01*
X207783366Y-98832888D01*
X208025094Y-98642716D01*
X208296965Y-98401807D01*
X208573387Y-98133562D01*
X208828768Y-97861386D01*
X208974230Y-97689884D01*
X209320250Y-97222349D01*
X209677722Y-96672525D01*
X210030378Y-96070774D01*
X210361950Y-95447459D01*
X210656171Y-94832943D01*
X210896774Y-94257589D01*
X211047527Y-93820179D01*
X211127758Y-93565780D01*
X211198460Y-93364549D01*
X211250067Y-93242518D01*
X211268818Y-93218000D01*
X211317866Y-93273134D01*
X211397722Y-93420026D01*
X211496263Y-93630909D01*
X211601368Y-93878016D01*
X211700917Y-94133580D01*
X211782786Y-94369833D01*
X211807968Y-94453053D01*
X211887691Y-94875922D01*
X211913476Y-95359961D01*
X212219313Y-95359961D01*
X212195040Y-95220391D01*
X212177446Y-95098888D01*
X212020509Y-94350444D01*
X211762511Y-93654950D01*
X211393694Y-92989579D01*
X211096626Y-92571142D01*
X210941426Y-92352804D01*
X210878140Y-92220735D01*
X210895326Y-92177062D01*
X211004290Y-92146549D01*
X211181532Y-92097730D01*
X211264500Y-92075042D01*
X211781182Y-91880001D01*
X212311600Y-91582398D01*
X212834998Y-91201900D01*
X213330617Y-90758171D01*
X213777702Y-90270876D01*
X214155495Y-89759680D01*
X214443240Y-89244249D01*
X214560123Y-88952791D01*
X214658206Y-88571965D01*
X214693205Y-88215558D01*
X214684324Y-88119370D01*
X214517243Y-88119370D01*
X214500801Y-88450844D01*
X214384553Y-88845766D01*
X214218968Y-89214089D01*
X213892457Y-89756656D01*
X213476987Y-90280976D01*
X212995394Y-90766755D01*
X212470511Y-91193702D01*
X211925174Y-91541523D01*
X211382217Y-91789927D01*
X211282296Y-91823862D01*
X211000196Y-91905856D01*
X210794429Y-91932677D01*
X210623280Y-91895991D01*
X210445032Y-91787462D01*
X210236490Y-91614891D01*
X210131368Y-91523458D01*
X209708986Y-91523458D01*
X209700960Y-91648160D01*
X209696676Y-91677280D01*
X209642676Y-91964184D01*
X209557797Y-92333987D01*
X209451980Y-92750011D01*
X209335168Y-93175578D01*
X209217302Y-93574010D01*
X209108324Y-93908631D01*
X209046681Y-94075250D01*
X208663640Y-94922794D01*
X208215660Y-95721543D01*
X207714179Y-96456644D01*
X207170632Y-97113244D01*
X206596456Y-97676491D01*
X206003089Y-98131530D01*
X205847569Y-98229988D01*
X205659738Y-98327745D01*
X205413890Y-98434706D01*
X205148063Y-98536745D01*
X204900298Y-98619731D01*
X204708633Y-98669538D01*
X204642232Y-98677660D01*
X204536105Y-98656197D01*
X204344428Y-98597451D01*
X204099389Y-98511749D01*
X203951005Y-98455888D01*
X203644020Y-98331096D01*
X203330081Y-98193248D01*
X203063233Y-98066367D01*
X202993048Y-98030107D01*
X202803845Y-97925984D01*
X202709367Y-97854183D01*
X202716339Y-97800883D01*
X202831487Y-97752260D01*
X203061538Y-97694490D01*
X203168250Y-97670053D01*
X203666760Y-97503172D01*
X204189869Y-97231323D01*
X204719835Y-96869272D01*
X205238914Y-96431785D01*
X205729365Y-95933628D01*
X206173443Y-95389567D01*
X206508167Y-94890541D01*
X206900111Y-94185484D01*
X207243266Y-93455337D01*
X207528722Y-92724569D01*
X207747573Y-92017649D01*
X207890911Y-91359045D01*
X207940310Y-90956433D01*
X207963909Y-90709224D01*
X207991075Y-90515201D01*
X208017110Y-90405520D01*
X208025343Y-90392656D01*
X208098584Y-90410415D01*
X208253856Y-90484450D01*
X208467329Y-90600877D01*
X208715171Y-90745812D01*
X208973553Y-90905371D01*
X209218645Y-91065669D01*
X209403270Y-91195478D01*
X209581164Y-91331639D01*
X209676061Y-91429459D01*
X209708986Y-91523458D01*
X210131368Y-91523458D01*
X209853508Y-91281783D01*
X209890277Y-90971327D01*
X209950357Y-90705759D01*
X210063092Y-90389754D01*
X210206506Y-90074916D01*
X210358622Y-89812846D01*
X210417128Y-89734177D01*
X210540727Y-89584104D01*
X210752117Y-90527927D01*
X210853256Y-90965544D01*
X210936680Y-91297191D01*
X211001096Y-91518651D01*
X211045212Y-91625706D01*
X211067736Y-91614136D01*
X211070493Y-91567000D01*
X211056681Y-91468304D01*
X211019039Y-91275848D01*
X210963738Y-91016382D01*
X210896952Y-90716656D01*
X210824849Y-90403421D01*
X210753604Y-90103428D01*
X210689386Y-89843426D01*
X210638367Y-89650166D01*
X210606720Y-89550399D01*
X210604050Y-89545193D01*
X210626134Y-89469260D01*
X210727201Y-89328618D01*
X210889648Y-89141021D01*
X211095872Y-88924221D01*
X211328269Y-88695973D01*
X211569236Y-88474029D01*
X211801169Y-88276144D01*
X212006466Y-88120069D01*
X212039231Y-88097786D01*
X212479279Y-87836759D01*
X212919917Y-87633159D01*
X213332750Y-87498043D01*
X213689380Y-87442469D01*
X213724124Y-87441685D01*
X213949241Y-87453842D01*
X214107462Y-87506671D01*
X214251370Y-87614125D01*
X214434044Y-87843183D01*
X214517243Y-88119370D01*
X214684324Y-88119370D01*
X214665103Y-87911211D01*
X214573886Y-87686568D01*
X214560894Y-87669044D01*
X214302138Y-87437923D01*
X213972703Y-87311386D01*
X213574126Y-87289551D01*
X213107948Y-87372536D01*
X212663019Y-87524231D01*
X212291754Y-87674191D01*
X212326252Y-87218050D01*
X212327713Y-87103898D01*
X212146191Y-87103898D01*
X212145988Y-87115515D01*
X212134030Y-87396905D01*
X212100194Y-87604321D01*
X212026673Y-87770367D01*
X211895661Y-87927645D01*
X211689352Y-88108759D01*
X211536958Y-88230641D01*
X211320449Y-88395646D01*
X211142525Y-88520061D01*
X211024794Y-88589463D01*
X210988842Y-88596490D01*
X210963702Y-88523218D01*
X210910542Y-88348215D01*
X210835420Y-88092092D01*
X210744390Y-87775462D01*
X210658215Y-87471250D01*
X210558860Y-87120846D01*
X210470698Y-86814901D01*
X210399649Y-86573550D01*
X210351629Y-86416932D01*
X210333207Y-86365291D01*
X210294768Y-86341821D01*
X210289944Y-86412209D01*
X210319923Y-86582341D01*
X210385890Y-86858105D01*
X210489031Y-87245388D01*
X210566988Y-87525684D01*
X210667587Y-87887756D01*
X210754761Y-88209935D01*
X210823067Y-88471409D01*
X210867065Y-88651368D01*
X210881388Y-88727879D01*
X210847465Y-88815788D01*
X210770426Y-88932242D01*
X210682421Y-89036147D01*
X210615600Y-89086406D01*
X210603075Y-89083620D01*
X210577539Y-89018345D01*
X210519644Y-88850434D01*
X210435511Y-88598279D01*
X210331260Y-88280274D01*
X210213014Y-87914813D01*
X210182724Y-87820500D01*
X210062746Y-87453929D01*
X209954663Y-87137979D01*
X209864505Y-86889124D01*
X209798304Y-86723840D01*
X209762093Y-86658599D01*
X209758082Y-86660688D01*
X209768382Y-86742532D01*
X209813058Y-86925612D01*
X209886679Y-87190563D01*
X209983815Y-87518020D01*
X210099037Y-87888618D01*
X210126862Y-87975853D01*
X210523182Y-89212579D01*
X210345455Y-89469039D01*
X210235358Y-89617419D01*
X210152735Y-89709910D01*
X210128739Y-89725277D01*
X210097924Y-89667847D01*
X210032761Y-89506899D01*
X209939504Y-89259252D01*
X209824407Y-88941724D01*
X209693723Y-88571132D01*
X209615189Y-88344152D01*
X209480230Y-87957920D01*
X209358487Y-87621845D01*
X209255846Y-87351173D01*
X209178194Y-87161148D01*
X209131418Y-87067016D01*
X209120567Y-87063164D01*
X209134738Y-87149969D01*
X209185517Y-87338024D01*
X209267229Y-87608828D01*
X209374197Y-87943876D01*
X209500744Y-88324667D01*
X209568633Y-88523664D01*
X210036760Y-89884250D01*
X209857078Y-90265250D01*
X209763071Y-90488911D01*
X209697960Y-90690309D01*
X209677199Y-90810291D01*
X209662811Y-90949023D01*
X209636394Y-91014940D01*
X209615175Y-91033627D01*
X209585070Y-91035144D01*
X209525373Y-91008708D01*
X209415380Y-90943536D01*
X209234384Y-90828845D01*
X209042000Y-90705393D01*
X208785214Y-90546886D01*
X208516308Y-90390838D01*
X208303987Y-90276502D01*
X208053563Y-90107142D01*
X207885958Y-89883266D01*
X207791580Y-89585130D01*
X207760836Y-89192985D01*
X207760832Y-89158379D01*
X207770137Y-88939425D01*
X207803933Y-88748904D01*
X207874316Y-88544155D01*
X207993379Y-88282518D01*
X208030858Y-88205879D01*
X208335792Y-87700066D01*
X208730192Y-87218429D01*
X209184806Y-86790469D01*
X209670383Y-86445686D01*
X209899250Y-86321602D01*
X210159561Y-86200069D01*
X210359200Y-86126578D01*
X210549422Y-86089167D01*
X210781486Y-86075871D01*
X210958001Y-86074495D01*
X211244686Y-86079529D01*
X211438989Y-86099098D01*
X211575256Y-86139436D01*
X211687834Y-86206780D01*
X211688251Y-86207088D01*
X211953020Y-86460806D01*
X212102280Y-86753021D01*
X212146191Y-87103898D01*
X212327713Y-87103898D01*
X212331300Y-86823747D01*
X212273588Y-86517932D01*
X212145307Y-86274599D01*
X211994869Y-86114622D01*
X211667524Y-85909637D01*
X211279570Y-85815376D01*
X210832522Y-85831793D01*
D13*
%TO.C,C12*%
X221374000Y-86271000D02*
X221974000Y-86271000D01*
X221374000Y-84671000D02*
X221374000Y-86271000D01*
X221974000Y-84671000D02*
X221374000Y-84671000D01*
D14*
X224590428Y-83384571D02*
X224650904Y-83445047D01*
X224832333Y-83505523D01*
X224953285Y-83505523D01*
X225134714Y-83445047D01*
X225255666Y-83324095D01*
X225316142Y-83203142D01*
X225376619Y-82961238D01*
X225376619Y-82779809D01*
X225316142Y-82537904D01*
X225255666Y-82416952D01*
X225134714Y-82296000D01*
X224953285Y-82235523D01*
X224832333Y-82235523D01*
X224650904Y-82296000D01*
X224590428Y-82356476D01*
X223380904Y-83505523D02*
X224106619Y-83505523D01*
X223743761Y-83505523D02*
X223743761Y-82235523D01*
X223864714Y-82416952D01*
X223985666Y-82537904D01*
X224106619Y-82598380D01*
X222897095Y-82356476D02*
X222836619Y-82296000D01*
X222715666Y-82235523D01*
X222413285Y-82235523D01*
X222292333Y-82296000D01*
X222231857Y-82356476D01*
X222171380Y-82477428D01*
X222171380Y-82598380D01*
X222231857Y-82779809D01*
X222957571Y-83505523D01*
X222171380Y-83505523D01*
%TD*%
M02*
